agave-r.ufo
<glyph name="exclam" format="2">
  <advance width="1024"/>
  <unicode hex="0021"/>
  <outline>
    <contour>
      <point x="419" y="1280" type="line"/>
      <point x="605" y="1280" type="line"/>
      <point x="597" y="512" type="line"/>
      <point x="427" y="512" type="line"/>
    </contour>
    <contour>
      <point x="384" y="256" type="line"/>
      <point x="640" y="256" type="line"/>
      <point x="640" y="0" type="line"/>
      <point x="384" y="0" type="line"/>
    </contour>
  </outline>
</glyph>
<glyph name="quotedbl" format="2">
  <advance width="1024"/>
  <unicode hex="0022"/>
  <outline>
    <contour>
      <point x="264" y="1280" type="line"/>
      <point x="434" y="1280" type="line"/>
      <point x="422" y="768" type="line"/>
      <point x="275" y="768" type="line"/>
    </contour>
    <contour>
      <point x="590" y="1280" type="line"/>
      <point x="760" y="1280" type="line"/>
      <point x="749" y="768" type="line"/>
      <point x="602" y="768" type="line"/>
    </contour>
  </outline>
</glyph>
<glyph name="numbersign" format="2">
  <advance width="1024"/>
  <unicode hex="0023"/>
  <outline>
    <contour>
      <point x="244" y="1280" type="line"/>
      <point x="390" y="1280" type="line"/>
      <point x="390" y="951" type="line"/>
      <point x="634" y="951" type="line"/>
      <point x="634" y="1280" type="line"/>
      <point x="780" y="1280" type="line"/>
      <point x="780" y="951" type="line"/>
      <point x="960" y="951" type="line"/>
      <point x="960" y="805" type="line"/>
      <point x="780" y="805" type="line"/>
      <point x="780" y="475" type="line"/>
      <point x="960" y="475" type="line"/>
      <point x="960" y="329" type="line"/>
      <point x="780" y="329" type="line"/>
      <point x="780" y="0" type="line"/>
      <point x="634" y="0" type="line"/>
      <point x="634" y="329" type="line"/>
      <point x="390" y="329" type="line"/>
      <point x="390" y="0" type="line"/>
      <point x="244" y="0" type="line"/>
      <point x="244" y="329" type="line"/>
      <point x="64" y="329" type="line"/>
      <point x="64" y="475" type="line"/>
      <point x="244" y="475" type="line"/>
      <point x="244" y="805" type="line"/>
      <point x="64" y="805" type="line"/>
      <point x="64" y="951" type="line"/>
      <point x="244" y="951" type="line"/>
    </contour>
    <contour>
      <point x="634" y="805" type="line"/>
      <point x="390" y="805" type="line"/>
      <point x="390" y="475" type="line"/>
      <point x="634" y="475" type="line"/>
    </contour>
  </outline>
</glyph>
<glyph name="dollar" format="2">
  <advance width="1024"/>
  <unicode hex="0024"/>
  <outline>
    <contour>
      <point x="427" y="1437" type="line"/>
      <point x="597" y="1437" type="line"/>
      <point x="597" y="1188" type="line"/>
      <point x="615" y="1189"/>
      <point x="642" y="1189" type="qcurve" smooth="yes"/>
      <point x="703" y="1189"/>
      <point x="814" y="1181"/>
      <point x="839" y="1177" type="qcurve" smooth="yes"/>
      <point x="864" y="1173" type="line"/>
      <point x="864" y="1024" type="line"/>
      <point x="576" y="1024" type="line"/>
      <point x="576" y="694" type="line"/>
      <point x="636" y="678"/>
      <point x="714" y="652"/>
      <point x="813" y="603"/>
      <point x="871" y="547"/>
      <point x="912" y="458"/>
      <point x="912" y="403" type="qcurve" smooth="yes"/>
      <point x="912" y="276"/>
      <point x="752" y="134"/>
      <point x="597" y="108" type="qcurve"/>
      <point x="597" y="-157" type="line"/>
      <point x="427" y="-157" type="line"/>
      <point x="427" y="92" type="line"/>
      <point x="403" y="91"/>
      <point x="363" y="91" type="qcurve" smooth="yes"/>
      <point x="299" y="91"/>
      <point x="181" y="99"/>
      <point x="154.5" y="103" type="qcurve" smooth="yes"/>
      <point x="128" y="107" type="line"/>
      <point x="128" y="256" type="line"/>
      <point x="448" y="256" type="line"/>
      <point x="448" y="586" type="line"/>
      <point x="388" y="602"/>
      <point x="310" y="628"/>
      <point x="211" y="677"/>
      <point x="153" y="733"/>
      <point x="112" y="822"/>
      <point x="112" y="877" type="qcurve" smooth="yes"/>
      <point x="112" y="1006"/>
      <point x="272" y="1149"/>
      <point x="427" y="1174" type="qcurve"/>
    </contour>
    <contour>
      <point x="448" y="1010" type="line"/>
      <point x="282" y="980"/>
      <point x="282" y="877" type="qcurve" smooth="yes"/>
      <point x="282" y="821"/>
      <point x="367" y="754"/>
      <point x="448" y="729" type="qcurve"/>
    </contour>
    <contour>
      <point x="576" y="551" type="qcurve"/>
      <point x="576" y="272" type="line"/>
      <point x="742" y="303"/>
      <point x="742" y="403" type="qcurve" smooth="yes"/>
      <point x="742" y="459"/>
      <point x="657" y="526"/>
    </contour>
  </outline>
</glyph>
<glyph name="percent" format="2">
  <advance width="1024"/>
  <unicode hex="0025"/>
  <outline>
    <contour>
      <point x="128" y="1280" type="line"/>
      <point x="339" y="1280" type="line"/>
      <point x="339" y="960" type="line"/>
      <point x="128" y="960" type="line"/>
    </contour>
    <contour>
      <point x="766" y="1280" type="line"/>
      <point x="960" y="1280" type="line"/>
      <point x="258" y="0" type="line"/>
      <point x="64" y="0" type="line"/>
    </contour>
    <contour>
      <point x="685" y="320" type="line"/>
      <point x="896" y="320" type="line"/>
      <point x="896" y="0" type="line"/>
      <point x="685" y="0" type="line"/>
    </contour>
  </outline>
</glyph>
<glyph name="ampersand" format="2">
  <advance width="1024"/>
  <unicode hex="0026"/>
  <outline>
    <contour>
      <point x="503" y="1288" type="qcurve" smooth="yes"/>
      <point x="538" y="1288"/>
      <point x="601" y="1280"/>
      <point x="615.5" y="1276" type="qcurve" smooth="yes"/>
      <point x="630" y="1272" type="line"/>
      <point x="630" y="1123" type="line"/>
      <point x="503" y="1123" type="line" smooth="yes"/>
      <point x="402" y="1123"/>
      <point x="298" y="1042"/>
      <point x="298" y="946" type="qcurve" smooth="yes"/>
      <point x="298" y="864"/>
      <point x="367" y="768"/>
      <point x="425" y="768" type="qcurve" smooth="yes"/>
      <point x="630" y="768" type="line"/>
      <point x="630" y="987" type="line"/>
      <point x="800" y="987" type="line"/>
      <point x="800" y="768" type="line"/>
      <point x="960" y="768" type="line"/>
      <point x="960" y="611" type="line"/>
      <point x="800" y="611" type="line"/>
      <point x="800" y="321" type="line" smooth="yes"/>
      <point x="800" y="224"/>
      <point x="882" y="141"/>
      <point x="960" y="141" type="qcurve"/>
      <point x="960" y="-8" type="line"/>
      <point x="730" y="-8"/>
      <point x="662" y="142" type="qcurve"/>
      <point x="512" y="-8" type="line"/>
      <point x="292" y="-8"/>
      <point x="64" y="171"/>
      <point x="64" y="380" type="qcurve" smooth="yes"/>
      <point x="64" y="449"/>
      <point x="99" y="567"/>
      <point x="149" y="637"/>
      <point x="199" y="688"/>
      <point x="216.5" y="698" type="qcurve" smooth="yes"/>
      <point x="234" y="708" type="line"/>
      <point x="230" y="710"/>
      <point x="215" y="720"/>
      <point x="179" y="760"/>
      <point x="151" y="809"/>
      <point x="128" y="896"/>
      <point x="128" y="946" type="qcurve" smooth="yes"/>
      <point x="128" y="1131"/>
      <point x="319" y="1288"/>
    </contour>
    <contour>
      <point x="385" y="611" type="line" smooth="yes"/>
      <point x="315" y="611"/>
      <point x="234" y="487"/>
      <point x="234" y="273"/>
      <point x="383" y="149"/>
      <point x="512" y="149" type="qcurve" smooth="yes"/>
      <point x="659" y="149" type="line"/>
      <point x="630" y="218"/>
      <point x="630" y="321" type="qcurve" smooth="yes"/>
      <point x="630" y="611" type="line"/>
    </contour>
  </outline>
</glyph>
<glyph name="quotesingle" format="2">
  <advance width="1024"/>
  <unicode hex="0027"/>
  <outline>
    <contour>
      <point x="427" y="1280" type="line"/>
      <point x="597" y="1280" type="line"/>
      <point x="585" y="768" type="line"/>
      <point x="439" y="768" type="line"/>
    </contour>
  </outline>
</glyph>
<glyph name="parenleft" format="2">
  <advance width="1024"/>
  <unicode hex="0028"/>
  <outline>
    <contour>
      <point x="662" y="1437" type="line"/>
      <point x="854" y="1437" type="line"/>
      <point x="847" y="1432"/>
      <point x="821" y="1411"/>
      <point x="746" y="1336"/>
      <point x="679" y="1248"/>
      <point x="596" y="1101"/>
      <point x="537" y="939"/>
      <point x="496" y="713"/>
      <point x="496" y="469"/>
      <point x="535" y="244"/>
      <point x="599" y="79"/>
      <point x="675" y="-64"/>
      <point x="751" y="-158"/>
      <point x="815" y="-226"/>
      <point x="834.5" y="-241" type="qcurve" smooth="yes"/>
      <point x="854" y="-256" type="line"/>
      <point x="662" y="-256" type="line"/>
      <point x="655" y="-251"/>
      <point x="629" y="-230"/>
      <point x="556" y="-155"/>
      <point x="490" y="-67"/>
      <point x="408" y="80"/>
      <point x="350" y="243"/>
      <point x="310" y="469"/>
      <point x="310" y="713"/>
      <point x="349" y="938"/>
      <point x="411" y="1103"/>
      <point x="486" y="1246"/>
      <point x="561" y="1340"/>
      <point x="623" y="1407"/>
      <point x="642.5" y="1422" type="qcurve" smooth="yes"/>
    </contour>
  </outline>
</glyph>
<glyph name="parenright" format="2">
  <advance width="1024"/>
  <unicode hex="0029"/>
  <outline>
    <contour>
      <point x="362" y="1437" type="line"/>
      <point x="369" y="1432"/>
      <point x="395" y="1411"/>
      <point x="468" y="1336"/>
      <point x="534" y="1248"/>
      <point x="616" y="1101"/>
      <point x="674" y="939"/>
      <point x="714" y="713"/>
      <point x="714" y="469"/>
      <point x="675" y="244"/>
      <point x="613" y="79"/>
      <point x="538" y="-64"/>
      <point x="463" y="-158"/>
      <point x="401" y="-226"/>
      <point x="381.5" y="-241" type="qcurve" smooth="yes"/>
      <point x="362" y="-256" type="line"/>
      <point x="170" y="-256" type="line"/>
      <point x="177" y="-251"/>
      <point x="203" y="-230"/>
      <point x="278" y="-155"/>
      <point x="345" y="-67"/>
      <point x="428" y="80"/>
      <point x="487" y="243"/>
      <point x="528" y="469"/>
      <point x="528" y="713"/>
      <point x="489" y="938"/>
      <point x="425" y="1103"/>
      <point x="349" y="1246"/>
      <point x="273" y="1340"/>
      <point x="209" y="1407"/>
      <point x="189.5" y="1422" type="qcurve" smooth="yes"/>
      <point x="170" y="1437" type="line"/>
    </contour>
  </outline>
</glyph>
<glyph name="asterisk" format="2">
  <advance width="1024"/>
  <unicode hex="002A"/>
  <outline>
    <contour>
      <point x="439" y="1280" type="line"/>
      <point x="585" y="1280" type="line"/>
      <point x="581" y="929" type="line"/>
      <point x="915" y="1041" type="line"/>
      <point x="960" y="902" type="line"/>
      <point x="625" y="797" type="line"/>
      <point x="835" y="515" type="line"/>
      <point x="717" y="429" type="line"/>
      <point x="512" y="717" type="line"/>
      <point x="307" y="429" type="line"/>
      <point x="189" y="515" type="line"/>
      <point x="399" y="797" type="line"/>
      <point x="64" y="902" type="line"/>
      <point x="109" y="1041" type="line"/>
      <point x="443" y="929" type="line"/>
    </contour>
  </outline>
</glyph>
<glyph name="plus" format="2">
  <advance width="1024"/>
  <unicode hex="002B"/>
  <outline>
    <contour>
      <point x="427" y="1088" type="line"/>
      <point x="597" y="1088" type="line"/>
      <point x="597" y="719" type="line"/>
      <point x="960" y="719" type="line"/>
      <point x="960" y="561" type="line"/>
      <point x="597" y="561" type="line"/>
      <point x="597" y="192" type="line"/>
      <point x="427" y="192" type="line"/>
      <point x="427" y="561" type="line"/>
      <point x="64" y="561" type="line"/>
      <point x="64" y="719" type="line"/>
      <point x="427" y="719" type="line"/>
    </contour>
  </outline>
</glyph>
<glyph name="comma" format="2">
  <advance width="1024"/>
  <unicode hex="002C"/>
  <outline>
    <contour>
      <point x="384" y="416" type="line"/>
      <point x="640" y="416" type="line"/>
      <point x="640" y="160" type="line" smooth="yes"/>
      <point x="640" y="153"/>
      <point x="638" y="130"/>
      <point x="625" y="61"/>
      <point x="601" y="-5"/>
      <point x="548" y="-92"/>
      <point x="512" y="-128" type="qcurve" smooth="yes"/>
      <point x="384" y="-256" type="line"/>
      <point x="256" y="-140" type="line"/>
      <point x="384" y="-12" type="line" smooth="yes"/>
      <point x="441" y="45"/>
      <point x="505" y="131"/>
      <point x="508.5" y="145.5" type="qcurve" smooth="yes"/>
      <point x="512" y="160" type="line"/>
      <point x="384" y="160" type="line"/>
    </contour>
  </outline>
</glyph>
<glyph name="hyphen" format="2">
  <advance width="1024"/>
  <unicode hex="002D"/>
  <outline>
    <contour>
      <point x="192" y="719" type="line"/>
      <point x="832" y="719" type="line"/>
      <point x="832" y="561" type="line"/>
      <point x="192" y="561" type="line"/>
    </contour>
  </outline>
</glyph>
<glyph name="period" format="2">
  <advance width="1024"/>
  <unicode hex="002E"/>
  <outline>
    <contour>
      <point x="640" y="0" type="line"/>
      <point x="384" y="0" type="line"/>
      <point x="384" y="320" type="line"/>
      <point x="640" y="320" type="line"/>
    </contour>
  </outline>
</glyph>
<glyph name="slash" format="2">
  <advance width="1024"/>
  <unicode hex="002F"/>
  <outline>
    <contour>
      <point x="177" y="-256" type="line"/>
      <point x="669" y="1437" type="line"/>
      <point x="847" y="1437" type="line"/>
      <point x="354" y="-256" type="line"/>
    </contour>
  </outline>
</glyph>
<glyph name="zero" format="2">
  <advance width="1024"/>
  <unicode hex="0030"/>
  <outline>
    <contour>
      <point x="712" y="1296"/>
      <point x="944" y="944"/>
      <point x="944" y="336"/>
      <point x="712" y="-16"/>
      <point x="312" y="-16"/>
      <point x="80" y="336"/>
      <point x="80" y="944"/>
      <point x="312" y="1296"/>
    </contour>
    <contour>
      <point x="394" y="1139"/>
      <point x="258" y="871"/>
      <point x="258" y="409"/>
      <point x="394" y="141"/>
      <point x="630" y="141"/>
      <point x="766" y="409"/>
      <point x="766" y="871"/>
      <point x="630" y="1139"/>
    </contour>
    <contour>
      <point x="427" y="768" type="line"/>
      <point x="597" y="768" type="line"/>
      <point x="597" y="512" type="line"/>
      <point x="427" y="512" type="line"/>
    </contour>
  </outline>
</glyph>
<glyph name="one" format="2">
  <advance width="1024"/>
  <unicode hex="0031"/>
  <outline>
    <contour>
      <point x="512" y="1280" type="line"/>
      <point x="682" y="1280" type="line"/>
      <point x="682" y="0" type="line"/>
      <point x="512" y="0" type="line"/>
      <point x="512" y="1040" type="line"/>
      <point x="280" y="808" type="line"/>
      <point x="160" y="928" type="line"/>
    </contour>
  </outline>
</glyph>
<glyph name="two" format="2">
  <advance width="1024"/>
  <unicode hex="0032"/>
  <outline>
    <contour>
      <point x="677" y="1296"/>
      <point x="880" y="1092"/>
      <point x="880" y="948" type="qcurve" smooth="yes"/>
      <point x="880" y="910"/>
      <point x="856" y="832"/>
      <point x="826" y="769"/>
      <point x="755" y="670"/>
      <point x="704" y="606"/>
      <point x="649" y="540" type="qcurve" smooth="yes"/>
      <point x="332" y="157" type="line"/>
      <point x="896" y="157" type="line"/>
      <point x="896" y="0" type="line"/>
      <point x="128" y="0" type="line"/>
      <point x="128" y="157" type="line"/>
      <point x="528" y="640" type="line" smooth="yes"/>
      <point x="598" y="725"/>
      <point x="659" y="804"/>
      <point x="710" y="906"/>
      <point x="710" y="948" type="qcurve" smooth="yes"/>
      <point x="710" y="1019"/>
      <point x="599" y="1139"/>
      <point x="425" y="1139"/>
      <point x="314" y="1019"/>
      <point x="314" y="948" type="qcurve"/>
      <point x="144" y="948" type="line"/>
      <point x="144" y="1092"/>
      <point x="347" y="1296"/>
    </contour>
  </outline>
</glyph>
<glyph name="three" format="2">
  <advance width="1024"/>
  <unicode hex="0033"/>
  <outline>
    <contour>
      <point x="370" y="1288" type="qcurve" smooth="yes"/>
      <point x="620" y="1288"/>
      <point x="880" y="1130"/>
      <point x="880" y="946" type="qcurve" smooth="yes"/>
      <point x="880" y="893"/>
      <point x="845" y="805"/>
      <point x="795" y="755"/>
      <point x="745" y="720"/>
      <point x="727.5" y="714" type="qcurve" smooth="yes"/>
      <point x="710" y="708" type="line"/>
      <point x="718" y="705"/>
      <point x="745" y="693"/>
      <point x="815" y="643"/>
      <point x="868" y="577"/>
      <point x="912" y="457"/>
      <point x="912" y="384" type="qcurve" smooth="yes"/>
      <point x="912" y="276"/>
      <point x="837" y="122"/>
      <point x="691" y="32"/>
      <point x="494" y="-8"/>
      <point x="363" y="-8" type="qcurve" smooth="yes"/>
      <point x="299" y="-8"/>
      <point x="181" y="-0"/>
      <point x="154.5" y="4" type="qcurve" smooth="yes"/>
      <point x="128" y="8" type="line"/>
      <point x="128" y="157" type="line"/>
      <point x="363" y="157" type="line" smooth="yes"/>
      <point x="548" y="157"/>
      <point x="742" y="262"/>
      <point x="742" y="384" type="qcurve" smooth="yes"/>
      <point x="742" y="489"/>
      <point x="591" y="611"/>
      <point x="461" y="611" type="qcurve" smooth="yes"/>
      <point x="288" y="611" type="line"/>
      <point x="288" y="768" type="line"/>
      <point x="449" y="768" type="line" smooth="yes"/>
      <point x="570" y="768"/>
      <point x="710" y="864"/>
      <point x="710" y="946" type="qcurve" smooth="yes"/>
      <point x="710" y="1041"/>
      <point x="537" y="1123"/>
      <point x="370" y="1123" type="qcurve" smooth="yes"/>
      <point x="160" y="1123" type="line"/>
      <point x="160" y="1272" type="line"/>
      <point x="240" y="1288"/>
    </contour>
  </outline>
</glyph>
<glyph name="four" format="2">
  <advance width="1024"/>
  <unicode hex="0034"/>
  <outline>
    <contour>
      <point x="598" y="1280" type="line"/>
      <point x="800" y="1280" type="line"/>
      <point x="800" y="413" type="line"/>
      <point x="960" y="413" type="line"/>
      <point x="960" y="256" type="line"/>
      <point x="800" y="256" type="line"/>
      <point x="800" y="0" type="line"/>
      <point x="630" y="0" type="line"/>
      <point x="630" y="256" type="line"/>
      <point x="64" y="256" type="line"/>
      <point x="64" y="413" type="line"/>
    </contour>
    <contour>
      <point x="630" y="413" type="line"/>
      <point x="630" y="1008" type="line"/>
      <point x="264" y="413" type="line"/>
    </contour>
  </outline>
</glyph>
<glyph name="five" format="2">
  <advance width="1024"/>
  <unicode hex="0035"/>
  <outline>
    <contour>
      <point x="330" y="1123" type="line"/>
      <point x="330" y="797" type="line"/>
      <point x="512" y="797" type="line" smooth="yes"/>
      <point x="697" y="797"/>
      <point x="912" y="614"/>
      <point x="912" y="456" type="qcurve" smooth="yes"/>
      <point x="912" y="328"/>
      <point x="837" y="146"/>
      <point x="691" y="40"/>
      <point x="494" y="-8"/>
      <point x="363" y="-8" type="qcurve" smooth="yes"/>
      <point x="299" y="-8"/>
      <point x="181" y="-0"/>
      <point x="154.5" y="4" type="qcurve" smooth="yes"/>
      <point x="128" y="8" type="line"/>
      <point x="128" y="157" type="line"/>
      <point x="363" y="157" type="line" smooth="yes"/>
      <point x="548" y="157"/>
      <point x="742" y="295"/>
      <point x="742" y="456" type="qcurve" smooth="yes"/>
      <point x="742" y="541"/>
      <point x="619" y="640"/>
      <point x="512" y="640" type="qcurve" smooth="yes"/>
      <point x="160" y="640" type="line"/>
      <point x="160" y="1280" type="line"/>
      <point x="864" y="1280" type="line"/>
      <point x="864" y="1123" type="line"/>
    </contour>
  </outline>
</glyph>
<glyph name="six" format="2">
  <advance width="1024"/>
  <unicode hex="0036"/>
  <outline>
    <contour>
      <point x="512" y="1280" type="line"/>
      <point x="706" y="1280" type="line"/>
      <point x="430" y="781" type="line"/>
      <point x="469" y="784"/>
      <point x="512" y="784" type="qcurve" smooth="yes"/>
      <point x="697" y="784"/>
      <point x="912" y="569"/>
      <point x="912" y="199"/>
      <point x="697" y="-16"/>
      <point x="327" y="-16"/>
      <point x="112" y="199"/>
      <point x="112" y="384" type="qcurve" smooth="yes"/>
      <point x="112" y="555"/>
      <point x="160" y="643" type="qcurve" smooth="yes"/>
    </contour>
    <contour>
      <point x="512" y="627" type="qcurve" smooth="yes"/>
      <point x="382" y="627"/>
      <point x="282" y="521"/>
      <point x="282" y="384" type="qcurve" smooth="yes"/>
      <point x="282" y="271"/>
      <point x="406" y="141"/>
      <point x="618" y="141"/>
      <point x="742" y="271"/>
      <point x="742" y="497"/>
      <point x="618" y="627"/>
    </contour>
  </outline>
</glyph>
<glyph name="seven" format="2">
  <advance width="1024"/>
  <unicode hex="0037"/>
  <outline>
    <contour>
      <point x="928" y="1280" type="line"/>
      <point x="928" y="1123" type="line"/>
      <point x="512" y="0" type="line"/>
      <point x="331" y="0" type="line"/>
      <point x="747" y="1123" type="line"/>
      <point x="96" y="1123" type="line"/>
      <point x="96" y="1280" type="line"/>
    </contour>
  </outline>
</glyph>
<glyph name="eight" format="2">
  <advance width="1024"/>
  <unicode hex="0038"/>
  <outline>
    <contour>
      <point x="112" y="970" type="qcurve" smooth="yes"/>
      <point x="112" y="1121"/>
      <point x="327" y="1296"/>
      <point x="697" y="1296"/>
      <point x="912" y="1121"/>
      <point x="912" y="970" type="qcurve" smooth="yes"/>
      <point x="912" y="923"/>
      <point x="863" y="833"/>
      <point x="793" y="772"/>
      <point x="723" y="723"/>
      <point x="698.5" y="711.5" type="qcurve" smooth="yes"/>
      <point x="674" y="700" type="line"/>
      <point x="685" y="695"/>
      <point x="721" y="675"/>
      <point x="814" y="608"/>
      <point x="886" y="535"/>
      <point x="944" y="421"/>
      <point x="944" y="363" type="qcurve" smooth="yes"/>
      <point x="944" y="187"/>
      <point x="712" y="-16"/>
      <point x="312" y="-16"/>
      <point x="80" y="187"/>
      <point x="80" y="363" type="qcurve" smooth="yes"/>
      <point x="80" y="421"/>
      <point x="136" y="534"/>
      <point x="215" y="611"/>
      <point x="294" y="671"/>
      <point x="322" y="685.5" type="qcurve" smooth="yes"/>
      <point x="350" y="700" type="line"/>
      <point x="340" y="704"/>
      <point x="308" y="720"/>
      <point x="226" y="774"/>
      <point x="163" y="832"/>
      <point x="112" y="923"/>
    </contour>
    <contour>
      <point x="282" y="970" type="qcurve" smooth="yes"/>
      <point x="282" y="935"/>
      <point x="329" y="868"/>
      <point x="397" y="822"/>
      <point x="465" y="785"/>
      <point x="488.5" y="776.5" type="qcurve" smooth="yes"/>
      <point x="512" y="768" type="line" smooth="yes"/>
      <point x="517" y="770"/>
      <point x="533" y="776"/>
      <point x="581" y="797"/>
      <point x="625" y="820"/>
      <point x="678" y="856"/>
      <point x="716" y="894"/>
      <point x="742" y="944"/>
      <point x="742" y="970" type="qcurve" smooth="yes"/>
      <point x="742" y="1048"/>
      <point x="618" y="1139"/>
      <point x="406" y="1139"/>
      <point x="282" y="1048"/>
    </contour>
    <contour>
      <point x="512" y="632" type="line"/>
      <point x="507" y="630"/>
      <point x="488" y="622"/>
      <point x="433" y="594"/>
      <point x="384" y="563"/>
      <point x="323" y="514"/>
      <point x="280" y="464"/>
      <point x="250" y="397"/>
      <point x="250" y="363" type="qcurve" smooth="yes"/>
      <point x="250" y="268"/>
      <point x="391" y="157"/>
      <point x="633" y="157"/>
      <point x="774" y="268"/>
      <point x="774" y="363" type="qcurve" smooth="yes"/>
      <point x="774" y="409"/>
      <point x="720" y="499"/>
      <point x="643" y="561"/>
      <point x="566" y="609"/>
      <point x="539" y="620.5" type="qcurve" smooth="yes"/>
    </contour>
  </outline>
</glyph>
<glyph name="nine" format="2">
  <advance width="1024"/>
  <unicode hex="0039"/>
  <outline>
    <contour>
      <point x="512" y="0" type="line"/>
      <point x="318" y="0" type="line"/>
      <point x="594" y="499" type="line"/>
      <point x="555" y="496"/>
      <point x="512" y="496" type="qcurve" smooth="yes"/>
      <point x="327" y="496"/>
      <point x="112" y="711"/>
      <point x="112" y="1081"/>
      <point x="327" y="1296"/>
      <point x="697" y="1296"/>
      <point x="912" y="1081"/>
      <point x="912" y="896" type="qcurve" smooth="yes"/>
      <point x="912" y="725"/>
      <point x="864" y="637" type="qcurve" smooth="yes"/>
    </contour>
    <contour>
      <point x="512" y="653" type="qcurve" smooth="yes"/>
      <point x="642" y="653"/>
      <point x="742" y="759"/>
      <point x="742" y="896" type="qcurve" smooth="yes"/>
      <point x="742" y="1009"/>
      <point x="618" y="1139"/>
      <point x="406" y="1139"/>
      <point x="282" y="1009"/>
      <point x="282" y="783"/>
      <point x="406" y="653"/>
    </contour>
  </outline>
</glyph>
<glyph name="colon" format="2">
  <advance width="1024"/>
  <unicode hex="003A"/>
  <outline>
    <contour>
      <point x="384" y="1184" type="line"/>
      <point x="640" y="1184" type="line"/>
      <point x="640" y="864" type="line"/>
      <point x="384" y="864" type="line"/>
    </contour>
    <contour>
      <point x="384" y="416" type="line"/>
      <point x="640" y="416" type="line"/>
      <point x="640" y="96" type="line"/>
      <point x="384" y="96" type="line"/>
    </contour>
  </outline>
</glyph>
<glyph name="semicolon" format="2">
  <advance width="1024"/>
  <unicode hex="003B"/>
  <outline>
    <contour>
      <point x="384" y="1184" type="line"/>
      <point x="640" y="1184" type="line"/>
      <point x="640" y="864" type="line"/>
      <point x="384" y="864" type="line"/>
    </contour>
    <contour>
      <point x="384" y="416" type="line"/>
      <point x="640" y="416" type="line"/>
      <point x="640" y="159.994" type="line" smooth="yes"/>
      <point x="639.99" y="153.482"/>
      <point x="638.472" y="130.383"/>
      <point x="624.635" y="61.3815"/>
      <point x="600.579" y="-4.83675"/>
      <point x="547.84" y="-92.1597"/>
      <point x="512" y="-128" type="qcurve" smooth="yes"/>
      <point x="384" y="-256" type="line"/>
      <point x="256" y="-140" type="line"/>
      <point x="384" y="-12" type="line" smooth="yes"/>
      <point x="441" y="45"/>
      <point x="505" y="131"/>
      <point x="508.5" y="145.5" type="qcurve" smooth="yes"/>
      <point x="512" y="160" type="line"/>
      <point x="384" y="160" type="line"/>
    </contour>
  </outline>
</glyph>
<glyph name="less" format="2">
  <advance width="1024"/>
  <unicode hex="003C"/>
  <outline>
    <contour>
      <point x="836" y="1167" type="line"/>
      <point x="928" y="1024" type="line"/>
      <point x="331" y="640" type="line"/>
      <point x="928" y="256" type="line"/>
      <point x="836" y="113" type="line"/>
      <point x="96" y="589" type="line"/>
      <point x="96" y="691" type="line"/>
    </contour>
  </outline>
</glyph>
<glyph name="equal" format="2">
  <advance width="1024"/>
  <unicode hex="003D"/>
  <outline>
    <contour>
      <point x="96" y="925" type="line"/>
      <point x="928" y="925" type="line"/>
      <point x="928" y="768" type="line"/>
      <point x="96" y="768" type="line"/>
    </contour>
    <contour>
      <point x="96" y="512" type="line"/>
      <point x="928" y="512" type="line"/>
      <point x="928" y="355" type="line"/>
      <point x="96" y="355" type="line"/>
    </contour>
  </outline>
</glyph>
<glyph name="greater" format="2">
  <advance width="1024"/>
  <unicode hex="003E"/>
  <outline>
    <contour>
      <point x="188" y="1167" type="line"/>
      <point x="928" y="691" type="line"/>
      <point x="928" y="589" type="line"/>
      <point x="188" y="113" type="line"/>
      <point x="96" y="256" type="line"/>
      <point x="693" y="640" type="line"/>
      <point x="96" y="1024" type="line"/>
    </contour>
  </outline>
</glyph>
<glyph name="question" format="2">
  <advance width="1024"/>
  <unicode hex="003F"/>
  <outline>
    <contour>
      <point x="160" y="1272" type="line"/>
      <point x="262" y="1288"/>
      <point x="427" y="1288" type="qcurve" smooth="yes"/>
      <point x="647" y="1288"/>
      <point x="880" y="1135"/>
      <point x="880" y="964" type="qcurve" smooth="yes"/>
      <point x="880" y="828"/>
      <point x="682" y="669"/>
      <point x="512" y="669" type="qcurve"/>
      <point x="512" y="512" type="line"/>
      <point x="342" y="512" type="line"/>
      <point x="342" y="805" type="line"/>
      <point x="522" y="805"/>
      <point x="710" y="879"/>
      <point x="710" y="964" type="qcurve" smooth="yes"/>
      <point x="710" y="1050"/>
      <point x="566" y="1123"/>
      <point x="427" y="1123" type="qcurve" smooth="yes"/>
      <point x="160" y="1123" type="line"/>
    </contour>
    <contour>
      <point x="384" y="256" type="line"/>
      <point x="640" y="256" type="line"/>
      <point x="640" y="0" type="line"/>
      <point x="384" y="0" type="line"/>
    </contour>
  </outline>
</glyph>
<glyph name="at" format="2">
  <advance width="1024"/>
  <unicode hex="0040"/>
  <outline>
    <contour>
      <point x="586" y="1296" type="qcurve" smooth="yes"/>
      <point x="759" y="1296"/>
      <point x="960" y="1139"/>
      <point x="960" y="1004" type="qcurve" smooth="yes"/>
      <point x="960" y="512" type="line" smooth="yes"/>
      <point x="960" y="430"/>
      <point x="897" y="366"/>
      <point x="814" y="366" type="qcurve" smooth="yes"/>
      <point x="627" y="366" type="line" smooth="yes"/>
      <point x="502" y="366"/>
      <point x="358" y="529"/>
      <point x="358" y="670" type="qcurve" smooth="yes"/>
      <point x="358" y="783"/>
      <point x="502" y="914"/>
      <point x="627" y="914" type="qcurve" smooth="yes"/>
      <point x="814" y="914" type="line"/>
      <point x="814" y="1004" type="line" smooth="yes"/>
      <point x="814" y="1072"/>
      <point x="692" y="1150"/>
      <point x="586" y="1150" type="qcurve" smooth="yes"/>
      <point x="408" y="1150"/>
      <point x="218" y="908"/>
      <point x="218" y="640" type="qcurve" smooth="yes"/>
      <point x="218" y="503"/>
      <point x="274" y="310"/>
      <point x="385" y="197"/>
      <point x="532" y="146"/>
      <point x="631" y="146" type="qcurve" smooth="yes"/>
      <point x="896" y="146" type="line"/>
      <point x="896" y="8" type="line"/>
      <point x="795" y="-8"/>
      <point x="631" y="-8" type="qcurve" smooth="yes"/>
      <point x="520" y="-8"/>
      <point x="344" y="33"/>
      <point x="198" y="128"/>
      <point x="101" y="276"/>
      <point x="48" y="496"/>
      <point x="48" y="640" type="qcurve" smooth="yes"/>
      <point x="48" y="786"/>
      <point x="97" y="1008"/>
      <point x="186" y="1159"/>
      <point x="320" y="1254"/>
      <point x="483" y="1296"/>
    </contour>
    <contour>
      <point x="627" y="768" type="line" smooth="yes"/>
      <point x="574" y="768"/>
      <point x="512" y="716"/>
      <point x="512" y="670" type="qcurve" smooth="yes"/>
      <point x="512" y="597"/>
      <point x="574" y="512"/>
      <point x="627" y="512" type="qcurve" smooth="yes"/>
      <point x="814" y="512" type="line"/>
      <point x="814" y="768" type="line"/>
    </contour>
  </outline>
</glyph>
<glyph name="A" format="2">
  <advance width="1024"/>
  <unicode hex="0041"/>
  <outline>
    <contour>
      <point x="410" y="1280" type="line"/>
      <point x="614" y="1280" type="line"/>
      <point x="992" y="0" type="line"/>
      <point x="815" y="0" type="line"/>
      <point x="729" y="291" type="line"/>
      <point x="295" y="291" type="line"/>
      <point x="209" y="0" type="line"/>
      <point x="32" y="0" type="line"/>
    </contour>
    <contour>
      <point x="512" y="1103" type="line"/>
      <point x="482" y="926" type="line"/>
      <point x="341" y="448" type="line"/>
      <point x="683" y="448" type="line"/>
      <point x="542" y="926" type="line"/>
    </contour>
  </outline>
</glyph>
<glyph name="B" format="2">
  <advance width="1024"/>
  <unicode hex="0042"/>
  <outline>
    <contour>
      <point x="128" y="1280" type="line"/>
      <point x="384" y="1280" type="line" smooth="yes"/>
      <point x="609" y="1280"/>
      <point x="848" y="1122"/>
      <point x="848" y="946" type="qcurve" smooth="yes"/>
      <point x="848" y="893"/>
      <point x="813" y="805"/>
      <point x="763" y="755"/>
      <point x="713" y="720"/>
      <point x="695.5" y="714" type="qcurve" smooth="yes"/>
      <point x="678" y="708" type="line"/>
      <point x="689" y="705"/>
      <point x="725" y="693"/>
      <point x="816" y="643"/>
      <point x="887" y="577"/>
      <point x="944" y="457"/>
      <point x="944" y="384" type="qcurve" smooth="yes"/>
      <point x="944" y="278"/>
      <point x="868" y="128"/>
      <point x="718" y="40"/>
      <point x="518" y="-0"/>
      <point x="384" y="0" type="qcurve" smooth="yes"/>
      <point x="128" y="0" type="line"/>
    </contour>
    <contour>
      <point x="298" y="1123" type="line"/>
      <point x="298" y="768" type="line"/>
      <point x="384" y="768" type="line" smooth="yes"/>
      <point x="520" y="768"/>
      <point x="678" y="864"/>
      <point x="678" y="1028"/>
      <point x="520" y="1123"/>
      <point x="384" y="1123" type="qcurve" smooth="yes"/>
    </contour>
    <contour>
      <point x="298" y="611" type="line"/>
      <point x="298" y="157" type="line"/>
      <point x="384" y="157" type="line" smooth="yes"/>
      <point x="481" y="157"/>
      <point x="615" y="176"/>
      <point x="722" y="225"/>
      <point x="774" y="316"/>
      <point x="774" y="452"/>
      <point x="722" y="543"/>
      <point x="615" y="592"/>
      <point x="481" y="611"/>
      <point x="384" y="611" type="qcurve" smooth="yes"/>
    </contour>
  </outline>
</glyph>
<glyph name="D" format="2">
  <advance width="1024"/>
  <unicode hex="0044"/>
  <outline>
    <contour>
      <point x="128" y="1280" type="line"/>
      <point x="384" y="1280" type="line" smooth="yes"/>
      <point x="518" y="1280"/>
      <point x="718" y="1214"/>
      <point x="868" y="1067"/>
      <point x="944" y="817"/>
      <point x="944" y="463"/>
      <point x="868" y="213"/>
      <point x="718" y="66"/>
      <point x="518" y="0"/>
      <point x="384" y="0" type="qcurve" smooth="yes"/>
      <point x="128" y="0" type="line"/>
    </contour>
    <contour>
      <point x="298" y="1123" type="line"/>
      <point x="298" y="157" type="line"/>
      <point x="384" y="157" type="line" smooth="yes"/>
      <point x="476" y="157"/>
      <point x="612" y="207"/>
      <point x="714" y="318"/>
      <point x="766" y="507"/>
      <point x="766" y="773"/>
      <point x="714" y="962"/>
      <point x="612" y="1073"/>
      <point x="476" y="1123"/>
      <point x="384" y="1123" type="qcurve" smooth="yes"/>
    </contour>
  </outline>
</glyph>
<glyph name="E" format="2">
  <advance width="1024"/>
  <unicode hex="0045"/>
  <outline>
    <contour>
      <point x="160" y="1280" type="line"/>
      <point x="896" y="1280" type="line"/>
      <point x="896" y="1123" type="line"/>
      <point x="330" y="1123" type="line"/>
      <point x="330" y="768" type="line"/>
      <point x="832" y="768" type="line"/>
      <point x="832" y="611" type="line"/>
      <point x="330" y="611" type="line"/>
      <point x="330" y="157" type="line"/>
      <point x="896" y="157" type="line"/>
      <point x="896" y="0" type="line"/>
      <point x="160" y="0" type="line"/>
    </contour>
  </outline>
</glyph>
<glyph name="G" format="2">
  <advance width="1024"/>
  <unicode hex="0047"/>
  <outline>
    <contour>
      <point x="640" y="1288" type="qcurve" smooth="yes"/>
      <point x="707" y="1288"/>
      <point x="835" y="1280"/>
      <point x="865.5" y="1276" type="qcurve" smooth="yes"/>
      <point x="896" y="1272" type="line"/>
      <point x="896" y="1123" type="line"/>
      <point x="640" y="1123" type="line" smooth="yes"/>
      <point x="452" y="1123"/>
      <point x="258" y="869"/>
      <point x="258" y="640" type="qcurve" smooth="yes"/>
      <point x="258" y="505"/>
      <point x="300" y="312"/>
      <point x="383" y="200"/>
      <point x="493" y="149"/>
      <point x="567" y="149" type="qcurve" smooth="yes"/>
      <point x="660" y="149"/>
      <point x="758" y="199"/>
      <point x="758" y="256" type="qcurve" smooth="yes"/>
      <point x="758" y="611" type="line"/>
      <point x="512" y="611" type="line"/>
      <point x="512" y="768" type="line"/>
      <point x="928" y="768" type="line"/>
      <point x="928" y="256" type="line" smooth="yes"/>
      <point x="928" y="114"/>
      <point x="744" y="-8"/>
      <point x="567" y="-8" type="qcurve" smooth="yes"/>
      <point x="450" y="-8"/>
      <point x="276" y="59"/>
      <point x="146" y="207"/>
      <point x="80" y="461"/>
      <point x="80" y="640" type="qcurve" smooth="yes"/>
      <point x="80" y="944"/>
      <point x="369" y="1288"/>
    </contour>
  </outline>
</glyph>
<glyph name="I" format="2">
  <advance width="1024"/>
  <unicode hex="0049"/>
  <outline>
    <contour>
      <point x="160" y="1280" type="line"/>
      <point x="864" y="1280" type="line"/>
      <point x="864" y="1123" type="line"/>
      <point x="597" y="1123" type="line"/>
      <point x="597" y="157" type="line"/>
      <point x="864" y="157" type="line"/>
      <point x="864" y="0" type="line"/>
      <point x="160" y="0" type="line"/>
      <point x="160" y="157" type="line"/>
      <point x="427" y="157" type="line"/>
      <point x="427" y="1123" type="line"/>
      <point x="160" y="1123" type="line"/>
    </contour>
  </outline>
</glyph>
<glyph name="J" format="2">
  <advance width="1024"/>
  <unicode hex="004A"/>
  <outline>
    <contour>
      <point x="192" y="1280" type="line"/>
      <point x="832" y="1280" type="line"/>
      <point x="832" y="526" type="line" smooth="yes"/>
      <point x="832" y="378"/>
      <point x="764" y="169"/>
      <point x="630" y="47"/>
      <point x="452" y="-8"/>
      <point x="332" y="-8" type="qcurve" smooth="yes"/>
      <point x="276" y="-8"/>
      <point x="174" y="-0"/>
      <point x="151" y="4" type="qcurve" smooth="yes"/>
      <point x="128" y="8" type="line"/>
      <point x="128" y="157" type="line"/>
      <point x="332" y="157" type="line" smooth="yes"/>
      <point x="494" y="157"/>
      <point x="662" y="327"/>
      <point x="662" y="526" type="qcurve" smooth="yes"/>
      <point x="662" y="1123" type="line"/>
      <point x="192" y="1123" type="line"/>
    </contour>
  </outline>
</glyph>
<glyph name="K" format="2">
  <advance width="1024"/>
  <unicode hex="004B"/>
  <outline>
    <contour>
      <point x="732" y="1280" type="line"/>
      <point x="928" y="1280" type="line"/>
      <point x="477" y="681" type="line"/>
      <point x="960" y="0" type="line"/>
      <point x="752" y="0" type="line"/>
      <point x="298" y="640" type="line"/>
      <point x="298" y="0" type="line"/>
      <point x="128" y="0" type="line"/>
      <point x="128" y="1280" type="line"/>
      <point x="298" y="1280" type="line"/>
      <point x="298" y="704" type="line"/>
    </contour>
  </outline>
</glyph>
<glyph name="L" format="2">
  <advance width="1024"/>
  <unicode hex="004C"/>
  <outline>
    <contour>
      <point x="160" y="1280" type="line"/>
      <point x="330" y="1280" type="line"/>
      <point x="330" y="157" type="line"/>
      <point x="896" y="157" type="line"/>
      <point x="896" y="0" type="line"/>
      <point x="160" y="0" type="line"/>
    </contour>
  </outline>
</glyph>
<glyph name="M" format="2">
  <advance width="1024"/>
  <unicode hex="004D"/>
  <outline>
    <contour>
      <point x="64" y="1280" type="line"/>
      <point x="221" y="1280" type="line"/>
      <point x="512" y="728" type="line"/>
      <point x="803" y="1280" type="line"/>
      <point x="960" y="1280" type="line"/>
      <point x="960" y="0" type="line"/>
      <point x="803" y="0" type="line"/>
      <point x="803" y="768" type="line"/>
      <point x="817" y="1024" type="line"/>
      <point x="698" y="768" type="line"/>
      <point x="563" y="512" type="line"/>
      <point x="461" y="512" type="line"/>
      <point x="326" y="768" type="line"/>
      <point x="207" y="1024" type="line"/>
      <point x="221" y="768" type="line"/>
      <point x="221" y="0" type="line"/>
      <point x="64" y="0" type="line"/>
    </contour>
  </outline>
</glyph>
<glyph name="N" format="2">
  <advance width="1024"/>
  <unicode hex="004E"/>
  <outline>
    <contour>
      <point x="96" y="1280" type="line"/>
      <point x="300" y="1280" type="line"/>
      <point x="651" y="512" type="line"/>
      <point x="762" y="256" type="line"/>
      <point x="758" y="512" type="line"/>
      <point x="758" y="1280" type="line"/>
      <point x="928" y="1280" type="line"/>
      <point x="928" y="0" type="line"/>
      <point x="723" y="0" type="line"/>
      <point x="373" y="768" type="line"/>
      <point x="262" y="1024" type="line"/>
      <point x="266" y="768" type="line"/>
      <point x="266" y="0" type="line"/>
      <point x="96" y="0" type="line"/>
    </contour>
  </outline>
</glyph>
<glyph name="O" format="2">
  <advance width="1024"/>
  <unicode hex="004F"/>
  <outline>
    <contour>
      <point x="80" y="821"/>
      <point x="139" y="1078"/>
      <point x="254" y="1228"/>
      <point x="408" y="1296"/>
      <point x="616" y="1296"/>
      <point x="770" y="1228"/>
      <point x="885" y="1078"/>
      <point x="944" y="821"/>
      <point x="944" y="459"/>
      <point x="885" y="202"/>
      <point x="770" y="52"/>
      <point x="616" y="-16"/>
      <point x="408" y="-16"/>
      <point x="254" y="52"/>
      <point x="139" y="202"/>
      <point x="80" y="459"/>
    </contour>
    <contour>
      <point x="451" y="1139"/>
      <point x="360" y="1087"/>
      <point x="293" y="973"/>
      <point x="258" y="778"/>
      <point x="258" y="502"/>
      <point x="293" y="307"/>
      <point x="360" y="193"/>
      <point x="451" y="141"/>
      <point x="573" y="141"/>
      <point x="664" y="193"/>
      <point x="731" y="307"/>
      <point x="766" y="502"/>
      <point x="766" y="778"/>
      <point x="731" y="973"/>
      <point x="664" y="1087"/>
      <point x="573" y="1139"/>
    </contour>
  </outline>
</glyph>
<glyph name="P" format="2">
  <advance width="1024"/>
  <unicode hex="0050"/>
  <outline>
    <contour>
      <point x="160" y="1280" type="line"/>
      <point x="604" y="1280" type="line" smooth="yes"/>
      <point x="761" y="1280"/>
      <point x="944" y="1074"/>
      <point x="944" y="718"/>
      <point x="706" y="512"/>
      <point x="500" y="512" type="qcurve" smooth="yes"/>
      <point x="330" y="512" type="line"/>
      <point x="330" y="0" type="line"/>
      <point x="160" y="0" type="line"/>
    </contour>
    <contour>
      <point x="330" y="1123" type="line"/>
      <point x="330" y="669" type="line"/>
      <point x="500" y="669" type="line" smooth="yes"/>
      <point x="627" y="669"/>
      <point x="774" y="791"/>
      <point x="774" y="1001"/>
      <point x="683" y="1123"/>
      <point x="604" y="1123" type="qcurve" smooth="yes"/>
    </contour>
  </outline>
</glyph>
<glyph name="Q" format="2">
  <advance width="1024"/>
  <unicode hex="0051"/>
  <outline>
    <contour>
      <point x="772" y="1296"/>
      <point x="976" y="1031"/>
      <point x="976" y="697" type="qcurve" smooth="yes"/>
      <point x="976" y="391"/>
      <point x="807" y="125"/>
      <point x="597" y="106" type="qcurve"/>
      <point x="597" y="-157" type="line"/>
      <point x="427" y="-157" type="line"/>
      <point x="427" y="106" type="line"/>
      <point x="217" y="125"/>
      <point x="48" y="391"/>
      <point x="48" y="697" type="qcurve" smooth="yes"/>
      <point x="48" y="1031"/>
      <point x="252" y="1296"/>
    </contour>
    <contour>
      <point x="346" y="1139"/>
      <point x="217" y="946"/>
      <point x="218" y="697" type="qcurve" smooth="yes"/>
      <point x="219" y="473"/>
      <point x="320" y="281"/>
      <point x="448" y="266" type="qcurve"/>
      <point x="448" y="697" type="line"/>
      <point x="576" y="697" type="line"/>
      <point x="576" y="266" type="line"/>
      <point x="704" y="281"/>
      <point x="806" y="473"/>
      <point x="806" y="697" type="qcurve" smooth="yes"/>
      <point x="806" y="946"/>
      <point x="678" y="1139"/>
    </contour>
  </outline>
</glyph>
<glyph name="R" format="2">
  <advance width="1024"/>
  <unicode hex="0052"/>
  <outline>
    <contour>
      <point x="128" y="1280" type="line"/>
      <point x="572" y="1280" type="line" smooth="yes"/>
      <point x="739" y="1280"/>
      <point x="912" y="1126"/>
      <point x="912" y="946" type="qcurve" smooth="yes"/>
      <point x="912" y="700"/>
      <point x="686" y="636" type="qcurve"/>
      <point x="960" y="0" type="line"/>
      <point x="775" y="0" type="line"/>
      <point x="512" y="611" type="line"/>
      <point x="298" y="611" type="line"/>
      <point x="298" y="0" type="line"/>
      <point x="128" y="0" type="line"/>
    </contour>
    <contour>
      <point x="298" y="1123" type="line"/>
      <point x="298" y="768" type="line"/>
      <point x="468" y="768" type="line" smooth="yes"/>
      <point x="602" y="768"/>
      <point x="742" y="850"/>
      <point x="742" y="946" type="qcurve" smooth="yes"/>
      <point x="742" y="1041"/>
      <point x="655" y="1123"/>
      <point x="572" y="1123" type="qcurve" smooth="yes"/>
    </contour>
  </outline>
</glyph>
<glyph name="S" format="2">
  <advance width="1024"/>
  <unicode hex="0053"/>
  <outline>
    <contour>
      <point x="652" y="1288" type="qcurve" smooth="yes"/>
      <point x="719" y="1288"/>
      <point x="841" y="1280"/>
      <point x="868.5" y="1276" type="qcurve" smooth="yes"/>
      <point x="896" y="1272" type="line"/>
      <point x="896" y="1123" type="line"/>
      <point x="652" y="1123" type="line" smooth="yes"/>
      <point x="474" y="1123"/>
      <point x="290" y="1038"/>
      <point x="290" y="939" type="qcurve" smooth="yes"/>
      <point x="290" y="891"/>
      <point x="335" y="817"/>
      <point x="410" y="767"/>
      <point x="509" y="726"/>
      <point x="617" y="688"/>
      <point x="725" y="648"/>
      <point x="824" y="591"/>
      <point x="899" y="518"/>
      <point x="944" y="409"/>
      <point x="944" y="341" type="qcurve" smooth="yes"/>
      <point x="944" y="208"/>
      <point x="831" y="58"/>
      <point x="578" y="-8"/>
      <point x="352" y="-8" type="qcurve" smooth="yes"/>
      <point x="282" y="-8"/>
      <point x="154" y="-0"/>
      <point x="125" y="4" type="qcurve" smooth="yes"/>
      <point x="96" y="8" type="line"/>
      <point x="96" y="157" type="line"/>
      <point x="352" y="157" type="line" smooth="yes"/>
      <point x="585" y="157"/>
      <point x="766" y="237"/>
      <point x="766" y="341" type="qcurve" smooth="yes"/>
      <point x="766" y="389"/>
      <point x="721" y="463"/>
      <point x="646" y="513"/>
      <point x="547" y="554"/>
      <point x="439" y="592"/>
      <point x="331" y="632"/>
      <point x="232" y="689"/>
      <point x="157" y="762"/>
      <point x="112" y="871"/>
      <point x="112" y="939" type="qcurve" smooth="yes"/>
      <point x="112" y="1127"/>
      <point x="387" y="1288"/>
    </contour>
  </outline>
</glyph>
<glyph name="T" format="2">
  <advance width="1024"/>
  <unicode hex="0054"/>
  <outline>
    <contour>
      <point x="64" y="1280" type="line"/>
      <point x="960" y="1280" type="line"/>
      <point x="960" y="1123" type="line"/>
      <point x="597" y="1123" type="line"/>
      <point x="597" y="0" type="line"/>
      <point x="427" y="0" type="line"/>
      <point x="427" y="1123" type="line"/>
      <point x="64" y="1123" type="line"/>
    </contour>
  </outline>
</glyph>
<glyph name="U" format="2">
  <advance width="1024"/>
  <unicode hex="0055"/>
  <outline>
    <contour>
      <point x="96" y="1280" type="line"/>
      <point x="266" y="1280" type="line"/>
      <point x="266" y="576" type="line" smooth="yes"/>
      <point x="266" y="331"/>
      <point x="373" y="141"/>
      <point x="651" y="141"/>
      <point x="758" y="331"/>
      <point x="758" y="576" type="qcurve" smooth="yes"/>
      <point x="758" y="1280" type="line"/>
      <point x="928" y="1280" type="line"/>
      <point x="928" y="576" type="line" smooth="yes"/>
      <point x="928" y="406"/>
      <point x="886" y="185"/>
      <point x="787" y="43"/>
      <point x="631" y="-16"/>
      <point x="393" y="-16"/>
      <point x="237" y="43"/>
      <point x="138" y="185"/>
      <point x="96" y="406"/>
      <point x="96" y="576" type="qcurve" smooth="yes"/>
    </contour>
  </outline>
</glyph>
<glyph name="V" format="2">
  <advance width="1024"/>
  <unicode hex="0056"/>
  <outline>
    <contour>
      <point x="32" y="1280" type="line"/>
      <point x="209" y="1280" type="line"/>
      <point x="482" y="354" type="line"/>
      <point x="512" y="177" type="line"/>
      <point x="542" y="354" type="line"/>
      <point x="815" y="1280" type="line"/>
      <point x="992" y="1280" type="line"/>
      <point x="614" y="0" type="line"/>
      <point x="410" y="0" type="line"/>
    </contour>
  </outline>
</glyph>
<glyph name="W" format="2">
  <advance width="1024"/>
  <unicode hex="0057"/>
  <outline>
    <contour>
      <point x="32" y="1280" type="line"/>
      <point x="189" y="1280" type="line"/>
      <point x="267" y="245" type="line"/>
      <point x="461" y="768" type="line"/>
      <point x="563" y="768" type="line"/>
      <point x="757" y="245" type="line"/>
      <point x="835" y="1280" type="line"/>
      <point x="992" y="1280" type="line"/>
      <point x="896" y="0" type="line"/>
      <point x="692" y="0" type="line"/>
      <point x="512" y="486" type="line"/>
      <point x="332" y="0" type="line"/>
      <point x="128" y="0" type="line"/>
    </contour>
  </outline>
</glyph>
<glyph name="Y" format="2">
  <advance width="1024"/>
  <unicode hex="0059"/>
  <outline>
    <contour>
      <point x="32" y="1280" type="line"/>
      <point x="223" y="1280" type="line"/>
      <point x="512" y="700" type="line"/>
      <point x="801" y="1280" type="line"/>
      <point x="992" y="1280" type="line"/>
      <point x="597" y="512" type="line"/>
      <point x="597" y="0" type="line"/>
      <point x="427" y="0" type="line"/>
      <point x="427" y="512" type="line"/>
    </contour>
  </outline>
</glyph>
<glyph name="Z" format="2">
  <advance width="1024"/>
  <unicode hex="005A"/>
  <outline>
    <contour>
      <point x="896" y="1280" type="line"/>
      <point x="896" y="1123" type="line"/>
      <point x="283" y="157" type="line"/>
      <point x="928" y="157" type="line"/>
      <point x="928" y="0" type="line"/>
      <point x="96" y="0" type="line"/>
      <point x="96" y="157" type="line"/>
      <point x="709" y="1123" type="line"/>
      <point x="128" y="1123" type="line"/>
      <point x="128" y="1280" type="line"/>
    </contour>
  </outline>
</glyph>
<glyph name="bracketleft" format="2">
  <advance width="1024"/>
  <unicode hex="005B"/>
  <outline>
    <contour>
      <point x="822" y="1280" type="line"/>
      <point x="512" y="1280" type="line"/>
      <point x="512" y="-99" type="line"/>
      <point x="822" y="-99" type="line"/>
      <point x="822" y="-256" type="line"/>
      <point x="342" y="-256" type="line"/>
      <point x="342" y="1437" type="line"/>
      <point x="822" y="1437" type="line"/>
    </contour>
  </outline>
</glyph>
<glyph name="backslash" format="2">
  <advance width="1024"/>
  <unicode hex="005C"/>
  <outline>
    <contour>
      <point x="177" y="1437" type="line"/>
      <point x="354" y="1437" type="line"/>
      <point x="847" y="-256" type="line"/>
      <point x="669" y="-256" type="line"/>
    </contour>
  </outline>
</glyph>
<glyph name="bracketright" format="2">
  <advance width="1024"/>
  <unicode hex="005D"/>
  <outline>
    <contour>
      <point x="202" y="1280" type="line"/>
      <point x="202" y="1437" type="line"/>
      <point x="682" y="1437" type="line"/>
      <point x="682" y="-256" type="line"/>
      <point x="202" y="-256" type="line"/>
      <point x="202" y="-99" type="line"/>
      <point x="512" y="-99" type="line"/>
      <point x="512" y="1280" type="line"/>
    </contour>
  </outline>
</glyph>
<glyph name="asciicircum" format="2">
  <advance width="1024"/>
  <unicode hex="005E"/>
  <outline>
    <contour>
      <point x="410" y="1280" type="line"/>
      <point x="614" y="1280" type="line"/>
      <point x="960" y="640" type="line"/>
      <point x="767" y="640" type="line"/>
      <point x="512" y="1111" type="line"/>
      <point x="257" y="640" type="line"/>
      <point x="64" y="640" type="line"/>
    </contour>
  </outline>
</glyph>
<glyph name="underscore" format="2">
  <advance width="1024"/>
  <unicode hex="005F"/>
  <outline>
    <contour>
      <point x="85" y="-99" type="line"/>
      <point x="939" y="-99" type="line"/>
      <point x="939" y="-256" type="line"/>
      <point x="85" y="-256" type="line"/>
    </contour>
  </outline>
</glyph>
<glyph name="grave" format="2">
  <advance width="1024"/>
  <unicode hex="0060"/>
  <outline>
    <contour>
      <point x="275" y="1141" type="line"/>
      <point x="395" y="1261" type="line"/>
      <point x="749" y="891" type="line"/>
      <point x="645" y="787" type="line"/>
    </contour>
  </outline>
</glyph>
<glyph name="a" format="2">
  <advance width="1024"/>
  <unicode hex="0061"/>
  <outline>
    <contour>
      <point x="416" y="1032" type="qcurve" smooth="yes"/>
      <point x="686" y="1032"/>
      <point x="896" y="885"/>
      <point x="896" y="696" type="qcurve" smooth="yes"/>
      <point x="896" y="256" type="line" smooth="yes"/>
      <point x="896" y="112"/>
      <point x="784" y="0"/>
      <point x="640" y="0" type="qcurve" smooth="yes"/>
      <point x="452" y="0" type="line" smooth="yes"/>
      <point x="294" y="0"/>
      <point x="112" y="176"/>
      <point x="112" y="328" type="qcurve" smooth="yes"/>
      <point x="112" y="450"/>
      <point x="294" y="591"/>
      <point x="452" y="591" type="qcurve" smooth="yes"/>
      <point x="726" y="591" type="line"/>
      <point x="726" y="696" type="line" smooth="yes"/>
      <point x="726" y="792"/>
      <point x="591" y="867"/>
      <point x="416" y="867" type="qcurve" smooth="yes"/>
      <point x="224" y="867" type="line"/>
      <point x="224" y="1016" type="line"/>
      <point x="297" y="1032"/>
    </contour>
    <contour>
      <point x="452" y="433" type="line" smooth="yes"/>
      <point x="373" y="433"/>
      <point x="282" y="377"/>
      <point x="282" y="328" type="qcurve" smooth="yes"/>
      <point x="282" y="249"/>
      <point x="373" y="157"/>
      <point x="452" y="157" type="qcurve" smooth="yes"/>
      <point x="640" y="157" type="line" smooth="yes"/>
      <point x="689" y="157"/>
      <point x="726" y="200"/>
      <point x="726" y="256" type="qcurve" smooth="yes"/>
      <point x="726" y="433" type="line"/>
    </contour>
  </outline>
</glyph>
<glyph name="b" format="2">
  <advance width="1024"/>
  <unicode hex="0062"/>
  <outline>
    <contour>
      <point x="128" y="1280" type="line"/>
      <point x="298" y="1280" type="line"/>
      <point x="298" y="979" type="line"/>
      <point x="403" y="1024"/>
      <point x="512" y="1024" type="qcurve" smooth="yes"/>
      <point x="697" y="1024"/>
      <point x="912" y="762"/>
      <point x="912" y="536" type="qcurve" smooth="yes"/>
      <point x="912" y="288"/>
      <point x="674" y="0"/>
      <point x="468" y="0" type="qcurve" smooth="yes"/>
      <point x="384" y="0" type="line" smooth="yes"/>
      <point x="240" y="0"/>
      <point x="128" y="112"/>
      <point x="128" y="256" type="qcurve" smooth="yes"/>
    </contour>
    <contour>
      <point x="512" y="867" type="qcurve" smooth="yes"/>
      <point x="402" y="867"/>
      <point x="298" y="814" type="qcurve"/>
      <point x="298" y="256" type="line" smooth="yes"/>
      <point x="298" y="210"/>
      <point x="344" y="157"/>
      <point x="384" y="157" type="qcurve" smooth="yes"/>
      <point x="468" y="157" type="line" smooth="yes"/>
      <point x="595" y="157"/>
      <point x="742" y="361"/>
      <point x="742" y="536" type="qcurve" smooth="yes"/>
      <point x="742" y="690"/>
      <point x="619" y="867"/>
    </contour>
  </outline>
</glyph>
<glyph name="c" format="2">
  <advance width="1024"/>
  <unicode hex="0063"/>
  <outline>
    <contour>
      <point x="642" y="1032" type="qcurve" smooth="yes"/>
      <point x="703" y="1032"/>
      <point x="814" y="1024"/>
      <point x="839" y="1020" type="qcurve" smooth="yes"/>
      <point x="864" y="1016" type="line"/>
      <point x="864" y="867" type="line"/>
      <point x="642" y="867" type="line" smooth="yes"/>
      <point x="475" y="867"/>
      <point x="282" y="676"/>
      <point x="282" y="512" type="qcurve" smooth="yes"/>
      <point x="282" y="321"/>
      <point x="466" y="157"/>
      <point x="642" y="157" type="qcurve" smooth="yes"/>
      <point x="864" y="157" type="line"/>
      <point x="864" y="8" type="line"/>
      <point x="779" y="-8"/>
      <point x="642" y="-8" type="qcurve" smooth="yes"/>
      <point x="544" y="-8"/>
      <point x="386" y="25"/>
      <point x="252" y="101"/>
      <point x="162" y="220"/>
      <point x="112" y="397"/>
      <point x="112" y="512" type="qcurve" smooth="yes"/>
      <point x="112" y="751"/>
      <point x="403" y="1032"/>
    </contour>
  </outline>
</glyph>
<glyph name="d" format="2">
  <advance width="1024"/>
  <unicode hex="0064"/>
  <outline>
    <contour>
      <point x="896" y="1280" type="line"/>
      <point x="896" y="256" type="line" smooth="yes"/>
      <point x="896" y="112"/>
      <point x="784" y="0"/>
      <point x="640" y="0" type="qcurve" smooth="yes"/>
      <point x="556" y="0" type="line" smooth="yes"/>
      <point x="350" y="0"/>
      <point x="112" y="262"/>
      <point x="112" y="488" type="qcurve" smooth="yes"/>
      <point x="112" y="736"/>
      <point x="327" y="1024"/>
      <point x="512" y="1024" type="qcurve" smooth="yes"/>
      <point x="621" y="1024"/>
      <point x="726" y="979" type="qcurve"/>
      <point x="726" y="1280" type="line"/>
    </contour>
    <contour>
      <point x="512" y="867" type="qcurve" smooth="yes"/>
      <point x="405" y="867"/>
      <point x="282" y="663"/>
      <point x="282" y="488" type="qcurve" smooth="yes"/>
      <point x="282" y="334"/>
      <point x="429" y="157"/>
      <point x="556" y="157" type="qcurve" smooth="yes"/>
      <point x="640" y="157" type="line" smooth="yes"/>
      <point x="680" y="157"/>
      <point x="726" y="210"/>
      <point x="726" y="256" type="qcurve" smooth="yes"/>
      <point x="726" y="814" type="line"/>
      <point x="622" y="867"/>
    </contour>
  </outline>
</glyph>
<glyph name="e" format="2">
  <advance width="1024"/>
  <unicode hex="0065"/>
  <outline>
    <contour>
      <point x="561" y="-8" type="qcurve" smooth="yes"/>
      <point x="353" y="-8"/>
      <point x="112" y="271"/>
      <point x="112" y="512" type="qcurve" smooth="yes"/>
      <point x="112" y="755"/>
      <point x="330" y="1040"/>
      <point x="694" y="1040"/>
      <point x="912" y="835"/>
      <point x="912" y="660" type="qcurve" smooth="yes"/>
      <point x="912" y="591" type="line" smooth="yes"/>
      <point x="912" y="502"/>
      <point x="838" y="433"/>
      <point x="742" y="433" type="qcurve" smooth="yes"/>
      <point x="290" y="433" type="line"/>
      <point x="290" y="427"/>
      <point x="291" y="407"/>
      <point x="302" y="350"/>
      <point x="320" y="298"/>
      <point x="361" y="234"/>
      <point x="416" y="188"/>
      <point x="506" y="157"/>
      <point x="561" y="157" type="qcurve" smooth="yes"/>
      <point x="832" y="157" type="line"/>
      <point x="832" y="8" type="line"/>
      <point x="728" y="-8"/>
    </contour>
    <contour>
      <point x="742" y="591" type="line"/>
      <point x="742" y="660" type="line" smooth="yes"/>
      <point x="742" y="763"/>
      <point x="619" y="883"/>
      <point x="512" y="883" type="qcurve" smooth="yes"/>
      <point x="467" y="883"/>
      <point x="393" y="851"/>
      <point x="348" y="799"/>
      <point x="315" y="737"/>
      <point x="300" y="675"/>
      <point x="291" y="623"/>
      <point x="290.5" y="607" type="qcurve" smooth="yes"/>
      <point x="290" y="591" type="line"/>
    </contour>
  </outline>
</glyph>
<glyph name="f" format="2">
  <advance width="1024"/>
  <unicode hex="0066"/>
  <outline>
    <contour>
      <point x="928" y="1272" type="line"/>
      <point x="928" y="1123" type="line"/>
      <point x="720" y="1123" type="line" smooth="yes"/>
      <point x="596" y="1123"/>
      <point x="512" y="1044"/>
      <point x="512" y="925" type="qcurve"/>
      <point x="928" y="925" type="line"/>
      <point x="928" y="768" type="line"/>
      <point x="512" y="768" type="line"/>
      <point x="512" y="0" type="line"/>
      <point x="342" y="0" type="line"/>
      <point x="342" y="768" type="line"/>
      <point x="96" y="768" type="line"/>
      <point x="96" y="925" type="line"/>
      <point x="342" y="925" type="line"/>
      <point x="342" y="1031"/>
      <point x="375" y="1163"/>
      <point x="461" y="1252"/>
      <point x="605" y="1288"/>
      <point x="720" y="1288" type="qcurve" smooth="yes"/>
      <point x="777" y="1288"/>
      <point x="881" y="1280"/>
      <point x="904.5" y="1276" type="qcurve" smooth="yes"/>
    </contour>
  </outline>
</glyph>
<glyph name="g" format="2">
  <advance width="1024"/>
  <unicode hex="0067"/>
  <outline>
    <contour>
      <point x="556" y="1024" type="qcurve" smooth="yes"/>
      <point x="640" y="1024" type="line" smooth="yes"/>
      <point x="784" y="1024"/>
      <point x="896" y="912"/>
      <point x="896" y="768" type="qcurve" smooth="yes"/>
      <point x="896" y="120" type="line" smooth="yes"/>
      <point x="896" y="-83"/>
      <point x="650" y="-264"/>
      <point x="416" y="-264" type="qcurve" smooth="yes"/>
      <point x="363" y="-264"/>
      <point x="267" y="-256"/>
      <point x="245.5" y="-252" type="qcurve" smooth="yes"/>
      <point x="224" y="-248" type="line"/>
      <point x="224" y="-99" type="line"/>
      <point x="416" y="-99" type="line" smooth="yes"/>
      <point x="568" y="-99"/>
      <point x="726" y="2"/>
      <point x="726" y="120" type="qcurve" smooth="yes"/>
      <point x="726" y="256" type="line"/>
      <point x="512" y="256" type="line" smooth="yes"/>
      <point x="327" y="256"/>
      <point x="112" y="459"/>
      <point x="112" y="634" type="qcurve" smooth="yes"/>
      <point x="112" y="815"/>
      <point x="350" y="1024"/>
    </contour>
    <contour>
      <point x="556" y="867" type="line" smooth="yes"/>
      <point x="429" y="867"/>
      <point x="282" y="742"/>
      <point x="282" y="634" type="qcurve" smooth="yes"/>
      <point x="282" y="531"/>
      <point x="405" y="413"/>
      <point x="512" y="413" type="qcurve" smooth="yes"/>
      <point x="726" y="413" type="line"/>
      <point x="726" y="768" type="line" smooth="yes"/>
      <point x="726" y="814"/>
      <point x="680" y="867"/>
      <point x="640" y="867" type="qcurve" smooth="yes"/>
    </contour>
  </outline>
</glyph>
<glyph name="h" format="2">
  <advance width="1024"/>
  <unicode hex="0068"/>
  <outline>
    <contour>
      <point x="128" y="1280" type="line"/>
      <point x="298" y="1280" type="line"/>
      <point x="298" y="979" type="line"/>
      <point x="403" y="1024"/>
      <point x="512" y="1024" type="qcurve" smooth="yes"/>
      <point x="700" y="1024"/>
      <point x="896" y="855"/>
      <point x="896" y="658" type="qcurve" smooth="yes"/>
      <point x="896" y="0" type="line"/>
      <point x="726" y="0" type="line"/>
      <point x="726" y="658" type="line" smooth="yes"/>
      <point x="723" y="771"/>
      <point x="616" y="867"/>
      <point x="512" y="867" type="qcurve" smooth="yes"/>
      <point x="402" y="867"/>
      <point x="298" y="814" type="qcurve"/>
      <point x="298" y="0" type="line"/>
      <point x="128" y="0" type="line"/>
    </contour>
  </outline>
</glyph>
<glyph name="i" format="2">
  <advance width="1024"/>
  <unicode hex="0069"/>
  <outline>
    <contour>
      <point x="326" y="1374" type="line"/>
      <point x="627" y="1374" type="line"/>
      <point x="627" y="1188" type="line"/>
      <point x="326" y="1188" type="line"/>
    </contour>
    <contour>
      <point x="160" y="925" type="line"/>
      <point x="597" y="925" type="line"/>
      <point x="597" y="157" type="line"/>
      <point x="896" y="157" type="line"/>
      <point x="896" y="0" type="line"/>
      <point x="128" y="0" type="line"/>
      <point x="128" y="157" type="line"/>
      <point x="427" y="157" type="line"/>
      <point x="427" y="768" type="line"/>
      <point x="160" y="768" type="line"/>
    </contour>
  </outline>
</glyph>
<glyph name="j" format="2">
  <advance width="1024"/>
  <unicode hex="006A"/>
  <outline>
    <contour>
      <point x="529" y="1374" type="line"/>
      <point x="830" y="1374" type="line"/>
      <point x="830" y="1188" type="line"/>
      <point x="529" y="1188" type="line"/>
    </contour>
    <contour>
      <point x="192" y="925" type="line"/>
      <point x="800" y="925" type="line"/>
      <point x="800" y="120" type="line" smooth="yes"/>
      <point x="800" y="-87"/>
      <point x="555" y="-264"/>
      <point x="320" y="-264" type="qcurve" smooth="yes"/>
      <point x="267" y="-264"/>
      <point x="171" y="-256"/>
      <point x="149.5" y="-252" type="qcurve" smooth="yes"/>
      <point x="128" y="-248" type="line"/>
      <point x="128" y="-99" type="line"/>
      <point x="320" y="-99" type="line" smooth="yes"/>
      <point x="472" y="-99"/>
      <point x="630" y="2"/>
      <point x="630" y="120" type="qcurve" smooth="yes"/>
      <point x="630" y="768" type="line"/>
      <point x="192" y="768" type="line"/>
    </contour>
  </outline>
</glyph>
<glyph name="k" format="2">
  <advance width="1024"/>
  <unicode hex="006B"/>
  <outline>
    <contour>
      <point x="128" y="1280" type="line"/>
      <point x="298" y="1280" type="line"/>
      <point x="298" y="656" type="line"/>
      <point x="672" y="1024" type="line"/>
      <point x="896" y="1024" type="line"/>
      <point x="492" y="627" type="line"/>
      <point x="960" y="0" type="line"/>
      <point x="764" y="0" type="line"/>
      <point x="298" y="624" type="line"/>
      <point x="298" y="0" type="line"/>
      <point x="128" y="0" type="line"/>
    </contour>
  </outline>
</glyph>
<glyph name="l" format="2">
  <advance width="1024"/>
  <unicode hex="006C"/>
  <outline>
    <contour>
      <point x="160" y="1280" type="line"/>
      <point x="597" y="1280" type="line"/>
      <point x="597" y="157" type="line"/>
      <point x="896" y="157" type="line"/>
      <point x="896" y="0" type="line"/>
      <point x="128" y="0" type="line"/>
      <point x="128" y="157" type="line"/>
      <point x="427" y="157" type="line"/>
      <point x="427" y="1123" type="line"/>
      <point x="160" y="1123" type="line"/>
    </contour>
  </outline>
</glyph>
<glyph name="m" format="2">
  <advance width="1024"/>
  <unicode hex="006D"/>
  <outline>
    <contour>
      <point x="327" y="1032" type="qcurve" smooth="yes"/>
      <point x="368" y="1032"/>
      <point x="437" y="1018"/>
      <point x="479" y="997"/>
      <point x="508" y="977"/>
      <point x="514" y="970" type="qcurve" smooth="yes"/>
      <point x="520" y="963" type="line"/>
      <point x="523" y="966"/>
      <point x="533" y="975"/>
      <point x="568" y="999"/>
      <point x="607" y="1017"/>
      <point x="666" y="1032"/>
      <point x="697" y="1032" type="qcurve" smooth="yes"/>
      <point x="820" y="1032"/>
      <point x="960" y="893"/>
      <point x="960" y="768" type="qcurve" smooth="yes"/>
      <point x="960" y="0" type="line"/>
      <point x="803" y="0" type="line"/>
      <point x="803" y="768" type="line" smooth="yes"/>
      <point x="803" y="827"/>
      <point x="746" y="894"/>
      <point x="697" y="894" type="qcurve" smooth="yes"/>
      <point x="668" y="894"/>
      <point x="615" y="870"/>
      <point x="603" y="858" type="qcurve" smooth="yes"/>
      <point x="591" y="846" type="line"/>
      <point x="591" y="0" type="line"/>
      <point x="433" y="0" type="line"/>
      <point x="433" y="768" type="line" smooth="yes"/>
      <point x="433" y="826"/>
      <point x="377" y="894"/>
      <point x="327" y="894" type="qcurve" smooth="yes"/>
      <point x="298" y="894"/>
      <point x="245" y="870"/>
      <point x="233" y="858" type="qcurve" smooth="yes"/>
      <point x="221" y="846" type="line"/>
      <point x="221" y="0" type="line"/>
      <point x="64" y="0" type="line"/>
      <point x="64" y="936" type="line"/>
      <point x="68" y="940"/>
      <point x="83" y="953"/>
      <point x="136" y="986"/>
      <point x="193" y="1011"/>
      <point x="281" y="1032"/>
    </contour>
  </outline>
</glyph>
<glyph name="o" format="2">
  <advance width="1024"/>
  <unicode hex="006F"/>
  <outline>
    <contour>
      <point x="80" y="658"/>
      <point x="139" y="864"/>
      <point x="254" y="985"/>
      <point x="408" y="1040"/>
      <point x="616" y="1040"/>
      <point x="770" y="985"/>
      <point x="885" y="864"/>
      <point x="944" y="658"/>
      <point x="944" y="366"/>
      <point x="885" y="160"/>
      <point x="770" y="39"/>
      <point x="616" y="-16"/>
      <point x="408" y="-16"/>
      <point x="254" y="39"/>
      <point x="139" y="160"/>
      <point x="80" y="366"/>
    </contour>
    <contour>
      <point x="384" y="883"/>
      <point x="250" y="712"/>
      <point x="250" y="312"/>
      <point x="384" y="141"/>
      <point x="640" y="141"/>
      <point x="774" y="312"/>
      <point x="774" y="712"/>
      <point x="640" y="883"/>
    </contour>
  </outline>
</glyph>
<glyph name="p" format="2">
  <advance width="1024"/>
  <unicode hex="0070"/>
  <outline>
    <contour>
      <point x="384" y="1024" type="qcurve" smooth="yes"/>
      <point x="512" y="1024" type="line" smooth="yes"/>
      <point x="697" y="1024"/>
      <point x="912" y="821"/>
      <point x="912" y="646" type="qcurve" smooth="yes"/>
      <point x="912" y="465"/>
      <point x="674" y="256"/>
      <point x="468" y="256" type="qcurve" smooth="yes"/>
      <point x="298" y="256" type="line"/>
      <point x="298" y="-256" type="line"/>
      <point x="128" y="-256" type="line"/>
      <point x="128" y="768" type="line" smooth="yes"/>
      <point x="128" y="912"/>
      <point x="240" y="1024"/>
    </contour>
    <contour>
      <point x="384" y="867" type="line" smooth="yes"/>
      <point x="344" y="867"/>
      <point x="298" y="814"/>
      <point x="298" y="768" type="qcurve" smooth="yes"/>
      <point x="298" y="413" type="line"/>
      <point x="468" y="413" type="line" smooth="yes"/>
      <point x="595" y="413"/>
      <point x="742" y="538"/>
      <point x="742" y="646" type="qcurve" smooth="yes"/>
      <point x="742" y="749"/>
      <point x="619" y="867"/>
      <point x="512" y="867" type="qcurve" smooth="yes"/>
    </contour>
  </outline>
</glyph>
<glyph name="q" format="2">
  <advance width="1024"/>
  <unicode hex="0071"/>
  <outline>
    <contour>
      <point x="556" y="1024" type="qcurve" smooth="yes"/>
      <point x="640" y="1024" type="line" smooth="yes"/>
      <point x="784" y="1024"/>
      <point x="896" y="912"/>
      <point x="896" y="768" type="qcurve" smooth="yes"/>
      <point x="896" y="-256" type="line"/>
      <point x="726" y="-256" type="line"/>
      <point x="726" y="256" type="line"/>
      <point x="512" y="256" type="line" smooth="yes"/>
      <point x="327" y="256"/>
      <point x="112" y="459"/>
      <point x="112" y="634" type="qcurve" smooth="yes"/>
      <point x="112" y="815"/>
      <point x="350" y="1024"/>
    </contour>
    <contour>
      <point x="556" y="867" type="line" smooth="yes"/>
      <point x="429" y="867"/>
      <point x="282" y="742"/>
      <point x="282" y="634" type="qcurve" smooth="yes"/>
      <point x="282" y="531"/>
      <point x="405" y="413"/>
      <point x="512" y="413" type="qcurve" smooth="yes"/>
      <point x="726" y="413" type="line"/>
      <point x="726" y="768" type="line" smooth="yes"/>
      <point x="726" y="814"/>
      <point x="680" y="867"/>
      <point x="640" y="867" type="qcurve" smooth="yes"/>
    </contour>
  </outline>
</glyph>
<glyph name="r" format="2">
  <advance width="1024"/>
  <unicode hex="0072"/>
  <outline>
    <contour>
      <point x="928" y="658" type="qcurve"/>
      <point x="758" y="658" type="line"/>
      <point x="758" y="779"/>
      <point x="649" y="883"/>
      <point x="544" y="883" type="qcurve" smooth="yes"/>
      <point x="485" y="883"/>
      <point x="378" y="861"/>
      <point x="354" y="850" type="qcurve" smooth="yes"/>
      <point x="330" y="839" type="line"/>
      <point x="330" y="0" type="line"/>
      <point x="160" y="0" type="line"/>
      <point x="160" y="936" type="line"/>
      <point x="166" y="940"/>
      <point x="189" y="954"/>
      <point x="265" y="990"/>
      <point x="348" y="1018"/>
      <point x="478" y="1040"/>
      <point x="544" y="1040" type="qcurve" smooth="yes"/>
      <point x="732" y="1040"/>
      <point x="928" y="864"/>
    </contour>
  </outline>
</glyph>
<glyph name="s" format="2">
  <advance width="1024"/>
  <unicode hex="0073"/>
  <outline>
    <contour>
      <point x="634" y="1032" type="qcurve" smooth="yes"/>
      <point x="688" y="1032"/>
      <point x="787" y="1024"/>
      <point x="809.5" y="1020" type="qcurve" smooth="yes"/>
      <point x="832" y="1016" type="line"/>
      <point x="832" y="867" type="line"/>
      <point x="634" y="867" type="line" smooth="yes"/>
      <point x="477" y="867"/>
      <point x="314" y="804"/>
      <point x="314" y="731" type="qcurve" smooth="yes"/>
      <point x="314" y="687"/>
      <point x="376" y="626"/>
      <point x="476" y="591"/>
      <point x="597" y="561"/>
      <point x="718" y="522"/>
      <point x="818" y="465"/>
      <point x="880" y="363"/>
      <point x="880" y="292" type="qcurve" smooth="yes"/>
      <point x="880" y="130"/>
      <point x="620" y="-8"/>
      <point x="370" y="-8" type="qcurve" smooth="yes"/>
      <point x="312" y="-8"/>
      <point x="207" y="-0"/>
      <point x="183.5" y="4" type="qcurve" smooth="yes"/>
      <point x="160" y="8" type="line"/>
      <point x="160" y="157" type="line"/>
      <point x="370" y="157" type="line" smooth="yes"/>
      <point x="537" y="157"/>
      <point x="710" y="219"/>
      <point x="710" y="292" type="qcurve" smooth="yes"/>
      <point x="710" y="331"/>
      <point x="661" y="389"/>
      <point x="582" y="421"/>
      <point x="480" y="452"/>
      <point x="374" y="476"/>
      <point x="272" y="519"/>
      <point x="193" y="574"/>
      <point x="144" y="669"/>
      <point x="144" y="731" type="qcurve" smooth="yes"/>
      <point x="144" y="893"/>
      <point x="394" y="1032"/>
    </contour>
  </outline>
</glyph>
<glyph name="t" format="2">
  <advance width="1024"/>
  <unicode hex="0074"/>
  <outline>
    <contour>
      <point x="864" y="8" type="line"/>
      <point x="803" y="-8"/>
      <point x="704" y="-8" type="qcurve" smooth="yes"/>
      <point x="526" y="-8"/>
      <point x="342" y="140"/>
      <point x="342" y="314" type="qcurve" smooth="yes"/>
      <point x="342" y="768" type="line"/>
      <point x="64" y="768" type="line"/>
      <point x="64" y="925" type="line"/>
      <point x="342" y="925" type="line"/>
      <point x="342" y="1280" type="line"/>
      <point x="512" y="1280" type="line"/>
      <point x="512" y="925" type="line"/>
      <point x="928" y="925" type="line"/>
      <point x="928" y="768" type="line"/>
      <point x="512" y="768" type="line"/>
      <point x="512" y="314" type="line" smooth="yes"/>
      <point x="512" y="229"/>
      <point x="610" y="157"/>
      <point x="704" y="157" type="qcurve" smooth="yes"/>
      <point x="864" y="157" type="line"/>
    </contour>
  </outline>
</glyph>
<glyph name="v" format="2">
  <advance width="1024"/>
  <unicode hex="0076"/>
  <outline>
    <contour>
      <point x="64" y="1024" type="line"/>
      <point x="243" y="1024" type="line"/>
      <point x="469" y="354" type="line"/>
      <point x="512" y="177" type="line"/>
      <point x="555" y="354" type="line"/>
      <point x="781" y="1024" type="line"/>
      <point x="960" y="1024" type="line"/>
      <point x="614" y="0" type="line"/>
      <point x="410" y="0" type="line"/>
    </contour>
  </outline>
</glyph>
<glyph name="w" format="2">
  <advance width="1024"/>
  <unicode hex="0077"/>
  <outline>
    <contour>
      <point x="32" y="1024" type="line"/>
      <point x="190" y="1024" type="line"/>
      <point x="270" y="354" type="line"/>
      <point x="286" y="177" type="line"/>
      <point x="328" y="354" type="line"/>
      <point x="461" y="768" type="line"/>
      <point x="563" y="768" type="line"/>
      <point x="696" y="354" type="line"/>
      <point x="738" y="177" type="line"/>
      <point x="754" y="354" type="line"/>
      <point x="834" y="1024" type="line"/>
      <point x="992" y="1024" type="line"/>
      <point x="870" y="0" type="line"/>
      <point x="666" y="0" type="line"/>
      <point x="512" y="536" type="line"/>
      <point x="358" y="0" type="line"/>
      <point x="154" y="0" type="line"/>
    </contour>
  </outline>
</glyph>
<glyph name="x" format="2">
  <advance width="1024"/>
  <unicode hex="0078"/>
  <outline>
    <contour>
      <point x="64" y="1024" type="line"/>
      <point x="269" y="1024" type="line"/>
      <point x="512" y="640" type="line"/>
      <point x="755" y="1024" type="line"/>
      <point x="960" y="1024" type="line"/>
      <point x="615" y="512" type="line"/>
      <point x="960" y="0" type="line"/>
      <point x="755" y="0" type="line"/>
      <point x="512" y="384" type="line"/>
      <point x="269" y="0" type="line"/>
      <point x="64" y="0" type="line"/>
      <point x="409" y="512" type="line"/>
    </contour>
  </outline>
</glyph>
<glyph name="y" format="2">
  <advance width="1024"/>
  <unicode hex="0079"/>
  <outline>
    <contour>
      <point x="128" y="1024" type="line"/>
      <point x="298" y="1024" type="line"/>
      <point x="298" y="566" type="line" smooth="yes"/>
      <point x="298" y="495"/>
      <point x="413" y="413"/>
      <point x="512" y="413" type="qcurve" smooth="yes"/>
      <point x="726" y="413" type="line"/>
      <point x="726" y="1024" type="line"/>
      <point x="896" y="1024" type="line"/>
      <point x="896" y="120" type="line" smooth="yes"/>
      <point x="896" y="-87"/>
      <point x="651" y="-264"/>
      <point x="416" y="-264" type="qcurve" smooth="yes"/>
      <point x="363" y="-264"/>
      <point x="267" y="-256"/>
      <point x="245.5" y="-252" type="qcurve" smooth="yes"/>
      <point x="224" y="-248" type="line"/>
      <point x="224" y="-99" type="line"/>
      <point x="416" y="-99" type="line" smooth="yes"/>
      <point x="568" y="-99"/>
      <point x="726" y="2"/>
      <point x="726" y="120" type="qcurve" smooth="yes"/>
      <point x="726" y="256" type="line"/>
      <point x="512" y="256" type="line" smooth="yes"/>
      <point x="334" y="256"/>
      <point x="128" y="422"/>
      <point x="128" y="566" type="qcurve" smooth="yes"/>
    </contour>
  </outline>
</glyph>
<glyph name="z" format="2">
  <advance width="1024"/>
  <unicode hex="007A"/>
  <outline>
    <contour>
      <point x="160" y="1024" type="line"/>
      <point x="864" y="1024" type="line"/>
      <point x="864" y="867" type="line"/>
      <point x="325" y="157" type="line"/>
      <point x="896" y="157" type="line"/>
      <point x="896" y="0" type="line"/>
      <point x="128" y="0" type="line"/>
      <point x="128" y="157" type="line"/>
      <point x="667" y="867" type="line"/>
      <point x="160" y="867" type="line"/>
    </contour>
  </outline>
</glyph>
<glyph name="braceleft" format="2">
  <advance width="1024"/>
  <unicode hex="007B"/>
  <outline>
    <contour>
      <point x="822" y="1280" type="line"/>
      <point x="704" y="1280" type="line" smooth="yes"/>
      <point x="615" y="1280"/>
      <point x="512" y="1177"/>
      <point x="512" y="1088" type="qcurve" smooth="yes"/>
      <point x="528" y="669" type="line"/>
      <point x="382" y="653" type="line"/>
      <point x="382" y="528" type="line"/>
      <point x="528" y="512" type="line"/>
      <point x="512" y="93" type="line" smooth="yes"/>
      <point x="509" y="5"/>
      <point x="614" y="-99"/>
      <point x="704" y="-99" type="qcurve" smooth="yes"/>
      <point x="822" y="-99" type="line"/>
      <point x="822" y="-256" type="line"/>
      <point x="704" y="-256" type="line" smooth="yes"/>
      <point x="536" y="-256"/>
      <point x="342" y="-69"/>
      <point x="342" y="93" type="qcurve"/>
      <point x="382" y="512" type="line"/>
      <point x="64" y="512" type="line"/>
      <point x="64" y="669" type="line"/>
      <point x="382" y="669" type="line"/>
      <point x="342" y="1088" type="line" smooth="yes"/>
      <point x="327" y="1246"/>
      <point x="532" y="1437"/>
      <point x="704" y="1437" type="qcurve" smooth="yes"/>
      <point x="822" y="1437" type="line"/>
    </contour>
  </outline>
</glyph>
<glyph name="bar" format="2">
  <advance width="1024"/>
  <unicode hex="007C"/>
  <outline>
    <contour>
      <point x="597" y="-256" type="line"/>
      <point x="427" y="-256" type="line"/>
      <point x="427" y="1437" type="line"/>
      <point x="597" y="1437" type="line"/>
    </contour>
  </outline>
</glyph>
<glyph name="braceright" format="2">
  <advance width="1024"/>
  <unicode hex="007D"/>
  <outline>
    <contour>
      <point x="202" y="1280" type="line"/>
      <point x="202" y="1437" type="line"/>
      <point x="320" y="1437" type="line" smooth="yes"/>
      <point x="492" y="1437"/>
      <point x="697" y="1246"/>
      <point x="682" y="1088" type="qcurve" smooth="yes"/>
      <point x="642" y="669" type="line"/>
      <point x="960" y="669" type="line"/>
      <point x="960" y="512" type="line"/>
      <point x="642" y="512" type="line"/>
      <point x="682" y="93" type="line"/>
      <point x="682" y="-69"/>
      <point x="488" y="-256"/>
      <point x="320" y="-256" type="qcurve" smooth="yes"/>
      <point x="202" y="-256" type="line"/>
      <point x="202" y="-99" type="line"/>
      <point x="320" y="-99" type="line" smooth="yes"/>
      <point x="410" y="-99"/>
      <point x="515" y="5"/>
      <point x="512" y="93" type="qcurve" smooth="yes"/>
      <point x="496" y="512" type="line"/>
      <point x="642" y="528" type="line"/>
      <point x="642" y="653" type="line"/>
      <point x="496" y="669" type="line"/>
      <point x="512" y="1088" type="line" smooth="yes"/>
      <point x="512" y="1177"/>
      <point x="409" y="1280"/>
      <point x="320" y="1280" type="qcurve" smooth="yes"/>
    </contour>
  </outline>
</glyph>
<glyph name="asciitilde" format="2">
  <advance width="1024"/>
  <unicode hex="007E"/>
  <outline>
    <contour>
      <point x="64" y="379" type="line"/>
      <point x="64" y="584"/>
      <point x="114" y="814"/>
      <point x="225" y="917"/>
      <point x="325" y="917" type="qcurve" smooth="yes"/>
      <point x="389" y="917"/>
      <point x="483" y="881"/>
      <point x="533" y="823"/>
      <point x="568" y="748"/>
      <point x="581" y="669"/>
      <point x="597" y="594"/>
      <point x="614" y="536"/>
      <point x="653" y="500"/>
      <point x="683" y="500" type="qcurve" smooth="yes"/>
      <point x="757" y="500"/>
      <point x="814" y="675"/>
      <point x="814" y="901" type="qcurve"/>
      <point x="960" y="901" type="line"/>
      <point x="960" y="696"/>
      <point x="910" y="466"/>
      <point x="799" y="364"/>
      <point x="699" y="364" type="qcurve" smooth="yes"/>
      <point x="635" y="364"/>
      <point x="541" y="400"/>
      <point x="491" y="458"/>
      <point x="456" y="533"/>
      <point x="443" y="612"/>
      <point x="427" y="687"/>
      <point x="410" y="745"/>
      <point x="371" y="781"/>
      <point x="341" y="781" type="qcurve" smooth="yes"/>
      <point x="267" y="781"/>
      <point x="210" y="605"/>
      <point x="210" y="379" type="qcurve"/>
    </contour>
  </outline>
</glyph>
<glyph name="cent" format="2">
  <advance width="1024"/>
  <unicode hex="00A2"/>
  <outline>
    <contour>
      <point x="512" y="1280" type="line"/>
      <point x="682" y="1280" type="line"/>
      <point x="682" y="1031" type="line"/>
      <point x="732" y="1031"/>
      <point x="823" y="1024"/>
      <point x="843.5" y="1020" type="qcurve" smooth="yes"/>
      <point x="864" y="1016" type="line"/>
      <point x="864" y="867" type="line"/>
      <point x="661" y="867" type="line"/>
      <point x="661" y="413" type="line"/>
      <point x="864" y="413" type="line"/>
      <point x="864" y="264" type="line"/>
      <point x="794" y="248"/>
      <point x="682" y="248" type="qcurve"/>
      <point x="682" y="0" type="line"/>
      <point x="512" y="0" type="line"/>
      <point x="512" y="254" type="line"/>
      <point x="320" y="275"/>
      <point x="112" y="459"/>
      <point x="112" y="640" type="qcurve" smooth="yes"/>
      <point x="112" y="793"/>
      <point x="327" y="996"/>
      <point x="512" y="1023" type="qcurve"/>
    </contour>
    <contour>
      <point x="533" y="859" type="line"/>
      <point x="415" y="841"/>
      <point x="282" y="726"/>
      <point x="282" y="640" type="qcurve" smooth="yes"/>
      <point x="282" y="539"/>
      <point x="410" y="433"/>
      <point x="533" y="419" type="qcurve"/>
    </contour>
  </outline>
</glyph>
<glyph name="sterling" format="2">
  <advance width="1024"/>
  <unicode hex="00A3"/>
  <outline>
    <contour>
      <point x="618" y="1288" type="qcurve" smooth="yes"/>
      <point x="672" y="1288"/>
      <point x="775" y="1257"/>
      <point x="846" y="1212"/>
      <point x="901" y="1167"/>
      <point x="914.5" y="1151.5" type="qcurve" smooth="yes"/>
      <point x="928" y="1136" type="line"/>
      <point x="832" y="1024" type="line"/>
      <point x="829" y="1028"/>
      <point x="816" y="1043"/>
      <point x="773" y="1080"/>
      <point x="727" y="1108"/>
      <point x="655" y="1131"/>
      <point x="618" y="1131" type="qcurve" smooth="yes"/>
      <point x="519" y="1131"/>
      <point x="404" y="1016"/>
      <point x="404" y="917" type="qcurve" smooth="yes"/>
      <point x="404" y="719" type="line"/>
      <point x="832" y="719" type="line"/>
      <point x="832" y="561" type="line"/>
      <point x="404" y="561" type="line"/>
      <point x="404" y="157" type="line"/>
      <point x="928" y="157" type="line"/>
      <point x="928" y="0" type="line"/>
      <point x="64" y="0" type="line"/>
      <point x="64" y="157" type="line"/>
      <point x="234" y="157" type="line"/>
      <point x="234" y="561" type="line"/>
      <point x="64" y="561" type="line"/>
      <point x="64" y="719" type="line"/>
      <point x="234" y="719" type="line"/>
      <point x="234" y="917" type="line" smooth="yes"/>
      <point x="234" y="1089"/>
      <point x="440" y="1288"/>
    </contour>
  </outline>
</glyph>
<glyph name="yen" format="2">
  <advance width="1024"/>
  <unicode hex="00A5"/>
  <outline>
    <contour>
      <point x="32" y="1280" type="line"/>
      <point x="223" y="1280" type="line"/>
      <point x="512" y="700" type="line"/>
      <point x="801" y="1280" type="line"/>
      <point x="992" y="1280" type="line"/>
      <point x="678" y="669" type="line"/>
      <point x="960" y="669" type="line"/>
      <point x="960" y="512" type="line"/>
      <point x="597" y="512" type="line"/>
      <point x="597" y="355" type="line"/>
      <point x="960" y="355" type="line"/>
      <point x="960" y="198" type="line"/>
      <point x="597" y="198" type="line"/>
      <point x="597" y="0" type="line"/>
      <point x="427" y="0" type="line"/>
      <point x="427" y="198" type="line"/>
      <point x="64" y="198" type="line"/>
      <point x="64" y="355" type="line"/>
      <point x="427" y="355" type="line"/>
      <point x="427" y="512" type="line"/>
      <point x="64" y="512" type="line"/>
      <point x="64" y="669" type="line"/>
      <point x="346" y="669" type="line"/>
    </contour>
  </outline>
</glyph>
<glyph name="brokenbar" format="2">
  <advance width="1024"/>
  <unicode hex="00A6"/>
  <outline>
    <contour>
      <point x="427" y="1437" type="line"/>
      <point x="597" y="1437" type="line"/>
      <point x="597" y="733" type="line"/>
      <point x="427" y="733" type="line"/>
    </contour>
    <contour>
      <point x="427" y="448" type="line"/>
      <point x="597" y="448" type="line"/>
      <point x="597" y="-256" type="line"/>
      <point x="427" y="-256" type="line"/>
    </contour>
  </outline>
</glyph>
<glyph name="section" format="2">
  <advance width="1024"/>
  <unicode hex="00A7"/>
  <outline>
    <contour>
      <point x="661" y="1288" type="qcurve" smooth="yes"/>
      <point x="717" y="1288"/>
      <point x="818" y="1280"/>
      <point x="841" y="1276" type="qcurve" smooth="yes"/>
      <point x="864" y="1272" type="line"/>
      <point x="864" y="1142" type="line"/>
      <point x="661" y="1142" type="line" smooth="yes"/>
      <point x="500" y="1142"/>
      <point x="333" y="1058"/>
      <point x="333" y="960" type="qcurve" smooth="yes"/>
      <point x="333" y="922"/>
      <point x="397" y="869"/>
      <point x="499" y="837"/>
      <point x="622" y="806"/>
      <point x="746" y="758"/>
      <point x="848" y="688"/>
      <point x="912" y="562"/>
      <point x="912" y="477" type="qcurve" smooth="yes"/>
      <point x="912" y="306"/>
      <point x="803" y="208" type="qcurve"/>
      <point x="808" y="202"/>
      <point x="823" y="179"/>
      <point x="848" y="104"/>
      <point x="848" y="64" type="qcurve" smooth="yes"/>
      <point x="848" y="-27"/>
      <point x="782" y="-155"/>
      <point x="653" y="-230"/>
      <point x="479" y="-264"/>
      <point x="363" y="-264" type="qcurve" smooth="yes"/>
      <point x="307" y="-264"/>
      <point x="206" y="-256"/>
      <point x="183" y="-252" type="qcurve" smooth="yes"/>
      <point x="160" y="-248" type="line"/>
      <point x="160" y="-118" type="line"/>
      <point x="363" y="-118" type="line" smooth="yes"/>
      <point x="524" y="-118"/>
      <point x="691" y="-34"/>
      <point x="691" y="64" type="qcurve" smooth="yes"/>
      <point x="691" y="102"/>
      <point x="627" y="155"/>
      <point x="525" y="187"/>
      <point x="402" y="218"/>
      <point x="278" y="266"/>
      <point x="176" y="336"/>
      <point x="112" y="462"/>
      <point x="112" y="547" type="qcurve" smooth="yes"/>
      <point x="112" y="718"/>
      <point x="221" y="816" type="qcurve"/>
      <point x="216" y="822"/>
      <point x="201" y="845"/>
      <point x="176" y="920"/>
      <point x="176" y="960" type="qcurve" smooth="yes"/>
      <point x="176" y="1051"/>
      <point x="242" y="1179"/>
      <point x="371" y="1254"/>
      <point x="545" y="1288"/>
    </contour>
    <contour>
      <point x="356" y="726" type="qcurve"/>
      <point x="269" y="667"/>
      <point x="269" y="547" type="qcurve" smooth="yes"/>
      <point x="269" y="503"/>
      <point x="306" y="436"/>
      <point x="362" y="396"/>
      <point x="449" y="361"/>
      <point x="528" y="341"/>
      <point x="633" y="311"/>
      <point x="668" y="298" type="qcurve"/>
      <point x="755" y="357"/>
      <point x="755" y="477" type="qcurve" smooth="yes"/>
      <point x="755" y="521"/>
      <point x="718" y="588"/>
      <point x="662" y="628"/>
      <point x="575" y="663"/>
      <point x="496" y="683"/>
      <point x="391" y="713"/>
    </contour>
  </outline>
</glyph>
<glyph name="copyright" format="2">
  <advance width="1024"/>
  <unicode hex="00A9"/>
  <outline>
    <contour>
      <point x="735" y="1296"/>
      <point x="992" y="983"/>
      <point x="992" y="441"/>
      <point x="735" y="128"/>
      <point x="289" y="128"/>
      <point x="32" y="441"/>
      <point x="32" y="983"/>
      <point x="289" y="1296"/>
    </contour>
    <contour>
      <point x="352" y="1168"/>
      <point x="168" y="924"/>
      <point x="168" y="500"/>
      <point x="352" y="256"/>
      <point x="672" y="256"/>
      <point x="856" y="500"/>
      <point x="856" y="924"/>
      <point x="672" y="1168"/>
    </contour>
    <contour>
      <point x="572" y="976" type="qcurve" smooth="yes"/>
      <point x="608" y="976"/>
      <point x="674" y="960"/>
      <point x="689" y="952" type="qcurve" smooth="yes"/>
      <point x="704" y="944" type="line"/>
      <point x="704" y="840" type="line"/>
      <point x="572" y="840" type="line" smooth="yes"/>
      <point x="511" y="843"/>
      <point x="440" y="772"/>
      <point x="440" y="712" type="qcurve" smooth="yes"/>
      <point x="440" y="653"/>
      <point x="511" y="584"/>
      <point x="572" y="584" type="qcurve" smooth="yes"/>
      <point x="704" y="584" type="line"/>
      <point x="704" y="480" type="line"/>
      <point x="654" y="448"/>
      <point x="572" y="448" type="qcurve" smooth="yes"/>
      <point x="448" y="448"/>
      <point x="304" y="590"/>
      <point x="304" y="834"/>
      <point x="448" y="976"/>
    </contour>
  </outline>
</glyph>
<glyph name="guillemotleft" format="2">
  <advance width="1024"/>
  <unicode hex="00AB"/>
  <outline>
    <contour>
      <point x="390" y="1102" type="line"/>
      <point x="513" y="1024" type="line"/>
      <point x="269" y="640" type="line"/>
      <point x="513" y="256" type="line"/>
      <point x="390" y="178" type="line"/>
      <point x="96" y="640" type="line"/>
    </contour>
    <contour>
      <point x="805" y="1102" type="line"/>
      <point x="928" y="1024" type="line"/>
      <point x="684" y="640" type="line"/>
      <point x="928" y="256" type="line"/>
      <point x="805" y="178" type="line"/>
      <point x="511" y="640" type="line"/>
    </contour>
  </outline>
</glyph>
<glyph name="degree" format="2">
  <advance width="1024"/>
  <unicode hex="00B0"/>
  <outline>
    <contour>
      <point x="248" y="1134"/>
      <point x="402" y="1288"/>
      <point x="622" y="1288"/>
      <point x="776" y="1134"/>
      <point x="776" y="914"/>
      <point x="622" y="760"/>
      <point x="402" y="760"/>
      <point x="248" y="914"/>
    </contour>
    <contour>
      <point x="459" y="1152"/>
      <point x="384" y="1077"/>
      <point x="384" y="971"/>
      <point x="459" y="896"/>
      <point x="565" y="896"/>
      <point x="640" y="971"/>
      <point x="640" y="1077"/>
      <point x="565" y="1152"/>
    </contour>
  </outline>
</glyph>
<glyph name="paragraph" format="2">
  <advance width="1024"/>
  <unicode hex="00B6"/>
  <outline>
    <contour>
      <point x="384" y="1280" type="qcurve" smooth="yes"/>
      <point x="832" y="1280" type="line"/>
      <point x="832" y="0" type="line"/>
      <point x="704" y="0" type="line"/>
      <point x="704" y="1152" type="line"/>
      <point x="512" y="1152" type="line"/>
      <point x="512" y="0" type="line"/>
      <point x="384" y="0" type="line"/>
      <point x="384" y="640" type="line"/>
      <point x="240" y="640"/>
      <point x="80" y="810"/>
      <point x="80" y="1110"/>
      <point x="238" y="1280"/>
    </contour>
  </outline>
</glyph>
<glyph name="periodcentered" format="2">
  <advance width="1024"/>
  <unicode hex="00B7"/>
  <outline>
    <contour>
      <point x="658" y="580"/>
      <point x="572" y="494"/>
      <point x="452" y="494"/>
      <point x="366" y="580"/>
      <point x="366" y="700"/>
      <point x="452" y="786"/>
      <point x="572" y="786"/>
      <point x="658" y="700"/>
    </contour>
  </outline>
</glyph>
<glyph name="cedilla" format="2">
  <advance width="1024"/>
  <unicode hex="00B8"/>
  <outline>
    <contour>
      <point x="464" y="-384" type="line"/>
      <point x="336" y="-384" type="line"/>
      <point x="432" y="-192" type="line"/>
      <point x="432" y="-64" type="line"/>
      <point x="592" y="-64" type="line"/>
      <point x="592" y="-256" type="line"/>
    </contour>
  </outline>
</glyph>
<glyph name="ordmasculine" format="2">
  <advance width="1024"/>
  <unicode hex="00BA"/>
  <outline>
    <contour>
      <point x="666" y="1288"/>
      <point x="824" y="1111"/>
      <point x="824" y="681"/>
      <point x="666" y="504"/>
      <point x="358" y="504"/>
      <point x="200" y="681"/>
      <point x="200" y="1111"/>
      <point x="358" y="1288"/>
    </contour>
    <contour>
      <point x="430" y="1152"/>
      <point x="346" y="1037"/>
      <point x="346" y="755"/>
      <point x="430" y="640"/>
      <point x="594" y="640"/>
      <point x="678" y="755"/>
      <point x="678" y="1037"/>
      <point x="594" y="1152"/>
    </contour>
    <contour>
      <point x="224" y="392" type="line"/>
      <point x="800" y="392" type="line"/>
      <point x="800" y="256" type="line"/>
      <point x="224" y="256" type="line"/>
    </contour>
  </outline>
</glyph>
<glyph name="onequarter" format="2">
  <advance width="1024"/>
  <unicode hex="00BC"/>
  <outline>
    <contour>
      <point x="208" y="1280" type="line"/>
      <point x="344" y="1280" type="line"/>
      <point x="344" y="640" type="line"/>
      <point x="208" y="640" type="line"/>
      <point x="208" y="1099" type="line"/>
      <point x="123" y="1014" type="line"/>
      <point x="32" y="1104" type="line"/>
    </contour>
    <contour>
      <point x="803" y="1280" type="line"/>
      <point x="960" y="1280" type="line"/>
      <point x="221" y="0" type="line"/>
      <point x="64" y="0" type="line"/>
    </contour>
    <contour>
      <point x="734" y="640" type="line"/>
      <point x="916" y="640" type="line"/>
      <point x="916" y="256" type="line"/>
      <point x="992" y="256" type="line"/>
      <point x="992" y="128" type="line"/>
      <point x="916" y="128" type="line"/>
      <point x="916" y="0" type="line"/>
      <point x="780" y="0" type="line"/>
      <point x="780" y="128" type="line"/>
      <point x="512" y="128" type="line"/>
      <point x="512" y="256" type="line"/>
    </contour>
    <contour>
      <point x="780" y="485" type="line"/>
      <point x="648" y="256" type="line"/>
      <point x="780" y="256" type="line"/>
    </contour>
  </outline>
</glyph>
<glyph name="AE" format="2">
  <advance width="1024"/>
  <unicode hex="00C6"/>
  <outline>
    <contour>
      <point x="393" y="1280" type="line"/>
      <point x="992" y="1280" type="line"/>
      <point x="992" y="1123" type="line"/>
      <point x="682" y="1123" type="line"/>
      <point x="682" y="768" type="line"/>
      <point x="960" y="768" type="line"/>
      <point x="960" y="611" type="line"/>
      <point x="682" y="611" type="line"/>
      <point x="682" y="157" type="line"/>
      <point x="992" y="157" type="line"/>
      <point x="992" y="0" type="line"/>
      <point x="512" y="0" type="line"/>
      <point x="512" y="256" type="line"/>
      <point x="267" y="256" type="line"/>
      <point x="195" y="0" type="line"/>
      <point x="32" y="0" type="line"/>
    </contour>
    <contour>
      <point x="512" y="1123" type="line"/>
      <point x="311" y="413" type="line"/>
      <point x="512" y="413" type="line"/>
    </contour>
  </outline>
</glyph>
<glyph name="multiply" format="2">
  <advance width="1024"/>
  <unicode hex="00D7"/>
  <outline>
    <contour>
      <point x="96" y="945" type="line"/>
      <point x="207" y="1056" type="line"/>
      <point x="512" y="751" type="line"/>
      <point x="817" y="1056" type="line"/>
      <point x="928" y="945" type="line"/>
      <point x="623" y="640" type="line"/>
      <point x="928" y="335" type="line"/>
      <point x="817" y="224" type="line"/>
      <point x="512" y="529" type="line"/>
      <point x="207" y="224" type="line"/>
      <point x="96" y="335" type="line"/>
      <point x="401" y="640" type="line"/>
    </contour>
  </outline>
</glyph>
<glyph name="Oslash" format="2">
  <advance width="1024"/>
  <unicode hex="00D8"/>
  <outline>
    <contour>
      <point x="817" y="1408" type="line"/>
      <point x="960" y="1408" type="line"/>
      <point x="832" y="1147" type="line"/>
      <point x="944" y="987"/>
      <point x="944" y="640" type="qcurve" smooth="yes"/>
      <point x="944" y="459"/>
      <point x="885" y="202"/>
      <point x="770" y="52"/>
      <point x="616" y="-16"/>
      <point x="512" y="-16" type="qcurve" smooth="yes"/>
      <point x="378" y="-16"/>
      <point x="289" y="40" type="qcurve"/>
      <point x="207" y="-128" type="line"/>
      <point x="64" y="-128" type="line"/>
      <point x="192" y="133" type="line"/>
      <point x="80" y="293"/>
      <point x="80" y="640" type="qcurve" smooth="yes"/>
      <point x="80" y="821"/>
      <point x="139" y="1078"/>
      <point x="254" y="1228"/>
      <point x="408" y="1296"/>
      <point x="512" y="1296" type="qcurve" smooth="yes"/>
      <point x="646" y="1296"/>
      <point x="735" y="1240" type="qcurve"/>
    </contour>
    <contour>
      <point x="512" y="1139" type="qcurve" smooth="yes"/>
      <point x="451" y="1139"/>
      <point x="360" y="1087"/>
      <point x="293" y="973"/>
      <point x="258" y="778"/>
      <point x="258" y="640" type="qcurve" smooth="yes"/>
      <point x="258" y="448"/>
      <point x="291" y="336" type="qcurve"/>
      <point x="658" y="1083" type="line"/>
      <point x="602" y="1139"/>
    </contour>
    <contour>
      <point x="733" y="944" type="qcurve"/>
      <point x="366" y="197" type="line"/>
      <point x="422" y="141"/>
      <point x="512" y="141" type="qcurve" smooth="yes"/>
      <point x="573" y="141"/>
      <point x="664" y="193"/>
      <point x="731" y="307"/>
      <point x="766" y="502"/>
      <point x="766" y="640" type="qcurve" smooth="yes"/>
      <point x="766" y="832"/>
    </contour>
  </outline>
</glyph>
<glyph name="Thorn" format="2">
  <advance width="1024"/>
  <unicode hex="00DE"/>
  <outline>
    <contour>
      <point x="128" y="1280" type="line"/>
      <point x="298" y="1280" type="line"/>
      <point x="298" y="1103" type="line"/>
      <point x="480" y="1103" type="line" smooth="yes"/>
      <point x="695" y="1103"/>
      <point x="944" y="855"/>
      <point x="944" y="425"/>
      <point x="695" y="177"/>
      <point x="480" y="177" type="qcurve" smooth="yes"/>
      <point x="298" y="177" type="line"/>
      <point x="298" y="0" type="line"/>
      <point x="128" y="0" type="line"/>
    </contour>
    <contour>
      <point x="298" y="946" type="line"/>
      <point x="298" y="334" type="line"/>
      <point x="480" y="334" type="line" smooth="yes"/>
      <point x="616" y="334"/>
      <point x="774" y="498"/>
      <point x="774" y="782"/>
      <point x="616" y="946"/>
      <point x="480" y="946" type="qcurve" smooth="yes"/>
    </contour>
  </outline>
</glyph>
<glyph name="divide" format="2">
  <advance width="1024"/>
  <unicode hex="00F7"/>
  <outline>
    <contour>
      <point x="384" y="1152" type="line"/>
      <point x="640" y="1152" type="line"/>
      <point x="640" y="896" type="line"/>
      <point x="384" y="896" type="line"/>
    </contour>
    <contour>
      <point x="96" y="719" type="line"/>
      <point x="928" y="719" type="line"/>
      <point x="928" y="562" type="line"/>
      <point x="96" y="562" type="line"/>
    </contour>
    <contour>
      <point x="384" y="384" type="line"/>
      <point x="640" y="384" type="line"/>
      <point x="640" y="128" type="line"/>
      <point x="384" y="128" type="line"/>
    </contour>
  </outline>
</glyph>
<glyph name="dcroat" format="2">
  <advance width="1024"/>
  <unicode hex="0111"/>
  <outline>
    <contour>
      <point x="726" y="1280" type="line"/>
      <point x="896" y="1280" type="line"/>
      <point x="896" y="1103" type="line"/>
      <point x="1024" y="1103" type="line"/>
      <point x="1024" y="945" type="line"/>
      <point x="896" y="945" type="line"/>
      <point x="896" y="256" type="line" smooth="yes"/>
      <point x="896" y="112"/>
      <point x="784" y="0"/>
      <point x="640" y="0" type="qcurve" smooth="yes"/>
      <point x="556" y="0" type="line" smooth="yes"/>
      <point x="350" y="0"/>
      <point x="112" y="203"/>
      <point x="112" y="378" type="qcurve" smooth="yes"/>
      <point x="112" y="559"/>
      <point x="327" y="768"/>
      <point x="512" y="768" type="qcurve" smooth="yes"/>
      <point x="622.245" y="768"/>
      <point x="726" y="740.482" type="qcurve"/>
      <point x="726" y="945" type="line"/>
      <point x="448" y="945" type="line"/>
      <point x="448" y="1103" type="line"/>
      <point x="726" y="1103" type="line"/>
    </contour>
    <contour>
      <point x="512" y="611" type="qcurve" smooth="yes"/>
      <point x="405" y="611"/>
      <point x="282" y="486"/>
      <point x="282" y="378" type="qcurve" smooth="yes"/>
      <point x="282" y="275"/>
      <point x="429" y="157"/>
      <point x="556" y="157" type="qcurve" smooth="yes"/>
      <point x="640" y="157" type="line" smooth="yes"/>
      <point x="680" y="157"/>
      <point x="726" y="210"/>
      <point x="726" y="256" type="qcurve" smooth="yes"/>
      <point x="726" y="579.793" type="line"/>
      <point x="622.241" y="611"/>
    </contour>
  </outline>
</glyph>
<glyph name="Hbar" format="2">
  <advance width="1024"/>
  <unicode hex="0126"/>
  <outline>
    <contour>
      <point x="96" y="1280" type="line"/>
      <point x="266" y="1280" type="line"/>
      <point x="266" y="1103" type="line"/>
      <point x="758" y="1103" type="line"/>
      <point x="758" y="1280" type="line"/>
      <point x="928" y="1280" type="line"/>
      <point x="928" y="1103" type="line"/>
      <point x="1024" y="1103" type="line"/>
      <point x="1024" y="945" type="line"/>
      <point x="928" y="945" type="line"/>
      <point x="928" y="0" type="line"/>
      <point x="758" y="0" type="line"/>
      <point x="758" y="611" type="line"/>
      <point x="266" y="611" type="line"/>
      <point x="266" y="0" type="line"/>
      <point x="96" y="0" type="line"/>
      <point x="96" y="945" type="line"/>
      <point x="0" y="945" type="line"/>
      <point x="0" y="1103" type="line"/>
      <point x="96" y="1103" type="line"/>
    </contour>
    <contour>
      <point x="266" y="945" type="line"/>
      <point x="266" y="768" type="line"/>
      <point x="758" y="768" type="line"/>
      <point x="758" y="945" type="line"/>
    </contour>
  </outline>
</glyph>
<glyph name="ij" format="2">
  <advance width="1024"/>
  <unicode hex="0133"/>
  <outline>
    <contour>
      <point x="128" y="1280" type="line"/>
      <point x="298" y="1280" type="line"/>
      <point x="298" y="1110" type="line"/>
      <point x="128" y="1110" type="line"/>
    </contour>
    <contour>
      <point x="726" y="1280" type="line"/>
      <point x="896" y="1280" type="line"/>
      <point x="896" y="1110" type="line"/>
      <point x="726" y="1110" type="line"/>
    </contour>
    <contour>
      <point x="128" y="925" type="line"/>
      <point x="298" y="925" type="line"/>
      <point x="298" y="0" type="line"/>
      <point x="128" y="0" type="line"/>
    </contour>
    <contour>
      <point x="726" y="925" type="line"/>
      <point x="896" y="925" type="line"/>
      <point x="896" y="120" type="line" smooth="yes"/>
      <point x="896" y="-87"/>
      <point x="708" y="-264"/>
      <point x="528" y="-264" type="qcurve" smooth="yes"/>
      <point x="494" y="-264"/>
      <point x="433" y="-256"/>
      <point x="419" y="-252" type="qcurve" smooth="yes"/>
      <point x="405" y="-248" type="line"/>
      <point x="405" y="-99" type="line"/>
      <point x="528" y="-99" type="line" smooth="yes"/>
      <point x="625" y="-99"/>
      <point x="726" y="2"/>
      <point x="726" y="120" type="qcurve" smooth="yes"/>
    </contour>
  </outline>
</glyph>
<glyph name="lslash" format="2">
  <advance width="1024"/>
  <unicode hex="0142"/>
  <outline>
    <contour>
      <point x="160" y="1280" type="line"/>
      <point x="597" y="1280" type="line"/>
      <point x="597" y="893" type="line"/>
      <point x="832" y="1024" type="line"/>
      <point x="832" y="868" type="line"/>
      <point x="597" y="737" type="line"/>
      <point x="597" y="157" type="line"/>
      <point x="896" y="157" type="line"/>
      <point x="896" y="0" type="line"/>
      <point x="128" y="0" type="line"/>
      <point x="128" y="157" type="line"/>
      <point x="427" y="157" type="line"/>
      <point x="427" y="643" type="line"/>
      <point x="192" y="512" type="line"/>
      <point x="192" y="668" type="line"/>
      <point x="427" y="799" type="line"/>
      <point x="427" y="1123" type="line"/>
      <point x="160" y="1123" type="line"/>
    </contour>
  </outline>
</glyph>
<glyph name="eng" format="2">
  <advance width="1024"/>
  <unicode hex="014B"/>
  <outline>
    <contour>
      <point x="512" y="1040" type="qcurve" smooth="yes"/>
      <point x="700" y="1040"/>
      <point x="896" y="864"/>
      <point x="896" y="658" type="qcurve" smooth="yes"/>
      <point x="896" y="157" type="line" smooth="yes"/>
      <point x="896" y="-70"/>
      <point x="742" y="-264"/>
      <point x="594" y="-264" type="qcurve" smooth="yes"/>
      <point x="571" y="-264"/>
      <point x="530" y="-256"/>
      <point x="521" y="-252" type="qcurve" smooth="yes"/>
      <point x="512" y="-248" type="line"/>
      <point x="512" y="-99" type="line"/>
      <point x="594" y="-99" type="line" smooth="yes"/>
      <point x="659" y="-99"/>
      <point x="726" y="19"/>
      <point x="726" y="157" type="qcurve" smooth="yes"/>
      <point x="726" y="658" type="line" smooth="yes"/>
      <point x="726" y="779"/>
      <point x="617" y="883"/>
      <point x="512" y="883" type="qcurve" smooth="yes"/>
      <point x="453" y="883"/>
      <point x="346" y="861"/>
      <point x="322" y="850" type="qcurve" smooth="yes"/>
      <point x="298" y="839" type="line"/>
      <point x="298" y="0" type="line"/>
      <point x="128" y="0" type="line"/>
      <point x="128" y="936" type="line"/>
      <point x="134" y="940"/>
      <point x="157" y="954"/>
      <point x="233" y="990"/>
      <point x="316" y="1018"/>
      <point x="446" y="1040"/>
    </contour>
  </outline>
</glyph>
<glyph name="OE" format="2">
  <advance width="1024"/>
  <unicode hex="0152"/>
  <outline>
    <contour>
      <point x="408" y="1296" type="qcurve" smooth="yes"/>
      <point x="437" y="1296"/>
      <point x="487" y="1278"/>
      <point x="517" y="1252"/>
      <point x="539" y="1226"/>
      <point x="543" y="1217" type="qcurve" smooth="yes"/>
      <point x="547" y="1208" type="line"/>
      <point x="576" y="1280" type="line"/>
      <point x="992" y="1280" type="line"/>
      <point x="992" y="1123" type="line"/>
      <point x="682" y="1123" type="line"/>
      <point x="682" y="768" type="line"/>
      <point x="960" y="768" type="line"/>
      <point x="960" y="611" type="line"/>
      <point x="682" y="611" type="line"/>
      <point x="682" y="157" type="line"/>
      <point x="992" y="157" type="line"/>
      <point x="992" y="0" type="line"/>
      <point x="576" y="0" type="line"/>
      <point x="547" y="72" type="line" smooth="yes"/>
      <point x="546" y="68"/>
      <point x="540" y="57"/>
      <point x="516" y="26"/>
      <point x="488" y="3"/>
      <point x="437" y="-16"/>
      <point x="408" y="-16" type="qcurve" smooth="yes"/>
      <point x="314" y="-16"/>
      <point x="174" y="52"/>
      <point x="69" y="202"/>
      <point x="16" y="459"/>
      <point x="16" y="821"/>
      <point x="69" y="1078"/>
      <point x="174" y="1228"/>
      <point x="314" y="1296"/>
    </contour>
    <contour>
      <point x="512" y="1139" type="line"/>
      <point x="434" y="1139"/>
      <point x="318" y="1087"/>
      <point x="230" y="973"/>
      <point x="186" y="778"/>
      <point x="186" y="502"/>
      <point x="230" y="307"/>
      <point x="318" y="193"/>
      <point x="434" y="141"/>
      <point x="512" y="141" type="qcurve"/>
    </contour>
  </outline>
</glyph>
<glyph name="oe" format="2">
  <advance width="1024"/>
  <unicode hex="0153"/>
  <outline>
    <contour>
      <point x="307" y="1032" type="qcurve" smooth="yes"/>
      <point x="443" y="1032"/>
      <point x="504" y="894" type="qcurve"/>
      <point x="577" y="1032"/>
      <point x="716" y="1032" type="qcurve" smooth="yes"/>
      <point x="846" y="1032"/>
      <point x="992" y="831"/>
      <point x="992" y="656" type="qcurve" smooth="yes"/>
      <point x="992" y="585" type="line" smooth="yes"/>
      <point x="992" y="503"/>
      <point x="924" y="439"/>
      <point x="835" y="439" type="qcurve" smooth="yes"/>
      <point x="591" y="439" type="line"/>
      <point x="591" y="433"/>
      <point x="592" y="412"/>
      <point x="601" y="351"/>
      <point x="617" y="296"/>
      <point x="651" y="228"/>
      <point x="697" y="179"/>
      <point x="772" y="146"/>
      <point x="819" y="146" type="qcurve" smooth="yes"/>
      <point x="960" y="146" type="line"/>
      <point x="960" y="8" type="line"/>
      <point x="906" y="-8"/>
      <point x="819" y="-8" type="qcurve" smooth="yes"/>
      <point x="606" y="-8"/>
      <point x="512" y="147" type="qcurve"/>
      <point x="451" y="-8"/>
      <point x="307" y="-8" type="qcurve" smooth="yes"/>
      <point x="239" y="-8"/>
      <point x="138" y="46"/>
      <point x="62" y="165"/>
      <point x="24" y="368"/>
      <point x="24" y="656"/>
      <point x="62" y="859"/>
      <point x="138" y="978"/>
      <point x="239" y="1032"/>
    </contour>
    <contour>
      <point x="245" y="886"/>
      <point x="181" y="714"/>
      <point x="181" y="310"/>
      <point x="245" y="138"/>
      <point x="369" y="138"/>
      <point x="433" y="310"/>
      <point x="433" y="714"/>
      <point x="369" y="886"/>
    </contour>
    <contour>
      <point x="716" y="886" type="qcurve" smooth="yes"/>
      <point x="681" y="886"/>
      <point x="630" y="824"/>
      <point x="606" y="736"/>
      <point x="593" y="647"/>
      <point x="592" y="616" type="qcurve" smooth="yes"/>
      <point x="591" y="585" type="line"/>
      <point x="835" y="585" type="line"/>
      <point x="835" y="656" type="line" smooth="yes"/>
      <point x="835" y="763"/>
      <point x="771" y="886"/>
    </contour>
  </outline>
</glyph>
<glyph name="uni0181" format="2">
  <advance width="1024"/>
  <unicode hex="0181"/>
  <outline>
    <contour>
      <point x="256" y="1280" type="qcurve" smooth="yes"/>
      <point x="512" y="1280" type="line" smooth="yes"/>
      <point x="706" y="1280"/>
      <point x="912" y="1122"/>
      <point x="912" y="946" type="qcurve" smooth="yes"/>
      <point x="912" y="893"/>
      <point x="877" y="805"/>
      <point x="827" y="755"/>
      <point x="777" y="720"/>
      <point x="759.5" y="714" type="qcurve" smooth="yes"/>
      <point x="742" y="708" type="line"/>
      <point x="752" y="705"/>
      <point x="783" y="693"/>
      <point x="864" y="643"/>
      <point x="925" y="577"/>
      <point x="976" y="457"/>
      <point x="976" y="384" type="qcurve" smooth="yes"/>
      <point x="976" y="177"/>
      <point x="739" y="0"/>
      <point x="512" y="0" type="qcurve" smooth="yes"/>
      <point x="256" y="0" type="line"/>
      <point x="256" y="1123" type="line"/>
      <point x="225" y="1123"/>
      <point x="185" y="1100"/>
      <point x="164" y="1070"/>
      <point x="154" y="1000"/>
      <point x="152" y="950"/>
      <point x="152" y="896" type="qcurve"/>
      <point x="20" y="896" type="line"/>
      <point x="12" y="952"/>
      <point x="12" y="1043" type="qcurve" smooth="yes"/>
      <point x="12" y="1153"/>
      <point x="143" y="1280"/>
    </contour>
    <contour>
      <point x="426" y="1123" type="line"/>
      <point x="426" y="768" type="line"/>
      <point x="512" y="768" type="line" smooth="yes"/>
      <point x="618" y="768"/>
      <point x="742" y="864"/>
      <point x="742" y="1028"/>
      <point x="618" y="1123"/>
      <point x="512" y="1123" type="qcurve" smooth="yes"/>
    </contour>
    <contour>
      <point x="426" y="611" type="line"/>
      <point x="426" y="157" type="line"/>
      <point x="512" y="157" type="line" smooth="yes"/>
      <point x="661" y="157"/>
      <point x="806" y="253"/>
      <point x="806" y="515"/>
      <point x="661" y="611"/>
      <point x="512" y="611" type="qcurve" smooth="yes"/>
    </contour>
  </outline>
</glyph>
<glyph name="uni0185" format="2">
  <advance width="1024"/>
  <unicode hex="0185"/>
  <outline>
    <contour>
      <point x="330" y="1280" type="line"/>
      <point x="330" y="992" type="line"/>
      <point x="419" y="1024"/>
      <point x="512" y="1024" type="qcurve" smooth="yes"/>
      <point x="697" y="1024"/>
      <point x="912" y="762"/>
      <point x="912" y="536" type="qcurve" smooth="yes"/>
      <point x="912" y="288"/>
      <point x="674" y="0"/>
      <point x="468" y="0" type="qcurve" smooth="yes"/>
      <point x="416" y="0" type="line" smooth="yes"/>
      <point x="272" y="0"/>
      <point x="160" y="112"/>
      <point x="160" y="256" type="qcurve" smooth="yes"/>
      <point x="160" y="1024" type="line"/>
      <point x="32" y="1106" type="line"/>
      <point x="32" y="1138" type="line"/>
    </contour>
    <contour>
      <point x="512" y="867" type="qcurve" smooth="yes"/>
      <point x="419" y="867"/>
      <point x="330" y="829" type="qcurve"/>
      <point x="330" y="256" type="line" smooth="yes"/>
      <point x="330" y="210"/>
      <point x="376" y="157"/>
      <point x="416" y="157" type="qcurve" smooth="yes"/>
      <point x="468" y="157" type="line" smooth="yes"/>
      <point x="595" y="157"/>
      <point x="742" y="361"/>
      <point x="742" y="536" type="qcurve" smooth="yes"/>
      <point x="742" y="690"/>
      <point x="619" y="867"/>
    </contour>
  </outline>
</glyph>
<glyph name="uni018A" format="2">
  <advance width="1024"/>
  <unicode hex="018A"/>
  <outline>
    <contour>
      <point x="256" y="1280" type="qcurve" smooth="yes"/>
      <point x="512" y="1280" type="line" smooth="yes"/>
      <point x="623" y="1280"/>
      <point x="789" y="1214"/>
      <point x="913" y="1067"/>
      <point x="976" y="817"/>
      <point x="976" y="463"/>
      <point x="913" y="213"/>
      <point x="789" y="66"/>
      <point x="623" y="0"/>
      <point x="512" y="0" type="qcurve" smooth="yes"/>
      <point x="256" y="0" type="line"/>
      <point x="256" y="1123" type="line"/>
      <point x="225" y="1123"/>
      <point x="185" y="1100"/>
      <point x="164" y="1070"/>
      <point x="154" y="1000"/>
      <point x="152" y="950"/>
      <point x="152" y="896" type="qcurve"/>
      <point x="20" y="896" type="line"/>
      <point x="12" y="952"/>
      <point x="12" y="1043" type="qcurve" smooth="yes"/>
      <point x="12" y="1153"/>
      <point x="143" y="1280"/>
    </contour>
    <contour>
      <point x="426" y="1123" type="line"/>
      <point x="426" y="157" type="line"/>
      <point x="512" y="157" type="line" smooth="yes"/>
      <point x="583" y="157"/>
      <point x="688" y="207"/>
      <point x="766" y="318"/>
      <point x="806" y="507"/>
      <point x="806" y="773"/>
      <point x="766" y="962"/>
      <point x="688" y="1073"/>
      <point x="583" y="1123"/>
      <point x="512" y="1123" type="qcurve" smooth="yes"/>
    </contour>
  </outline>
</glyph>
<glyph name="uni018B" format="2">
  <advance width="1024"/>
  <unicode hex="018B"/>
  <outline>
    <contour>
      <point x="896" y="1280" type="line"/>
      <point x="896" y="0" type="line"/>
      <point x="512" y="0" type="line" smooth="yes"/>
      <point x="312" y="0"/>
      <point x="80" y="206"/>
      <point x="80" y="562"/>
      <point x="312" y="768"/>
      <point x="512" y="768" type="qcurve" smooth="yes"/>
      <point x="726" y="768" type="line"/>
      <point x="726" y="1123" type="line"/>
      <point x="160" y="1123" type="line"/>
      <point x="160" y="1280" type="line"/>
    </contour>
    <contour>
      <point x="726" y="611" type="line"/>
      <point x="512" y="611" type="line" smooth="yes"/>
      <point x="391" y="611"/>
      <point x="250" y="489"/>
      <point x="250" y="279"/>
      <point x="391" y="157"/>
      <point x="512" y="157" type="qcurve" smooth="yes"/>
      <point x="726" y="157" type="line"/>
    </contour>
  </outline>
</glyph>
<glyph name="uni018E" format="2">
  <advance width="1024"/>
  <unicode hex="018E"/>
  <outline>
    <contour>
      <point x="864" y="1280" type="line"/>
      <point x="864" y="0" type="line"/>
      <point x="128" y="0" type="line"/>
      <point x="128" y="157" type="line"/>
      <point x="694" y="157" type="line"/>
      <point x="694" y="611" type="line"/>
      <point x="192" y="611" type="line"/>
      <point x="192" y="768" type="line"/>
      <point x="694" y="768" type="line"/>
      <point x="694" y="1123" type="line"/>
      <point x="128" y="1123" type="line"/>
      <point x="128" y="1280" type="line"/>
    </contour>
  </outline>
</glyph>
<glyph name="uni018F" format="2">
  <advance width="1024"/>
  <unicode hex="018F"/>
  <outline>
    <contour>
      <point x="406" y="1288" type="qcurve" smooth="yes"/>
      <point x="655" y="1288"/>
      <point x="936" y="968"/>
      <point x="936" y="671" type="qcurve" smooth="yes"/>
      <point x="936" y="340"/>
      <point x="711" y="-16"/>
      <point x="512" y="-16" type="qcurve" smooth="yes"/>
      <point x="319" y="-16"/>
      <point x="96" y="261"/>
      <point x="96" y="500" type="qcurve" smooth="yes"/>
      <point x="96" y="611" type="line" smooth="yes"/>
      <point x="96" y="700"/>
      <point x="170" y="768"/>
      <point x="266" y="768" type="qcurve" smooth="yes"/>
      <point x="758" y="768" type="line"/>
      <point x="758" y="775"/>
      <point x="756" y="801"/>
      <point x="743" y="875"/>
      <point x="718" y="942"/>
      <point x="666" y="1024"/>
      <point x="594" y="1083"/>
      <point x="478" y="1123"/>
      <point x="406" y="1123" type="qcurve" smooth="yes"/>
      <point x="184" y="1123" type="line"/>
      <point x="184" y="1272" type="line"/>
      <point x="269" y="1288"/>
    </contour>
    <contour>
      <point x="266" y="611" type="line"/>
      <point x="266" y="500" type="line" smooth="yes"/>
      <point x="266" y="334"/>
      <point x="398" y="141"/>
      <point x="512" y="141" type="qcurve" smooth="yes"/>
      <point x="562" y="141"/>
      <point x="644" y="193"/>
      <point x="693" y="276"/>
      <point x="730" y="376"/>
      <point x="747" y="476"/>
      <point x="757" y="559"/>
      <point x="757.5" y="585" type="qcurve" smooth="yes"/>
      <point x="758" y="611" type="line"/>
    </contour>
  </outline>
</glyph>
<glyph name="uni0190" format="2">
  <advance width="1024"/>
  <unicode hex="0190"/>
  <outline>
    <contour>
      <point x="864" y="1272" type="line"/>
      <point x="864" y="1123" type="line"/>
      <point x="589" y="1123" type="line"/>
      <point x="314" y="1131"/>
      <point x="314" y="946" type="qcurve" smooth="yes"/>
      <point x="314" y="850"/>
      <point x="477" y="768"/>
      <point x="634" y="768" type="qcurve" smooth="yes"/>
      <point x="800" y="768" type="line"/>
      <point x="800" y="611" type="line"/>
      <point x="622" y="611" type="line" smooth="yes"/>
      <point x="456" y="611"/>
      <point x="282" y="506"/>
      <point x="282" y="262"/>
      <point x="439" y="157"/>
      <point x="589" y="157" type="qcurve" smooth="yes"/>
      <point x="896" y="157" type="line"/>
      <point x="896" y="8" type="line"/>
      <point x="779" y="-8"/>
      <point x="589" y="-8" type="qcurve" smooth="yes"/>
      <point x="355" y="-8"/>
      <point x="112" y="173"/>
      <point x="112" y="384" type="qcurve" smooth="yes"/>
      <point x="112" y="437"/>
      <point x="134" y="530"/>
      <point x="170" y="594"/>
      <point x="213" y="646"/>
      <point x="256" y="678"/>
      <point x="292" y="700"/>
      <point x="303" y="704" type="qcurve" smooth="yes"/>
      <point x="314" y="708" type="line"/>
      <point x="307" y="710"/>
      <point x="284" y="719"/>
      <point x="226" y="756"/>
      <point x="181" y="805"/>
      <point x="144" y="893"/>
      <point x="144" y="946" type="qcurve" smooth="yes"/>
      <point x="144" y="1130"/>
      <point x="371" y="1288"/>
      <point x="589" y="1288" type="qcurve" smooth="yes"/>
      <point x="665" y="1288"/>
      <point x="802" y="1280"/>
      <point x="833" y="1276" type="qcurve" smooth="yes"/>
    </contour>
  </outline>
</glyph>
<glyph name="uni0191" format="2">
  <advance width="1024"/>
  <unicode hex="0191"/>
  <outline>
    <contour>
      <point x="192" y="1280" type="line"/>
      <point x="928" y="1280" type="line"/>
      <point x="928" y="1123" type="line"/>
      <point x="362" y="1123" type="line"/>
      <point x="362" y="768" type="line"/>
      <point x="896" y="768" type="line"/>
      <point x="896" y="611" type="line"/>
      <point x="362" y="611" type="line"/>
      <point x="362" y="157" type="line" smooth="yes"/>
      <point x="362" y="-70"/>
      <point x="215" y="-264"/>
      <point x="73" y="-264" type="qcurve" smooth="yes"/>
      <point x="53" y="-264"/>
      <point x="16" y="-256"/>
      <point x="8" y="-252" type="qcurve" smooth="yes"/>
      <point x="0" y="-248" type="line"/>
      <point x="0" y="-99" type="line"/>
      <point x="73" y="-99" type="line" smooth="yes"/>
      <point x="132" y="-99"/>
      <point x="192" y="19"/>
      <point x="192" y="157" type="qcurve" smooth="yes"/>
    </contour>
  </outline>
</glyph>
<glyph name="uni0193" format="2">
  <advance width="1024"/>
  <unicode hex="0193"/>
  <outline>
    <contour>
      <point x="923" y="1540" type="qcurve" smooth="yes"/>
      <point x="951" y="1540"/>
      <point x="1001" y="1536"/>
      <point x="1012.5" y="1534" type="qcurve" smooth="yes"/>
      <point x="1024" y="1532" type="line"/>
      <point x="1024" y="1404" type="line"/>
      <point x="999" y="1404"/>
      <point x="975" y="1403"/>
      <point x="938" y="1396"/>
      <point x="922" y="1381"/>
      <point x="903" y="1354"/>
      <point x="896" y="1310"/>
      <point x="896" y="1280" type="qcurve" smooth="yes"/>
      <point x="896" y="1123" type="line"/>
      <point x="640" y="1123" type="line" smooth="yes"/>
      <point x="452" y="1123"/>
      <point x="258" y="869"/>
      <point x="258" y="640" type="qcurve" smooth="yes"/>
      <point x="258" y="505"/>
      <point x="300" y="312"/>
      <point x="383" y="200"/>
      <point x="493" y="149"/>
      <point x="567" y="149" type="qcurve" smooth="yes"/>
      <point x="660" y="149"/>
      <point x="758" y="199"/>
      <point x="758" y="256" type="qcurve" smooth="yes"/>
      <point x="758" y="611" type="line"/>
      <point x="512" y="611" type="line"/>
      <point x="512" y="768" type="line"/>
      <point x="928" y="768" type="line"/>
      <point x="928" y="256" type="line" smooth="yes"/>
      <point x="928" y="114"/>
      <point x="744" y="-8"/>
      <point x="567" y="-8" type="qcurve" smooth="yes"/>
      <point x="450" y="-8"/>
      <point x="276" y="59"/>
      <point x="146" y="207"/>
      <point x="80" y="461"/>
      <point x="80" y="640" type="qcurve" smooth="yes"/>
      <point x="80" y="944"/>
      <point x="369" y="1288"/>
      <point x="640" y="1288" type="qcurve" smooth="yes"/>
      <point x="760" y="1288" type="line"/>
      <point x="760" y="1405"/>
      <point x="847" y="1540"/>
    </contour>
  </outline>
</glyph>
<glyph name="uni0196" format="2">
  <advance width="1024"/>
  <unicode hex="0196"/>
  <outline>
    <contour>
      <point x="896" y="8" type="line"/>
      <point x="852" y="-8"/>
      <point x="782" y="-8" type="qcurve" smooth="yes"/>
      <point x="608" y="-8"/>
      <point x="427" y="142"/>
      <point x="427" y="316" type="qcurve" smooth="yes"/>
      <point x="427" y="1280" type="line"/>
      <point x="597" y="1280" type="line"/>
      <point x="597" y="316" type="line" smooth="yes"/>
      <point x="597" y="231"/>
      <point x="692" y="157"/>
      <point x="782" y="157" type="qcurve" smooth="yes"/>
      <point x="896" y="157" type="line"/>
    </contour>
  </outline>
</glyph>
<glyph name="uni0198" format="2">
  <advance width="1024"/>
  <unicode hex="0198"/>
  <outline>
    <contour>
      <point x="128" y="1280" type="line"/>
      <point x="298" y="1280" type="line"/>
      <point x="298" y="704" type="line"/>
      <point x="610" y="1118" type="line" smooth="yes"/>
      <point x="648" y="1168"/>
      <point x="685" y="1213"/>
      <point x="741" y="1268"/>
      <point x="794" y="1288"/>
      <point x="826" y="1288" type="qcurve" smooth="yes"/>
      <point x="863" y="1288"/>
      <point x="930" y="1280"/>
      <point x="945" y="1276" type="qcurve" smooth="yes"/>
      <point x="960" y="1272" type="line"/>
      <point x="960" y="1123" type="line"/>
      <point x="914" y="1123"/>
      <point x="877" y="1123"/>
      <point x="825" y="1114"/>
      <point x="811" y="1108"/>
      <point x="775" y="1078"/>
      <point x="758" y="1054"/>
      <point x="735" y="1024" type="qcurve" smooth="yes"/>
      <point x="477" y="681" type="line"/>
      <point x="960" y="0" type="line"/>
      <point x="752" y="0" type="line"/>
      <point x="298" y="640" type="line"/>
      <point x="298" y="0" type="line"/>
      <point x="128" y="0" type="line"/>
    </contour>
  </outline>
</glyph>
<glyph name="uni019A" format="2">
  <advance width="1024"/>
  <unicode hex="019A"/>
  <outline>
    <contour>
      <point x="160" y="1280" type="line"/>
      <point x="597" y="1280" type="line"/>
      <point x="597" y="768" type="line"/>
      <point x="832" y="768" type="line"/>
      <point x="832" y="611" type="line"/>
      <point x="597" y="611" type="line"/>
      <point x="597" y="157" type="line"/>
      <point x="896" y="157" type="line"/>
      <point x="896" y="0" type="line"/>
      <point x="128" y="0" type="line"/>
      <point x="128" y="157" type="line"/>
      <point x="427" y="157" type="line"/>
      <point x="427" y="611" type="line"/>
      <point x="192" y="611" type="line"/>
      <point x="192" y="768" type="line"/>
      <point x="427" y="768" type="line"/>
      <point x="427" y="1123" type="line"/>
      <point x="160" y="1123" type="line"/>
    </contour>
  </outline>
</glyph>
<glyph name="uni019B" format="2">
  <advance width="1024"/>
  <unicode hex="019B"/>
  <outline>
    <contour>
      <point x="253" y="1288" type="qcurve" smooth="yes"/>
      <point x="286" y="1288"/>
      <point x="339" y="1268"/>
      <point x="374" y="1243"/>
      <point x="413" y="1183"/>
      <point x="434" y="1141"/>
      <point x="455" y="1095" type="qcurve" smooth="yes"/>
      <point x="488" y="1024" type="line"/>
      <point x="768" y="1180" type="line"/>
      <point x="768" y="1024" type="line"/>
      <point x="545" y="900" type="line"/>
      <point x="960" y="0" type="line"/>
      <point x="773" y="0" type="line"/>
      <point x="512" y="565" type="line"/>
      <point x="251" y="0" type="line"/>
      <point x="64" y="0" type="line"/>
      <point x="418" y="768" type="line"/>
      <point x="395" y="817" type="line"/>
      <point x="128" y="668" type="line"/>
      <point x="128" y="824" type="line"/>
      <point x="337" y="940" type="line"/>
      <point x="300" y="1019" type="line" smooth="yes"/>
      <point x="285" y="1051"/>
      <point x="273" y="1076"/>
      <point x="248" y="1107"/>
      <point x="237" y="1114"/>
      <point x="195" y="1123"/>
      <point x="166" y="1123"/>
      <point x="128" y="1123" type="qcurve"/>
      <point x="128" y="1272" type="line"/>
      <point x="176" y="1288"/>
    </contour>
  </outline>
</glyph>
<glyph name="uni019F" format="2">
  <advance width="1024"/>
  <unicode hex="019F"/>
  <outline>
    <contour>
      <point x="623" y="1296"/>
      <point x="789" y="1228"/>
      <point x="913" y="1078"/>
      <point x="976" y="821"/>
      <point x="976" y="459"/>
      <point x="913" y="202"/>
      <point x="789" y="52"/>
      <point x="623" y="-16"/>
      <point x="401" y="-16"/>
      <point x="235" y="52"/>
      <point x="111" y="202"/>
      <point x="48" y="459"/>
      <point x="48" y="821"/>
      <point x="111" y="1078"/>
      <point x="235" y="1228"/>
      <point x="401" y="1296"/>
    </contour>
    <contour>
      <point x="382" y="1139"/>
      <point x="239" y="944"/>
      <point x="228" y="719" type="qcurve"/>
      <point x="796" y="719" type="line"/>
      <point x="785" y="944"/>
      <point x="642" y="1139"/>
    </contour>
    <contour>
      <point x="228" y="562" type="line"/>
      <point x="239" y="336"/>
      <point x="382" y="141"/>
      <point x="642" y="141"/>
      <point x="785" y="336"/>
      <point x="796" y="562" type="qcurve"/>
    </contour>
  </outline>
</glyph>
<glyph name="Ohorn" format="2">
  <advance width="1024"/>
  <unicode hex="01A0"/>
  <outline>
    <contour>
      <point x="854" y="1408" type="qcurve"/>
      <point x="1024" y="1408" type="line"/>
      <point x="1024" y="1171"/>
      <point x="900" y="1075" type="qcurve"/>
      <point x="976" y="920"/>
      <point x="976" y="640" type="qcurve" smooth="yes"/>
      <point x="976" y="459"/>
      <point x="913" y="202"/>
      <point x="789" y="52"/>
      <point x="623" y="-16"/>
      <point x="401" y="-16"/>
      <point x="235" y="52"/>
      <point x="111" y="202"/>
      <point x="48" y="459"/>
      <point x="48" y="821"/>
      <point x="111" y="1078"/>
      <point x="235" y="1228"/>
      <point x="401" y="1296"/>
      <point x="512" y="1296" type="qcurve" smooth="yes"/>
      <point x="704" y="1296"/>
      <point x="813" y="1194" type="qcurve"/>
      <point x="854" y="1256"/>
    </contour>
    <contour>
      <point x="443" y="1139"/>
      <point x="341" y="1087"/>
      <point x="265" y="973"/>
      <point x="226" y="778"/>
      <point x="226" y="502"/>
      <point x="265" y="307"/>
      <point x="341" y="193"/>
      <point x="443" y="141"/>
      <point x="581" y="141"/>
      <point x="683" y="193"/>
      <point x="759" y="307"/>
      <point x="798" y="502"/>
      <point x="798" y="778"/>
      <point x="759" y="973"/>
      <point x="683" y="1087"/>
      <point x="581" y="1139"/>
    </contour>
  </outline>
</glyph>
<glyph name="uni01A3" format="2">
  <advance width="1024"/>
  <unicode hex="01A3"/>
  <outline>
    <contour>
      <point x="372" y="1032" type="qcurve" smooth="yes"/>
      <point x="516" y="1032"/>
      <point x="580" y="924" type="qcurve"/>
      <point x="790" y="1024" type="line"/>
      <point x="960" y="1024" type="line"/>
      <point x="960" y="0" type="line"/>
      <point x="790" y="0" type="line"/>
      <point x="790" y="850" type="line"/>
      <point x="618" y="768" type="line"/>
      <point x="618" y="256" type="line" smooth="yes"/>
      <point x="618" y="131"/>
      <point x="487" y="-8"/>
      <point x="372" y="-8" type="qcurve" smooth="yes"/>
      <point x="261" y="-8"/>
      <point x="136" y="91"/>
      <point x="80" y="314"/>
      <point x="80" y="710"/>
      <point x="136" y="933"/>
      <point x="261" y="1032"/>
    </contour>
    <contour>
      <point x="372" y="875" type="qcurve" smooth="yes"/>
      <point x="303" y="875"/>
      <point x="250" y="716"/>
      <point x="250" y="308"/>
      <point x="303" y="149"/>
      <point x="372" y="149" type="qcurve" smooth="yes"/>
      <point x="408" y="149"/>
      <point x="448" y="204"/>
      <point x="448" y="256" type="qcurve" smooth="yes"/>
      <point x="448" y="768" type="line" smooth="yes"/>
      <point x="448" y="820"/>
      <point x="408" y="875"/>
    </contour>
  </outline>
</glyph>
<glyph name="uni01A6" format="2">
  <advance width="1024"/>
  <unicode hex="01A6"/>
  <outline>
    <contour>
      <point x="128" y="1280" type="line"/>
      <point x="298" y="1280" type="line"/>
      <point x="298" y="1024" type="line"/>
      <point x="572" y="1024" type="line" smooth="yes"/>
      <point x="739" y="1024"/>
      <point x="912" y="870"/>
      <point x="912" y="690" type="qcurve" smooth="yes"/>
      <point x="912" y="445"/>
      <point x="686" y="380" type="qcurve"/>
      <point x="960" y="-256" type="line"/>
      <point x="775" y="-256" type="line"/>
      <point x="512" y="355" type="line"/>
      <point x="298" y="355" type="line"/>
      <point x="298" y="0" type="line"/>
      <point x="128" y="0" type="line"/>
    </contour>
    <contour>
      <point x="298" y="867" type="line"/>
      <point x="298" y="512" type="line"/>
      <point x="468" y="512" type="line" smooth="yes"/>
      <point x="602" y="512"/>
      <point x="742" y="594"/>
      <point x="742" y="690" type="qcurve" smooth="yes"/>
      <point x="742" y="785"/>
      <point x="655" y="867"/>
      <point x="572" y="867" type="qcurve" smooth="yes"/>
    </contour>
  </outline>
</glyph>
<glyph name="uni01A7" format="2">
  <advance width="1024"/>
  <unicode hex="01A7"/>
  <outline>
    <contour>
      <point x="372" y="1288" type="qcurve" smooth="yes"/>
      <point x="637" y="1288"/>
      <point x="912" y="1127"/>
      <point x="912" y="939" type="qcurve" smooth="yes"/>
      <point x="912" y="871"/>
      <point x="867" y="762"/>
      <point x="792" y="689"/>
      <point x="693" y="632"/>
      <point x="585" y="592"/>
      <point x="477" y="554"/>
      <point x="378" y="513"/>
      <point x="303" y="463"/>
      <point x="258" y="389"/>
      <point x="258" y="341" type="qcurve" smooth="yes"/>
      <point x="258" y="237"/>
      <point x="439" y="157"/>
      <point x="672" y="157" type="qcurve" smooth="yes"/>
      <point x="928" y="157" type="line"/>
      <point x="928" y="8" type="line"/>
      <point x="830" y="-8"/>
      <point x="672" y="-8" type="qcurve" smooth="yes"/>
      <point x="446" y="-8"/>
      <point x="193" y="58"/>
      <point x="80" y="208"/>
      <point x="80" y="341" type="qcurve" smooth="yes"/>
      <point x="80" y="409"/>
      <point x="125" y="518"/>
      <point x="200" y="591"/>
      <point x="299" y="648"/>
      <point x="407" y="688"/>
      <point x="515" y="726"/>
      <point x="614" y="767"/>
      <point x="689" y="817"/>
      <point x="734" y="891"/>
      <point x="734" y="939" type="qcurve" smooth="yes"/>
      <point x="734" y="1038"/>
      <point x="550" y="1123"/>
      <point x="372" y="1123" type="qcurve" smooth="yes"/>
      <point x="128" y="1123" type="line"/>
      <point x="128" y="1272" type="line"/>
      <point x="221" y="1288"/>
    </contour>
  </outline>
</glyph>
<glyph name="uni01AC" format="2">
  <advance width="1024"/>
  <unicode hex="01AC"/>
  <outline>
    <contour>
      <point x="256" y="1280" type="qcurve" smooth="yes"/>
      <point x="960" y="1280" type="line"/>
      <point x="960" y="1123" type="line"/>
      <point x="597" y="1123" type="line"/>
      <point x="597" y="0" type="line"/>
      <point x="427" y="0" type="line"/>
      <point x="427" y="1123" type="line"/>
      <point x="256" y="1123" type="line" smooth="yes"/>
      <point x="225" y="1123"/>
      <point x="185" y="1100"/>
      <point x="164" y="1070"/>
      <point x="154" y="1000"/>
      <point x="152" y="950"/>
      <point x="152" y="896" type="qcurve"/>
      <point x="20" y="896" type="line"/>
      <point x="12" y="952"/>
      <point x="12" y="1043" type="qcurve" smooth="yes"/>
      <point x="12" y="1153"/>
      <point x="143" y="1280"/>
    </contour>
  </outline>
</glyph>
<glyph name="uhorn" format="2">
  <advance width="1024"/>
  <unicode hex="01B0"/>
  <outline>
    <contour>
      <point x="854" y="1152" type="qcurve"/>
      <point x="1024" y="1152" type="line"/>
      <point x="1024" y="1071"/>
      <point x="993" y="940"/>
      <point x="947" y="862"/>
      <point x="885" y="806"/>
      <point x="836" y="782"/>
      <point x="810" y="775" type="qcurve"/>
      <point x="810" y="88" type="line"/>
      <point x="804" y="84"/>
      <point x="782" y="70"/>
      <point x="708" y="34"/>
      <point x="628" y="6"/>
      <point x="502" y="-16"/>
      <point x="437" y="-16" type="qcurve" smooth="yes"/>
      <point x="254" y="-16"/>
      <point x="64" y="160"/>
      <point x="64" y="366" type="qcurve" smooth="yes"/>
      <point x="64" y="1024" type="line"/>
      <point x="234" y="1024" type="line"/>
      <point x="234" y="366" type="line" smooth="yes"/>
      <point x="234" y="245"/>
      <point x="338" y="141"/>
      <point x="437" y="141" type="qcurve" smooth="yes"/>
      <point x="493" y="141"/>
      <point x="594" y="163"/>
      <point x="617" y="174" type="qcurve" smooth="yes"/>
      <point x="640" y="185" type="line"/>
      <point x="640" y="1024" type="line"/>
      <point x="810" y="1024" type="line"/>
      <point x="810" y="934" type="line"/>
      <point x="854" y="995"/>
    </contour>
  </outline>
</glyph>
<glyph name="uni01B4" format="2">
  <advance width="1024"/>
  <unicode hex="01B4"/>
  <outline>
    <contour>
      <point x="951" y="1284" type="qcurve" smooth="yes"/>
      <point x="970" y="1284"/>
      <point x="1007" y="1280"/>
      <point x="1015.5" y="1278" type="qcurve" smooth="yes"/>
      <point x="1024" y="1276" type="line"/>
      <point x="1024" y="1123" type="line"/>
      <point x="951" y="1123" type="line" smooth="yes"/>
      <point x="892" y="1123"/>
      <point x="832" y="1005"/>
      <point x="832" y="867" type="qcurve" smooth="yes"/>
      <point x="832" y="120" type="line" smooth="yes"/>
      <point x="832" y="-87"/>
      <point x="587" y="-264"/>
      <point x="352" y="-264" type="qcurve" smooth="yes"/>
      <point x="299" y="-264"/>
      <point x="203" y="-256"/>
      <point x="181.5" y="-252" type="qcurve" smooth="yes"/>
      <point x="160" y="-248" type="line"/>
      <point x="160" y="-99" type="line"/>
      <point x="352" y="-99" type="line" smooth="yes"/>
      <point x="504" y="-99"/>
      <point x="662" y="2"/>
      <point x="662" y="120" type="qcurve" smooth="yes"/>
      <point x="662" y="256" type="line"/>
      <point x="448" y="256" type="line" smooth="yes"/>
      <point x="270" y="256"/>
      <point x="64" y="422"/>
      <point x="64" y="566" type="qcurve" smooth="yes"/>
      <point x="64" y="1024" type="line"/>
      <point x="234" y="1024" type="line"/>
      <point x="234" y="566" type="line" smooth="yes"/>
      <point x="234" y="495"/>
      <point x="349" y="413"/>
      <point x="448" y="413" type="qcurve" smooth="yes"/>
      <point x="662" y="413" type="line"/>
      <point x="662" y="867" type="line" smooth="yes"/>
      <point x="662" y="983"/>
      <point x="701" y="1147"/>
      <point x="778" y="1242"/>
      <point x="881" y="1284"/>
    </contour>
  </outline>
</glyph>
<glyph name="uni01B6" format="2">
  <advance width="1024"/>
  <unicode hex="01B6"/>
  <outline>
    <contour>
      <point x="160" y="1024" type="line"/>
      <point x="896" y="1024" type="line"/>
      <point x="896" y="867" type="line"/>
      <point x="676" y="591" type="line"/>
      <point x="864" y="591" type="line"/>
      <point x="864" y="433" type="line"/>
      <point x="549" y="433" type="line"/>
      <point x="329" y="157" type="line"/>
      <point x="896" y="157" type="line"/>
      <point x="896" y="0" type="line"/>
      <point x="128" y="0" type="line"/>
      <point x="128" y="157" type="line"/>
      <point x="348" y="433" type="line"/>
      <point x="160" y="433" type="line"/>
      <point x="160" y="591" type="line"/>
      <point x="475" y="591" type="line"/>
      <point x="695" y="867" type="line"/>
      <point x="160" y="867" type="line"/>
    </contour>
  </outline>
</glyph>
<glyph name="uni01B7" format="2">
  <advance width="1024"/>
  <unicode hex="01B7"/>
  <outline>
    <contour>
      <point x="896" y="1280" type="line"/>
      <point x="896" y="1123" type="line"/>
      <point x="512" y="768" type="line"/>
      <point x="712" y="768"/>
      <point x="944" y="591"/>
      <point x="944" y="438" type="qcurve" smooth="yes"/>
      <point x="944" y="315"/>
      <point x="864" y="140"/>
      <point x="707" y="38"/>
      <point x="496" y="-8"/>
      <point x="355" y="-8" type="qcurve" smooth="yes"/>
      <point x="284" y="-8"/>
      <point x="154" y="-0"/>
      <point x="125" y="4" type="qcurve" smooth="yes"/>
      <point x="96" y="8" type="line"/>
      <point x="96" y="157" type="line"/>
      <point x="355" y="157" type="line" smooth="yes"/>
      <point x="560" y="157"/>
      <point x="774" y="286"/>
      <point x="774" y="438" type="qcurve" smooth="yes"/>
      <point x="774" y="518"/>
      <point x="611" y="611"/>
      <point x="469" y="611" type="qcurve" smooth="yes"/>
      <point x="280" y="611" type="line"/>
      <point x="280" y="768" type="line"/>
      <point x="664" y="1123" type="line"/>
      <point x="128" y="1123" type="line"/>
      <point x="128" y="1280" type="line"/>
    </contour>
  </outline>
</glyph>
<glyph name="uni01B9" format="2">
  <advance width="1024"/>
  <unicode hex="01B9"/>
  <outline>
    <contour>
      <point x="160" y="1024" type="line"/>
      <point x="864" y="1024" type="line"/>
      <point x="864" y="867" type="line"/>
      <point x="382" y="867" type="line"/>
      <point x="734" y="512" type="line"/>
      <point x="734" y="355" type="line"/>
      <point x="551" y="355" type="line" smooth="yes"/>
      <point x="424" y="355"/>
      <point x="282" y="234"/>
      <point x="282" y="128" type="qcurve" smooth="yes"/>
      <point x="282" y="23"/>
      <point x="447" y="-99"/>
      <point x="589" y="-99" type="qcurve" smooth="yes"/>
      <point x="896" y="-99" type="line"/>
      <point x="896" y="-248" type="line"/>
      <point x="779" y="-264"/>
      <point x="589" y="-264" type="qcurve" smooth="yes"/>
      <point x="368" y="-264"/>
      <point x="112" y="-54"/>
      <point x="112" y="128" type="qcurve" smooth="yes"/>
      <point x="112" y="306"/>
      <point x="327" y="512"/>
      <point x="512" y="512" type="qcurve"/>
      <point x="160" y="867" type="line"/>
    </contour>
  </outline>
</glyph>
<glyph name="uni01BA" format="2">
  <advance width="1024"/>
  <unicode hex="01BA"/>
  <outline>
    <contour>
      <point x="160" y="1024" type="line"/>
      <point x="864" y="1024" type="line"/>
      <point x="864" y="867" type="line"/>
      <point x="576" y="669" type="line"/>
      <point x="732" y="669"/>
      <point x="912" y="516"/>
      <point x="912" y="384" type="qcurve" smooth="yes"/>
      <point x="912" y="230"/>
      <point x="708" y="99"/>
      <point x="512" y="99" type="qcurve" smooth="yes"/>
      <point x="406" y="99"/>
      <point x="282" y="46"/>
      <point x="282" y="0" type="qcurve" smooth="yes"/>
      <point x="282" y="-56"/>
      <point x="379" y="-99"/>
      <point x="504" y="-99" type="qcurve" smooth="yes"/>
      <point x="864" y="-99" type="line"/>
      <point x="864" y="-256" type="line"/>
      <point x="504" y="-256" type="line" smooth="yes"/>
      <point x="284" y="-256"/>
      <point x="112" y="-144"/>
      <point x="112" y="0" type="qcurve" smooth="yes"/>
      <point x="112" y="119"/>
      <point x="327" y="256"/>
      <point x="512" y="256" type="qcurve" smooth="yes"/>
      <point x="625" y="256"/>
      <point x="742" y="315"/>
      <point x="742" y="453"/>
      <point x="609" y="512"/>
      <point x="481" y="512" type="qcurve" smooth="yes"/>
      <point x="320" y="512" type="line"/>
      <point x="320" y="669" type="line"/>
      <point x="608" y="867" type="line"/>
      <point x="160" y="867" type="line"/>
    </contour>
  </outline>
</glyph>
<glyph name="uni01BB" format="2">
  <advance width="1024"/>
  <unicode hex="01BB"/>
  <outline>
    <contour>
      <point x="677" y="1296"/>
      <point x="880" y="1092"/>
      <point x="880" y="948" type="qcurve" smooth="yes"/>
      <point x="880" y="863"/>
      <point x="823" y="768" type="qcurve"/>
      <point x="896" y="768" type="line"/>
      <point x="896" y="611" type="line"/>
      <point x="707" y="611" type="line"/>
      <point x="664" y="558"/>
      <point x="649" y="540" type="qcurve" smooth="yes"/>
      <point x="332" y="157" type="line"/>
      <point x="896" y="157" type="line"/>
      <point x="896" y="0" type="line"/>
      <point x="128" y="0" type="line"/>
      <point x="128" y="157" type="line"/>
      <point x="504" y="611" type="line"/>
      <point x="192" y="611" type="line"/>
      <point x="192" y="768" type="line"/>
      <point x="631" y="768" type="line"/>
      <point x="710" y="875"/>
      <point x="710" y="948" type="qcurve" smooth="yes"/>
      <point x="710" y="1019"/>
      <point x="599" y="1139"/>
      <point x="425" y="1139"/>
      <point x="314" y="1019"/>
      <point x="314" y="948" type="qcurve"/>
      <point x="144" y="948" type="line"/>
      <point x="144" y="1092"/>
      <point x="347" y="1296"/>
    </contour>
  </outline>
</glyph>
<glyph name="uni01BE" format="2">
  <advance width="1024"/>
  <unicode hex="01BE"/>
  <outline>
    <contour>
      <point x="128" y="1024" type="line"/>
      <point x="342" y="1024" type="line"/>
      <point x="342" y="1280" type="line"/>
      <point x="512" y="1280" type="line"/>
      <point x="512" y="1024" type="line"/>
      <point x="768" y="1024" type="line"/>
      <point x="768" y="867" type="line"/>
      <point x="512" y="867" type="line"/>
      <point x="512" y="669" type="line"/>
      <point x="708" y="669"/>
      <point x="912" y="515"/>
      <point x="912" y="335" type="qcurve" smooth="yes"/>
      <point x="912" y="176"/>
      <point x="660" y="-8"/>
      <point x="442" y="-8" type="qcurve" smooth="yes"/>
      <point x="391" y="-8"/>
      <point x="298" y="-0"/>
      <point x="277" y="4" type="qcurve" smooth="yes"/>
      <point x="256" y="8" type="line"/>
      <point x="256" y="157" type="line"/>
      <point x="442" y="157" type="line" smooth="yes"/>
      <point x="581" y="157"/>
      <point x="742" y="253"/>
      <point x="742" y="335" type="qcurve" smooth="yes"/>
      <point x="742" y="430"/>
      <point x="625" y="512"/>
      <point x="512" y="512" type="qcurve" smooth="yes"/>
      <point x="342" y="512" type="line"/>
      <point x="342" y="867" type="line"/>
      <point x="128" y="867" type="line"/>
    </contour>
  </outline>
</glyph>
<glyph name="uni01C7" format="2">
  <advance width="1024"/>
  <unicode hex="01C7"/>
  <outline>
    <contour>
      <point x="64" y="1280" type="line"/>
      <point x="234" y="1280" type="line"/>
      <point x="234" y="157" type="line"/>
      <point x="448" y="157" type="line"/>
      <point x="448" y="0" type="line"/>
      <point x="64" y="0" type="line"/>
    </contour>
    <contour>
      <point x="512" y="1280" type="line"/>
      <point x="960" y="1280" type="line"/>
      <point x="960" y="399" type="line" smooth="yes"/>
      <point x="960" y="182"/>
      <point x="806" y="-4"/>
      <point x="658" y="-4" type="qcurve" smooth="yes"/>
      <point x="635" y="-4"/>
      <point x="594" y="-0"/>
      <point x="585" y="2" type="qcurve" smooth="yes"/>
      <point x="576" y="4" type="line"/>
      <point x="576" y="157" type="line"/>
      <point x="658" y="157" type="line" smooth="yes"/>
      <point x="723" y="157"/>
      <point x="790" y="268"/>
      <point x="790" y="399" type="qcurve" smooth="yes"/>
      <point x="790" y="1123" type="line"/>
      <point x="512" y="1123" type="line"/>
    </contour>
  </outline>
</glyph>
<glyph name="uni01CA" format="2">
  <advance width="1024"/>
  <unicode hex="01CA"/>
  <outline>
    <contour>
      <point x="32" y="1280" type="line"/>
      <point x="189" y="1280" type="line"/>
      <point x="419" y="768" type="line"/>
      <point x="419" y="1280" type="line"/>
      <point x="576" y="1280" type="line"/>
      <point x="576" y="0" type="line"/>
      <point x="419" y="0" type="line"/>
      <point x="419" y="456" type="line"/>
      <point x="189" y="968" type="line"/>
      <point x="189" y="0" type="line"/>
      <point x="32" y="0" type="line"/>
    </contour>
    <contour>
      <point x="640" y="1280" type="line"/>
      <point x="992" y="1280" type="line"/>
      <point x="992" y="399" type="line" smooth="yes"/>
      <point x="992" y="182"/>
      <point x="850" y="-4"/>
      <point x="714" y="-4" type="qcurve" smooth="yes"/>
      <point x="694" y="-4"/>
      <point x="657" y="-0"/>
      <point x="648.5" y="2" type="qcurve" smooth="yes"/>
      <point x="640" y="4" type="line"/>
      <point x="640" y="157" type="line"/>
      <point x="714" y="157" type="line" smooth="yes"/>
      <point x="773" y="157"/>
      <point x="835" y="268"/>
      <point x="835" y="399" type="qcurve" smooth="yes"/>
      <point x="835" y="1123" type="line"/>
      <point x="640" y="1123" type="line"/>
    </contour>
  </outline>
</glyph>
<glyph name="uni01CC" format="2">
  <advance width="1024"/>
  <unicode hex="01CC"/>
  <outline>
    <contour>
      <point x="736" y="1365" type="line"/>
      <point x="960" y="1365" type="line"/>
      <point x="960" y="1195" type="line"/>
      <point x="736" y="1195" type="line"/>
    </contour>
    <contour>
      <point x="304" y="1040" type="qcurve" smooth="yes"/>
      <point x="437" y="1040"/>
      <point x="576" y="864"/>
      <point x="576" y="658" type="qcurve" smooth="yes"/>
      <point x="576" y="0" type="line"/>
      <point x="419" y="0" type="line"/>
      <point x="419" y="658" type="line" smooth="yes"/>
      <point x="419" y="779"/>
      <point x="360" y="883"/>
      <point x="304" y="883" type="qcurve" smooth="yes"/>
      <point x="272" y="883"/>
      <point x="215" y="861"/>
      <point x="202" y="850" type="qcurve" smooth="yes"/>
      <point x="189" y="839" type="line"/>
      <point x="189" y="0" type="line"/>
      <point x="32" y="0" type="line"/>
      <point x="32" y="936" type="line"/>
      <point x="36" y="940"/>
      <point x="52" y="954"/>
      <point x="106" y="990"/>
      <point x="165" y="1018"/>
      <point x="257" y="1040"/>
    </contour>
    <contour>
      <point x="640" y="925" type="line"/>
      <point x="960" y="925" type="line"/>
      <point x="960" y="143" type="line" smooth="yes"/>
      <point x="960" y="-74"/>
      <point x="788" y="-260"/>
      <point x="623" y="-260" type="qcurve" smooth="yes"/>
      <point x="592" y="-260"/>
      <point x="537" y="-256"/>
      <point x="524.5" y="-254" type="qcurve" smooth="yes"/>
      <point x="512" y="-252" type="line"/>
      <point x="512" y="-99" type="line"/>
      <point x="623" y="-99" type="line" smooth="yes"/>
      <point x="711" y="-99"/>
      <point x="803" y="12"/>
      <point x="803" y="143" type="qcurve" smooth="yes"/>
      <point x="803" y="768" type="line"/>
      <point x="640" y="768" type="line"/>
    </contour>
  </outline>
</glyph>
<glyph name="uni01E5" format="2">
  <advance width="1024"/>
  <unicode hex="01E5"/>
  <outline>
    <contour>
      <point x="556" y="1024" type="qcurve" smooth="yes"/>
      <point x="640" y="1024" type="line" smooth="yes"/>
      <point x="784" y="1024"/>
      <point x="896" y="912"/>
      <point x="896" y="768" type="qcurve" smooth="yes"/>
      <point x="896" y="157" type="line"/>
      <point x="1024" y="157" type="line"/>
      <point x="1024" y="0" type="line"/>
      <point x="883" y="0" type="line"/>
      <point x="849" y="-139"/>
      <point x="612" y="-264"/>
      <point x="416" y="-264" type="qcurve" smooth="yes"/>
      <point x="363" y="-264"/>
      <point x="267" y="-256"/>
      <point x="245.5" y="-252" type="qcurve" smooth="yes"/>
      <point x="224" y="-248" type="line"/>
      <point x="224" y="-99" type="line"/>
      <point x="416" y="-99" type="line" smooth="yes"/>
      <point x="631" y="-99"/>
      <point x="695" y="0" type="qcurve"/>
      <point x="448" y="0" type="line"/>
      <point x="448" y="157" type="line"/>
      <point x="726" y="157" type="line"/>
      <point x="726" y="256" type="line"/>
      <point x="512" y="256" type="line" smooth="yes"/>
      <point x="327" y="256"/>
      <point x="112" y="459"/>
      <point x="112" y="634" type="qcurve" smooth="yes"/>
      <point x="112" y="815"/>
      <point x="350" y="1024"/>
    </contour>
    <contour>
      <point x="556" y="867" type="line" smooth="yes"/>
      <point x="429" y="867"/>
      <point x="282" y="742"/>
      <point x="282" y="634" type="qcurve" smooth="yes"/>
      <point x="282" y="531"/>
      <point x="405" y="413"/>
      <point x="512" y="413" type="qcurve" smooth="yes"/>
      <point x="726" y="413" type="line"/>
      <point x="726" y="768" type="line" smooth="yes"/>
      <point x="726" y="814"/>
      <point x="680" y="867"/>
      <point x="640" y="867" type="qcurve" smooth="yes"/>
    </contour>
  </outline>
</glyph>
<glyph name="uni01F1" format="2">
  <advance width="1024"/>
  <unicode hex="01F1"/>
  <outline>
    <contour>
      <point x="32" y="1280" type="line"/>
      <point x="189" y="1280" type="line" smooth="yes"/>
      <point x="353" y="1280"/>
      <point x="544" y="937"/>
      <point x="544" y="343"/>
      <point x="353" y="0"/>
      <point x="189" y="0" type="qcurve" smooth="yes"/>
      <point x="32" y="0" type="line"/>
    </contour>
    <contour>
      <point x="544" y="1280" type="line"/>
      <point x="992" y="1280" type="line"/>
      <point x="992" y="1123" type="line"/>
      <point x="697" y="157" type="line"/>
      <point x="992" y="157" type="line"/>
      <point x="992" y="0" type="line"/>
      <point x="544" y="0" type="line"/>
      <point x="544" y="157" type="line"/>
      <point x="839" y="1123" type="line"/>
      <point x="544" y="1123" type="line"/>
    </contour>
    <contour>
      <point x="189" y="1123" type="qcurve"/>
      <point x="189" y="157" type="line"/>
      <point x="280" y="157"/>
      <point x="386" y="416"/>
      <point x="386" y="864"/>
      <point x="280" y="1123"/>
    </contour>
  </outline>
</glyph>
<glyph name="uni01F6" format="2">
  <advance width="1024"/>
  <unicode hex="01F6"/>
  <outline>
    <contour>
      <point x="64" y="1280" type="line"/>
      <point x="234" y="1280" type="line"/>
      <point x="234" y="768" type="line"/>
      <point x="470" y="768" type="line"/>
      <point x="470" y="1280" type="line"/>
      <point x="640" y="1280" type="line"/>
      <point x="640" y="385" type="line" smooth="yes"/>
      <point x="640" y="149"/>
      <point x="790" y="149"/>
      <point x="790" y="385" type="qcurve" smooth="yes"/>
      <point x="790" y="1024" type="line"/>
      <point x="960" y="1024" type="line"/>
      <point x="960" y="385" type="line" smooth="yes"/>
      <point x="960" y="173"/>
      <point x="835" y="-8"/>
      <point x="595" y="-8"/>
      <point x="470" y="173"/>
      <point x="470" y="385" type="qcurve" smooth="yes"/>
      <point x="470" y="611" type="line"/>
      <point x="234" y="611" type="line"/>
      <point x="234" y="0" type="line"/>
      <point x="64" y="0" type="line"/>
    </contour>
  </outline>
</glyph>
<glyph name="uni021C" format="2">
  <advance width="1024"/>
  <unicode hex="021C"/>
  <outline>
    <contour>
      <point x="480" y="1296" type="qcurve" smooth="yes"/>
      <point x="665" y="1296"/>
      <point x="880" y="1081"/>
      <point x="880" y="896" type="qcurve" smooth="yes"/>
      <point x="880" y="738"/>
      <point x="801" y="635" type="qcurve"/>
      <point x="912" y="528"/>
      <point x="912" y="339" type="qcurve" smooth="yes"/>
      <point x="912" y="190"/>
      <point x="770" y="-11"/>
      <point x="642" y="-45" type="qcurve" smooth="yes"/>
      <point x="192" y="-166" type="line"/>
      <point x="192" y="0" type="line"/>
      <point x="584" y="105" type="line" smooth="yes"/>
      <point x="659" y="125"/>
      <point x="742" y="247"/>
      <point x="742" y="339" type="qcurve" smooth="yes"/>
      <point x="742" y="465"/>
      <point x="665" y="531" type="qcurve"/>
      <point x="639" y="520"/>
      <point x="610" y="512" type="qcurve" smooth="yes"/>
      <point x="256" y="417" type="line"/>
      <point x="256" y="583" type="line"/>
      <point x="552" y="662" type="line" smooth="yes"/>
      <point x="627" y="682"/>
      <point x="710" y="804"/>
      <point x="710" y="896" type="qcurve" smooth="yes"/>
      <point x="710" y="1009"/>
      <point x="586" y="1139"/>
      <point x="480" y="1139" type="qcurve" smooth="yes"/>
      <point x="392" y="1139"/>
      <point x="232" y="1100"/>
      <point x="196" y="1080.5" type="qcurve" smooth="yes"/>
      <point x="160" y="1061" type="line"/>
      <point x="160" y="1218" type="line"/>
      <point x="165" y="1221"/>
      <point x="184" y="1232"/>
      <point x="247" y="1259"/>
      <point x="317" y="1279"/>
      <point x="425" y="1296"/>
    </contour>
  </outline>
</glyph>
<glyph name="uni0221" format="2">
  <advance width="1024"/>
  <unicode hex="0221"/>
  <outline>
    <contour>
      <point x="512" y="1280" type="line"/>
      <point x="669" y="1280" type="line"/>
      <point x="669" y="236" type="line"/>
      <point x="717" y="256"/>
      <point x="768" y="256" type="qcurve" smooth="yes"/>
      <point x="874" y="256"/>
      <point x="1024" y="106"/>
      <point x="1024" y="-106"/>
      <point x="874" y="-256"/>
      <point x="662" y="-256"/>
      <point x="512" y="-106"/>
      <point x="512" y="0" type="qcurve"/>
      <point x="400" y="0" type="line" smooth="yes"/>
      <point x="237" y="0"/>
      <point x="48" y="261"/>
      <point x="48" y="488" type="qcurve" smooth="yes"/>
      <point x="48" y="736"/>
      <point x="228" y="1024"/>
      <point x="384" y="1024" type="qcurve" smooth="yes"/>
      <point x="449.317" y="1024"/>
      <point x="512" y="1006.33" type="qcurve"/>
    </contour>
    <contour>
      <point x="384" y="867" type="qcurve" smooth="yes"/>
      <point x="307" y="867"/>
      <point x="218" y="664"/>
      <point x="218" y="488" type="qcurve" smooth="yes"/>
      <point x="218" y="334"/>
      <point x="316" y="157"/>
      <point x="400" y="157" type="qcurve" smooth="yes"/>
      <point x="512" y="157" type="line"/>
      <point x="512" y="846.967" type="line"/>
      <point x="449.316" y="867"/>
    </contour>
    <contour>
      <point x="718" y="120"/>
      <point x="648" y="50"/>
      <point x="648" y="-50"/>
      <point x="718" y="-120"/>
      <point x="818" y="-120"/>
      <point x="888" y="-50"/>
      <point x="888" y="50"/>
      <point x="818" y="120"/>
    </contour>
  </outline>
</glyph>
<glyph name="uni0222" format="2">
  <advance width="1024"/>
  <unicode hex="0222"/>
  <outline>
    <contour>
      <point x="864" y="1280" type="line"/>
      <point x="869" y="1272"/>
      <point x="885" y="1240"/>
      <point x="912" y="1138"/>
      <point x="912" y="1084" type="qcurve" smooth="yes"/>
      <point x="912" y="1018"/>
      <point x="863" y="890"/>
      <point x="793" y="802"/>
      <point x="723" y="733"/>
      <point x="698.5" y="716.5" type="qcurve" smooth="yes"/>
      <point x="674" y="700" type="line"/>
      <point x="685" y="695"/>
      <point x="721" y="675"/>
      <point x="814" y="608"/>
      <point x="886" y="535"/>
      <point x="944" y="421"/>
      <point x="944" y="363" type="qcurve" smooth="yes"/>
      <point x="944" y="187"/>
      <point x="712" y="-16"/>
      <point x="312" y="-16"/>
      <point x="80" y="187"/>
      <point x="80" y="363" type="qcurve" smooth="yes"/>
      <point x="80" y="421"/>
      <point x="136" y="534"/>
      <point x="215" y="611"/>
      <point x="294" y="671"/>
      <point x="322" y="685.5" type="qcurve" smooth="yes"/>
      <point x="350" y="700" type="line"/>
      <point x="340" y="706"/>
      <point x="308" y="729"/>
      <point x="226" y="805"/>
      <point x="163" y="888"/>
      <point x="112" y="1018"/>
      <point x="112" y="1084" type="qcurve" smooth="yes"/>
      <point x="112" y="1138"/>
      <point x="136" y="1236"/>
      <point x="148" y="1258" type="qcurve" smooth="yes"/>
      <point x="160" y="1280" type="line"/>
      <point x="330" y="1280" type="line"/>
      <point x="325" y="1272"/>
      <point x="309" y="1240"/>
      <point x="282" y="1138"/>
      <point x="282" y="1084" type="qcurve" smooth="yes"/>
      <point x="282" y="1029"/>
      <point x="329" y="924"/>
      <point x="397" y="852"/>
      <point x="465" y="795"/>
      <point x="488.5" y="781.5" type="qcurve" smooth="yes"/>
      <point x="512" y="768" type="line"/>
      <point x="521" y="773"/>
      <point x="552" y="792"/>
      <point x="632" y="854"/>
      <point x="692" y="923"/>
      <point x="742" y="1029"/>
      <point x="742" y="1084" type="qcurve" smooth="yes"/>
      <point x="742" y="1138"/>
      <point x="718" y="1236"/>
      <point x="706" y="1258" type="qcurve" smooth="yes"/>
      <point x="694" y="1280" type="line"/>
    </contour>
    <contour>
      <point x="512" y="632" type="line"/>
      <point x="507" y="630"/>
      <point x="488" y="622"/>
      <point x="433" y="594"/>
      <point x="384" y="563"/>
      <point x="323" y="514"/>
      <point x="280" y="464"/>
      <point x="250" y="397"/>
      <point x="250" y="363" type="qcurve" smooth="yes"/>
      <point x="250" y="268"/>
      <point x="391" y="157"/>
      <point x="633" y="157"/>
      <point x="774" y="268"/>
      <point x="774" y="363" type="qcurve" smooth="yes"/>
      <point x="774" y="409"/>
      <point x="720" y="499"/>
      <point x="643" y="561"/>
      <point x="566" y="609"/>
      <point x="539" y="620.5" type="qcurve" smooth="yes"/>
    </contour>
  </outline>
</glyph>
<glyph name="uni0225" format="2">
  <advance width="1024"/>
  <unicode hex="0225"/>
  <outline>
    <contour>
      <point x="160" y="1024" type="line"/>
      <point x="896" y="1024" type="line"/>
      <point x="896" y="867" type="line"/>
      <point x="329" y="157" type="line"/>
      <point x="960" y="157" type="line"/>
      <point x="960" y="0" type="line" smooth="yes"/>
      <point x="960" y="-128"/>
      <point x="931" y="-288"/>
      <point x="858" y="-385"/>
      <point x="751" y="-421"/>
      <point x="664" y="-421" type="qcurve" smooth="yes"/>
      <point x="643" y="-421"/>
      <point x="605" y="-413"/>
      <point x="596.5" y="-409" type="qcurve" smooth="yes"/>
      <point x="588" y="-405" type="line"/>
      <point x="588" y="-256" type="line"/>
      <point x="664" y="-256" type="line" smooth="yes"/>
      <point x="734" y="-254"/>
      <point x="790" y="-143"/>
      <point x="790" y="0" type="qcurve"/>
      <point x="128" y="0" type="line"/>
      <point x="128" y="157" type="line"/>
      <point x="695" y="867" type="line"/>
      <point x="160" y="867" type="line"/>
    </contour>
  </outline>
</glyph>
<glyph name="uni0235" format="2">
  <advance width="1024"/>
  <unicode hex="0235"/>
  <outline>
    <contour>
      <point x="373" y="1040" type="qcurve" smooth="yes"/>
      <point x="524" y="1040"/>
      <point x="682" y="864"/>
      <point x="682" y="658" type="qcurve" smooth="yes"/>
      <point x="682" y="241" type="line"/>
      <point x="723" y="256"/>
      <point x="768" y="256" type="qcurve" smooth="yes"/>
      <point x="874" y="256"/>
      <point x="1024" y="106"/>
      <point x="1024" y="-106"/>
      <point x="874" y="-256"/>
      <point x="662" y="-256"/>
      <point x="512" y="-106"/>
      <point x="512" y="0" type="qcurve" smooth="yes"/>
      <point x="512" y="658" type="line" smooth="yes"/>
      <point x="512" y="779"/>
      <point x="441" y="883"/>
      <point x="373" y="883" type="qcurve" smooth="yes"/>
      <point x="335" y="883"/>
      <point x="265" y="861"/>
      <point x="249.5" y="850" type="qcurve" smooth="yes"/>
      <point x="234" y="839" type="line"/>
      <point x="234" y="0" type="line"/>
      <point x="64" y="0" type="line"/>
      <point x="64" y="936" type="line"/>
      <point x="69" y="940"/>
      <point x="87" y="954"/>
      <point x="148" y="990"/>
      <point x="215" y="1018"/>
      <point x="320" y="1040"/>
    </contour>
    <contour>
      <point x="718" y="120"/>
      <point x="648" y="50"/>
      <point x="648" y="-50"/>
      <point x="718" y="-120"/>
      <point x="818" y="-120"/>
      <point x="888" y="-50"/>
      <point x="888" y="50"/>
      <point x="818" y="120"/>
    </contour>
  </outline>
</glyph>
<glyph name="uni0238" format="2">
  <advance width="1024"/>
  <unicode hex="0238"/>
  <outline>
    <contour>
      <point x="427" y="1280" type="line"/>
      <point x="597" y="1280" type="line"/>
      <point x="597" y="1024" type="line"/>
      <point x="773" y="1024"/>
      <point x="976" y="762"/>
      <point x="976" y="536" type="qcurve" smooth="yes"/>
      <point x="976" y="288"/>
      <point x="773" y="0"/>
      <point x="597" y="0" type="qcurve" smooth="yes"/>
      <point x="427" y="0" type="line" smooth="yes"/>
      <point x="251" y="0"/>
      <point x="48" y="262"/>
      <point x="48" y="488" type="qcurve" smooth="yes"/>
      <point x="48" y="736"/>
      <point x="251" y="1024"/>
      <point x="427" y="1024" type="qcurve"/>
    </contour>
    <contour>
      <point x="427" y="867" type="line"/>
      <point x="330" y="867"/>
      <point x="218" y="663"/>
      <point x="218" y="488" type="qcurve" smooth="yes"/>
      <point x="218" y="334"/>
      <point x="330" y="157"/>
      <point x="427" y="157" type="qcurve"/>
    </contour>
    <contour>
      <point x="597" y="867" type="qcurve"/>
      <point x="597" y="157" type="line"/>
      <point x="694" y="157"/>
      <point x="806" y="361"/>
      <point x="806" y="536" type="qcurve" smooth="yes"/>
      <point x="806" y="690"/>
      <point x="694" y="867"/>
    </contour>
  </outline>
</glyph>
<glyph name="uni023A" format="2">
  <advance width="1024"/>
  <unicode hex="023A"/>
  <outline>
    <contour>
      <point x="817" y="1408" type="line"/>
      <point x="960" y="1408" type="line"/>
      <point x="749" y="977" type="line"/>
      <point x="868" y="687"/>
      <point x="888" y="534" type="qcurve" smooth="yes"/>
      <point x="960" y="0" type="line"/>
      <point x="788" y="0" type="line"/>
      <point x="754" y="256" type="line"/>
      <point x="395" y="256" type="line"/>
      <point x="207" y="-128" type="line"/>
      <point x="64" y="-128" type="line"/>
      <point x="127" y="0" type="line"/>
      <point x="64" y="0" type="line"/>
      <point x="136" y="534" type="line" smooth="yes"/>
      <point x="151" y="647"/>
      <point x="288" y="1020"/>
      <point x="349" y="1150" type="qcurve" smooth="yes"/>
      <point x="410" y="1280" type="line"/>
      <point x="614" y="1280" type="line"/>
      <point x="643" y="1221"/>
      <point x="682" y="1133" type="qcurve"/>
    </contour>
    <contour>
      <point x="512" y="1103" type="line"/>
      <point x="505" y="1089"/>
      <point x="481" y="1041"/>
      <point x="417" y="897"/>
      <point x="365" y="761"/>
      <point x="313" y="583"/>
      <point x="304" y="512" type="qcurve" smooth="yes"/>
      <point x="291" y="413" type="line"/>
      <point x="329" y="413" type="line"/>
      <point x="587" y="938" type="line"/>
    </contour>
    <contour>
      <point x="650" y="775" type="qcurve"/>
      <point x="472" y="413" type="line"/>
      <point x="733" y="413" type="line"/>
      <point x="718" y="514" type="line" smooth="yes"/>
      <point x="702" y="627"/>
    </contour>
  </outline>
</glyph>
<glyph name="uni023C" format="2">
  <advance width="1024"/>
  <unicode hex="023C"/>
  <outline>
    <contour>
      <point x="812" y="1152" type="line"/>
      <point x="960" y="1152" type="line"/>
      <point x="864" y="988" type="line"/>
      <point x="864" y="867" type="line"/>
      <point x="793" y="867" type="line"/>
      <point x="410" y="211" type="line"/>
      <point x="495" y="157"/>
      <point x="642" y="157" type="qcurve" smooth="yes"/>
      <point x="864" y="157" type="line"/>
      <point x="864" y="8" type="line"/>
      <point x="779" y="-8"/>
      <point x="642" y="-8" type="qcurve" smooth="yes"/>
      <point x="443" y="-8"/>
      <point x="322" y="61" type="qcurve"/>
      <point x="212" y="-128" type="line"/>
      <point x="64" y="-128" type="line"/>
      <point x="222" y="143" type="line"/>
      <point x="112" y="272"/>
      <point x="112" y="512" type="qcurve" smooth="yes"/>
      <point x="112" y="751"/>
      <point x="403" y="1032"/>
      <point x="642" y="1032" type="qcurve" smooth="yes"/>
      <point x="696" y="1032"/>
      <point x="740" y="1029" type="qcurve"/>
    </contour>
    <contour>
      <point x="642" y="867" type="line" smooth="yes"/>
      <point x="475" y="867"/>
      <point x="282" y="676"/>
      <point x="282" y="512" type="qcurve" smooth="yes"/>
      <point x="282" y="392"/>
      <point x="321" y="312" type="qcurve"/>
      <point x="645" y="867" type="line"/>
    </contour>
  </outline>
</glyph>
<glyph name="uni023D" format="2">
  <advance width="1024"/>
  <unicode hex="023D"/>
  <outline>
    <contour>
      <point x="160" y="1280" type="line"/>
      <point x="330" y="1280" type="line"/>
      <point x="330" y="768" type="line"/>
      <point x="576" y="768" type="line"/>
      <point x="576" y="611" type="line"/>
      <point x="330" y="611" type="line"/>
      <point x="330" y="157" type="line"/>
      <point x="896" y="157" type="line"/>
      <point x="896" y="0" type="line"/>
      <point x="160" y="0" type="line"/>
      <point x="160" y="611" type="line"/>
      <point x="0" y="611" type="line"/>
      <point x="0" y="768" type="line"/>
      <point x="160" y="768" type="line"/>
    </contour>
  </outline>
</glyph>
<glyph name="uni023F" format="2">
  <advance width="1024"/>
  <unicode hex="023F"/>
  <outline>
    <contour>
      <point x="634" y="1032" type="qcurve" smooth="yes"/>
      <point x="688" y="1032"/>
      <point x="787" y="1024"/>
      <point x="809.5" y="1020" type="qcurve" smooth="yes"/>
      <point x="832" y="1016" type="line"/>
      <point x="832" y="867" type="line"/>
      <point x="634" y="867" type="line" smooth="yes"/>
      <point x="477" y="867"/>
      <point x="314" y="804"/>
      <point x="314" y="731" type="qcurve" smooth="yes"/>
      <point x="314" y="687"/>
      <point x="376" y="626"/>
      <point x="476" y="591"/>
      <point x="597" y="561"/>
      <point x="718" y="522"/>
      <point x="818" y="465"/>
      <point x="880" y="363"/>
      <point x="880" y="292" type="qcurve" smooth="yes"/>
      <point x="880" y="155"/>
      <point x="693" y="15"/>
      <point x="512" y="-2" type="qcurve"/>
      <point x="529" y="-25"/>
      <point x="585" y="-117"/>
      <point x="623" y="-169"/>
      <point x="686" y="-228"/>
      <point x="774" y="-256"/>
      <point x="832" y="-256" type="qcurve"/>
      <point x="832" y="-413" type="line"/>
      <point x="735" y="-413"/>
      <point x="591" y="-367"/>
      <point x="509" y="-295"/>
      <point x="447" y="-206"/>
      <point x="395" y="-118"/>
      <point x="333" y="-46"/>
      <point x="231" y="0"/>
      <point x="160" y="0" type="qcurve"/>
      <point x="160" y="157" type="line"/>
      <point x="370" y="157" type="line" smooth="yes"/>
      <point x="537" y="157"/>
      <point x="710" y="219"/>
      <point x="710" y="292" type="qcurve" smooth="yes"/>
      <point x="710" y="331"/>
      <point x="661" y="389"/>
      <point x="582" y="421"/>
      <point x="480" y="452"/>
      <point x="374" y="476"/>
      <point x="272" y="519"/>
      <point x="193" y="574"/>
      <point x="144" y="669"/>
      <point x="144" y="731" type="qcurve" smooth="yes"/>
      <point x="144" y="893"/>
      <point x="394" y="1032"/>
    </contour>
  </outline>
</glyph>
<glyph name="uni0240" format="2">
  <advance width="1024"/>
  <unicode hex="0240"/>
  <outline>
    <contour>
      <point x="896" y="1024" type="line"/>
      <point x="896" y="867" type="line"/>
      <point x="329" y="157" type="line"/>
      <point x="420" y="157"/>
      <point x="552" y="129"/>
      <point x="627" y="84"/>
      <point x="684" y="29"/>
      <point x="732" y="-26"/>
      <point x="790" y="-71"/>
      <point x="890" y="-99"/>
      <point x="960" y="-99" type="qcurve"/>
      <point x="960" y="-256" type="line"/>
      <point x="869" y="-256"/>
      <point x="737" y="-228"/>
      <point x="662" y="-183"/>
      <point x="605" y="-128"/>
      <point x="557" y="-73"/>
      <point x="499" y="-28"/>
      <point x="399" y="0"/>
      <point x="329" y="0" type="qcurve" smooth="yes"/>
      <point x="128" y="0" type="line"/>
      <point x="128" y="157" type="line"/>
      <point x="695" y="867" type="line"/>
      <point x="160" y="867" type="line"/>
      <point x="160" y="1024" type="line"/>
    </contour>
  </outline>
</glyph>
<glyph name="uni0242" format="2">
  <advance width="1024"/>
  <unicode hex="0242"/>
  <outline>
    <contour>
      <point x="160" y="1016" type="line"/>
      <point x="262" y="1032"/>
      <point x="427" y="1032" type="qcurve" smooth="yes"/>
      <point x="636" y="1032"/>
      <point x="880" y="819"/>
      <point x="880" y="640" type="qcurve" smooth="yes"/>
      <point x="880" y="462"/>
      <point x="682" y="256"/>
      <point x="512" y="256" type="qcurve"/>
      <point x="512" y="0" type="line"/>
      <point x="342" y="0" type="line"/>
      <point x="342" y="413" type="line"/>
      <point x="512" y="413" type="line" smooth="yes"/>
      <point x="604" y="413"/>
      <point x="710" y="535"/>
      <point x="710" y="745"/>
      <point x="558" y="867"/>
      <point x="427" y="867" type="qcurve" smooth="yes"/>
      <point x="160" y="867" type="line"/>
    </contour>
  </outline>
</glyph>
<glyph name="uni0248" format="2">
  <advance width="1024"/>
  <unicode hex="0248"/>
  <outline>
    <contour>
      <point x="192" y="1280" type="line"/>
      <point x="832" y="1280" type="line"/>
      <point x="832" y="768" type="line"/>
      <point x="1024" y="768" type="line"/>
      <point x="1024" y="611" type="line"/>
      <point x="832" y="611" type="line"/>
      <point x="832" y="526" type="line" smooth="yes"/>
      <point x="832" y="378"/>
      <point x="764" y="169"/>
      <point x="630" y="47"/>
      <point x="452" y="-8"/>
      <point x="332" y="-8" type="qcurve" smooth="yes"/>
      <point x="276" y="-8"/>
      <point x="174" y="-0"/>
      <point x="151" y="4" type="qcurve" smooth="yes"/>
      <point x="128" y="8" type="line"/>
      <point x="128" y="157" type="line"/>
      <point x="332" y="157" type="line" smooth="yes"/>
      <point x="494" y="157"/>
      <point x="662" y="327"/>
      <point x="662" y="526" type="qcurve" smooth="yes"/>
      <point x="662" y="611" type="line"/>
      <point x="448" y="611" type="line"/>
      <point x="448" y="768" type="line"/>
      <point x="662" y="768" type="line"/>
      <point x="662" y="1123" type="line"/>
      <point x="192" y="1123" type="line"/>
    </contour>
  </outline>
</glyph>
<glyph name="uni0249" format="2">
  <advance width="1024"/>
  <unicode hex="0249"/>
  <outline>
    <contour>
      <point x="557" y="1365" type="line"/>
      <point x="832" y="1365" type="line"/>
      <point x="832" y="1195" type="line"/>
      <point x="557" y="1195" type="line"/>
    </contour>
    <contour>
      <point x="192" y="925" type="line"/>
      <point x="800" y="925" type="line"/>
      <point x="800" y="512" type="line"/>
      <point x="1024" y="512" type="line"/>
      <point x="1024" y="355" type="line"/>
      <point x="800" y="355" type="line"/>
      <point x="800" y="120" type="line" smooth="yes"/>
      <point x="800" y="-87"/>
      <point x="555" y="-264"/>
      <point x="320" y="-264" type="qcurve" smooth="yes"/>
      <point x="267" y="-264"/>
      <point x="171" y="-256"/>
      <point x="149.5" y="-252" type="qcurve" smooth="yes"/>
      <point x="128" y="-248" type="line"/>
      <point x="128" y="-99" type="line"/>
      <point x="320" y="-99" type="line" smooth="yes"/>
      <point x="472" y="-99"/>
      <point x="630" y="2"/>
      <point x="630" y="120" type="qcurve" smooth="yes"/>
      <point x="630" y="355" type="line"/>
      <point x="384" y="355" type="line"/>
      <point x="384" y="512" type="line"/>
      <point x="630" y="512" type="line"/>
      <point x="630" y="768" type="line"/>
      <point x="192" y="768" type="line"/>
    </contour>
  </outline>
</glyph>
<glyph name="uni024B" format="2">
  <advance width="1024"/>
  <unicode hex="024B"/>
  <outline>
    <contour>
      <point x="492" y="1024" type="qcurve" smooth="yes"/>
      <point x="576" y="1024" type="line" smooth="yes"/>
      <point x="720" y="1024"/>
      <point x="832" y="912"/>
      <point x="832" y="768" type="qcurve" smooth="yes"/>
      <point x="832" y="157" type="line" smooth="yes"/>
      <point x="832" y="19"/>
      <point x="892" y="-99"/>
      <point x="951" y="-99" type="qcurve" smooth="yes"/>
      <point x="1024" y="-99" type="line"/>
      <point x="1024" y="-248" type="line"/>
      <point x="994" y="-264"/>
      <point x="951" y="-264" type="qcurve" smooth="yes"/>
      <point x="809" y="-264"/>
      <point x="662" y="-70"/>
      <point x="662" y="157" type="qcurve" smooth="yes"/>
      <point x="662" y="256" type="line"/>
      <point x="448" y="256" type="line" smooth="yes"/>
      <point x="263" y="256"/>
      <point x="48" y="459"/>
      <point x="48" y="634" type="qcurve" smooth="yes"/>
      <point x="48" y="815"/>
      <point x="286" y="1024"/>
    </contour>
    <contour>
      <point x="492" y="867" type="line" smooth="yes"/>
      <point x="365" y="867"/>
      <point x="218" y="742"/>
      <point x="218" y="634" type="qcurve" smooth="yes"/>
      <point x="218" y="531"/>
      <point x="341" y="413"/>
      <point x="448" y="413" type="qcurve" smooth="yes"/>
      <point x="662" y="413" type="line"/>
      <point x="662" y="768" type="line" smooth="yes"/>
      <point x="662" y="814"/>
      <point x="616" y="867"/>
      <point x="576" y="867" type="qcurve" smooth="yes"/>
    </contour>
  </outline>
</glyph>
<glyph name="uni024F" format="2">
  <advance width="1024"/>
  <unicode hex="024F"/>
  <outline>
    <contour>
      <point x="128" y="1024" type="line"/>
      <point x="298" y="1024" type="line"/>
      <point x="298" y="566" type="line" smooth="yes"/>
      <point x="298" y="495"/>
      <point x="413" y="413"/>
      <point x="512" y="413" type="qcurve" smooth="yes"/>
      <point x="726" y="413" type="line"/>
      <point x="726" y="1024" type="line"/>
      <point x="896" y="1024" type="line"/>
      <point x="896" y="157" type="line"/>
      <point x="1024" y="157" type="line"/>
      <point x="1024" y="0" type="line"/>
      <point x="883" y="0" type="line"/>
      <point x="850" y="-141"/>
      <point x="614" y="-264"/>
      <point x="416" y="-264" type="qcurve" smooth="yes"/>
      <point x="363" y="-264"/>
      <point x="267" y="-256"/>
      <point x="245.5" y="-252" type="qcurve" smooth="yes"/>
      <point x="224" y="-248" type="line"/>
      <point x="224" y="-99" type="line"/>
      <point x="416" y="-99" type="line" smooth="yes"/>
      <point x="631" y="-99"/>
      <point x="695" y="0" type="qcurve"/>
      <point x="448" y="0" type="line"/>
      <point x="448" y="157" type="line"/>
      <point x="726" y="157" type="line"/>
      <point x="726" y="256" type="line"/>
      <point x="512" y="256" type="line" smooth="yes"/>
      <point x="334" y="256"/>
      <point x="128" y="422"/>
      <point x="128" y="566" type="qcurve" smooth="yes"/>
    </contour>
  </outline>
</glyph>
<glyph name="uni0251" format="2">
  <advance width="1024"/>
  <unicode hex="0251"/>
  <outline>
    <contour>
      <point x="556" y="1024" type="qcurve" smooth="yes"/>
      <point x="896" y="1024" type="line"/>
      <point x="896" y="0" type="line"/>
      <point x="726" y="0" type="line"/>
      <point x="726" y="256" type="line"/>
      <point x="722" y="245"/>
      <point x="706" y="210"/>
      <point x="651" y="119"/>
      <point x="592" y="49"/>
      <point x="499" y="-8"/>
      <point x="452" y="-8" type="qcurve" smooth="yes"/>
      <point x="295" y="-8"/>
      <point x="112" y="223"/>
      <point x="112" y="423" type="qcurve" smooth="yes"/>
      <point x="112" y="589"/>
      <point x="173" y="824"/>
      <point x="291" y="962"/>
      <point x="450" y="1024"/>
    </contour>
    <contour>
      <point x="726" y="867" type="line"/>
      <point x="556" y="867" type="line" smooth="yes"/>
      <point x="422" y="867"/>
      <point x="282" y="662"/>
      <point x="282" y="423" type="qcurve" smooth="yes"/>
      <point x="282" y="296"/>
      <point x="373" y="149"/>
      <point x="452" y="149" type="qcurve" smooth="yes"/>
      <point x="499" y="149"/>
      <point x="591" y="224"/>
      <point x="653" y="330"/>
      <point x="702" y="437"/>
      <point x="714" y="474.5" type="qcurve" smooth="yes"/>
      <point x="726" y="512" type="line"/>
    </contour>
  </outline>
</glyph>
<glyph name="uni0253" format="2">
  <advance width="1024"/>
  <unicode hex="0253"/>
  <outline>
    <contour>
      <point x="430" y="1288" type="qcurve" smooth="yes"/>
      <point x="453" y="1288"/>
      <point x="494" y="1280"/>
      <point x="503" y="1276" type="qcurve" smooth="yes"/>
      <point x="512" y="1272" type="line"/>
      <point x="512" y="1123" type="line"/>
      <point x="430" y="1123" type="line" smooth="yes"/>
      <point x="365" y="1123"/>
      <point x="298" y="1032"/>
      <point x="298" y="925" type="qcurve" smooth="yes"/>
      <point x="298" y="880" type="line"/>
      <point x="403" y="925"/>
      <point x="512" y="925" type="qcurve" smooth="yes"/>
      <point x="697" y="925"/>
      <point x="912" y="683"/>
      <point x="912" y="475" type="qcurve" smooth="yes"/>
      <point x="912" y="255"/>
      <point x="674" y="0"/>
      <point x="468" y="0" type="qcurve" smooth="yes"/>
      <point x="384" y="0" type="line" smooth="yes"/>
      <point x="240" y="0"/>
      <point x="128" y="112"/>
      <point x="128" y="256" type="qcurve" smooth="yes"/>
      <point x="128" y="925" type="line" smooth="yes"/>
      <point x="128" y="1120"/>
      <point x="282" y="1288"/>
    </contour>
    <contour>
      <point x="512" y="768" type="qcurve" smooth="yes"/>
      <point x="402" y="768"/>
      <point x="298" y="715" type="qcurve"/>
      <point x="298" y="256" type="line" smooth="yes"/>
      <point x="298" y="210"/>
      <point x="344" y="157"/>
      <point x="384" y="157" type="qcurve" smooth="yes"/>
      <point x="468" y="157" type="line" smooth="yes"/>
      <point x="595" y="157"/>
      <point x="742" y="327"/>
      <point x="742" y="475" type="qcurve" smooth="yes"/>
      <point x="742" y="610"/>
      <point x="618" y="768"/>
    </contour>
  </outline>
</glyph>
<glyph name="uni0255" format="2">
  <advance width="1024"/>
  <unicode hex="0255"/>
  <outline>
    <contour>
      <point x="642" y="1032" type="qcurve" smooth="yes"/>
      <point x="703" y="1032"/>
      <point x="814" y="1024"/>
      <point x="839" y="1020" type="qcurve" smooth="yes"/>
      <point x="864" y="1016" type="line"/>
      <point x="864" y="867" type="line"/>
      <point x="642" y="867" type="line" smooth="yes"/>
      <point x="475" y="867"/>
      <point x="282" y="676"/>
      <point x="282" y="512" type="qcurve" smooth="yes"/>
      <point x="282" y="258"/>
      <point x="458" y="187" type="qcurve"/>
      <point x="448" y="224"/>
      <point x="448" y="256" type="qcurve" smooth="yes"/>
      <point x="448" y="362"/>
      <point x="598" y="512"/>
      <point x="810" y="512"/>
      <point x="960" y="362"/>
      <point x="960" y="150"/>
      <point x="810" y="0"/>
      <point x="704" y="0" type="qcurve" smooth="yes"/>
      <point x="642" y="0" type="line" smooth="yes"/>
      <point x="519" y="0"/>
      <point x="331" y="53"/>
      <point x="187" y="170"/>
      <point x="112" y="371"/>
      <point x="112" y="512" type="qcurve" smooth="yes"/>
      <point x="112" y="751"/>
      <point x="403" y="1032"/>
    </contour>
    <contour>
      <point x="654" y="376"/>
      <point x="584" y="306"/>
      <point x="584" y="206"/>
      <point x="654" y="136"/>
      <point x="754" y="136"/>
      <point x="824" y="206"/>
      <point x="824" y="306"/>
      <point x="754" y="376"/>
    </contour>
  </outline>
</glyph>
<glyph name="uni0258" format="2">
  <advance width="1024"/>
  <unicode hex="0258"/>
  <outline>
    <contour>
      <point x="463" y="-8" type="qcurve" smooth="yes"/>
      <point x="389" y="-8"/>
      <point x="253" y="-0"/>
      <point x="222.5" y="4" type="qcurve" smooth="yes"/>
      <point x="192" y="8" type="line"/>
      <point x="192" y="157" type="line"/>
      <point x="463" y="157" type="line" smooth="yes"/>
      <point x="518" y="157"/>
      <point x="608" y="187"/>
      <point x="663" y="236"/>
      <point x="704" y="295"/>
      <point x="722" y="354"/>
      <point x="733" y="403"/>
      <point x="733.5" y="418" type="qcurve" smooth="yes"/>
      <point x="734" y="433" type="line"/>
      <point x="282" y="433" type="line" smooth="yes"/>
      <point x="186" y="433"/>
      <point x="112" y="502"/>
      <point x="112" y="591" type="qcurve" smooth="yes"/>
      <point x="112" y="660" type="line" smooth="yes"/>
      <point x="112" y="835"/>
      <point x="330" y="1040"/>
      <point x="694" y="1040"/>
      <point x="912" y="755"/>
      <point x="912" y="512" type="qcurve" smooth="yes"/>
      <point x="912" y="271"/>
      <point x="671" y="-8"/>
    </contour>
    <contour>
      <point x="282" y="591" type="line"/>
      <point x="734" y="591" type="line"/>
      <point x="734" y="597"/>
      <point x="733" y="618"/>
      <point x="724" y="679"/>
      <point x="709" y="734"/>
      <point x="676" y="801"/>
      <point x="631" y="850"/>
      <point x="557" y="883"/>
      <point x="512" y="883" type="qcurve" smooth="yes"/>
      <point x="405" y="883"/>
      <point x="282" y="763"/>
      <point x="282" y="660" type="qcurve" smooth="yes"/>
    </contour>
  </outline>
</glyph>
<glyph name="uni025A" format="2">
  <advance width="1024"/>
  <unicode hex="025A"/>
  <outline>
    <contour>
      <point x="275" y="1040" type="qcurve" smooth="yes"/>
      <point x="450" y="1040"/>
      <point x="669" y="805"/>
      <point x="687" y="599" type="qcurve"/>
      <point x="896" y="599" type="line"/>
      <point x="896" y="441" type="line" smooth="yes"/>
      <point x="896" y="428"/>
      <point x="903" y="409"/>
      <point x="922" y="398"/>
      <point x="938" y="391"/>
      <point x="975" y="389"/>
      <point x="999" y="388"/>
      <point x="1024" y="388" type="qcurve"/>
      <point x="1024" y="260" type="line"/>
      <point x="985" y="252"/>
      <point x="923" y="252" type="qcurve" smooth="yes"/>
      <point x="847" y="252"/>
      <point x="760" y="353"/>
      <point x="760" y="441" type="qcurve"/>
      <point x="687" y="441" type="line"/>
      <point x="673" y="231"/>
      <point x="505" y="-8"/>
      <point x="369" y="-8" type="qcurve" smooth="yes"/>
      <point x="225" y="-8"/>
      <point x="64" y="195"/>
      <point x="64" y="372" type="qcurve" smooth="yes"/>
      <point x="64" y="441" type="line" smooth="yes"/>
      <point x="64" y="530"/>
      <point x="138" y="599"/>
      <point x="234" y="599" type="qcurve" smooth="yes"/>
      <point x="512" y="599" type="line"/>
      <point x="512" y="605"/>
      <point x="511" y="625"/>
      <point x="502" y="682"/>
      <point x="485" y="734"/>
      <point x="450" y="798"/>
      <point x="402" y="844"/>
      <point x="323" y="875"/>
      <point x="275" y="875" type="qcurve" smooth="yes"/>
      <point x="128" y="875" type="line"/>
      <point x="128" y="1024" type="line"/>
      <point x="184" y="1040"/>
    </contour>
    <contour>
      <point x="234" y="441" type="line"/>
      <point x="234" y="372" type="line" smooth="yes"/>
      <point x="234" y="267"/>
      <point x="304" y="149"/>
      <point x="369" y="149" type="qcurve" smooth="yes"/>
      <point x="409" y="149"/>
      <point x="468" y="209"/>
      <point x="495" y="295"/>
      <point x="510" y="381"/>
      <point x="511" y="411" type="qcurve" smooth="yes"/>
      <point x="512" y="441" type="line"/>
    </contour>
  </outline>
</glyph>
<glyph name="uni0262" format="2">
  <advance width="1024"/>
  <unicode hex="0262"/>
  <outline>
    <contour>
      <point x="645" y="1032" type="qcurve" smooth="yes"/>
      <point x="705" y="1032"/>
      <point x="814" y="1024"/>
      <point x="839" y="1020" type="qcurve" smooth="yes"/>
      <point x="864" y="1016" type="line"/>
      <point x="864" y="867" type="line"/>
      <point x="645" y="867" type="line" smooth="yes"/>
      <point x="479" y="867"/>
      <point x="282" y="677"/>
      <point x="282" y="512" type="qcurve" smooth="yes"/>
      <point x="282" y="345"/>
      <point x="440" y="149"/>
      <point x="576" y="149" type="qcurve" smooth="yes"/>
      <point x="665" y="149"/>
      <point x="758" y="230"/>
      <point x="758" y="325" type="qcurve" smooth="yes"/>
      <point x="758" y="433" type="line"/>
      <point x="512" y="433" type="line"/>
      <point x="512" y="591" type="line"/>
      <point x="928" y="591" type="line"/>
      <point x="928" y="325" type="line" smooth="yes"/>
      <point x="928" y="145"/>
      <point x="749" y="-8"/>
      <point x="576" y="-8" type="qcurve" smooth="yes"/>
      <point x="361" y="-8"/>
      <point x="112" y="271"/>
      <point x="112" y="753"/>
      <point x="398" y="1032"/>
    </contour>
  </outline>
</glyph>
<glyph name="uni0264" format="2">
  <advance width="1024"/>
  <unicode hex="0264"/>
  <outline>
    <contour>
      <point x="402" y="856" type="qcurve" smooth="yes"/>
      <point x="512" y="672" type="line"/>
      <point x="622" y="856" type="line" smooth="yes"/>
      <point x="652" y="907"/>
      <point x="685" y="955"/>
      <point x="737" y="1011"/>
      <point x="794" y="1032"/>
      <point x="831" y="1032" type="qcurve" smooth="yes"/>
      <point x="867" y="1032"/>
      <point x="931" y="1024"/>
      <point x="945.5" y="1020" type="qcurve" smooth="yes"/>
      <point x="960" y="1016" type="line"/>
      <point x="960" y="867" type="line"/>
      <point x="920" y="867"/>
      <point x="888" y="867"/>
      <point x="843" y="858"/>
      <point x="830" y="852"/>
      <point x="801" y="822"/>
      <point x="786" y="798"/>
      <point x="768" y="768" type="qcurve" smooth="yes"/>
      <point x="614" y="512" type="line"/>
      <point x="620" y="503"/>
      <point x="641" y="474"/>
      <point x="694" y="391"/>
      <point x="735" y="317"/>
      <point x="768" y="230"/>
      <point x="768" y="202" type="qcurve" smooth="yes"/>
      <point x="768" y="101"/>
      <point x="631" y="-16"/>
      <point x="393" y="-16"/>
      <point x="256" y="101"/>
      <point x="256" y="202" type="qcurve" smooth="yes"/>
      <point x="256" y="247"/>
      <point x="333" y="402"/>
      <point x="371.5" y="457" type="qcurve" smooth="yes"/>
      <point x="410" y="512" type="line"/>
      <point x="256" y="768" type="line" smooth="yes"/>
      <point x="238" y="798"/>
      <point x="223" y="822"/>
      <point x="194" y="852"/>
      <point x="181" y="858"/>
      <point x="136" y="867"/>
      <point x="104" y="867"/>
      <point x="64" y="867" type="qcurve"/>
      <point x="64" y="1016" type="line"/>
      <point x="113" y="1032"/>
      <point x="193" y="1032" type="qcurve" smooth="yes"/>
      <point x="263" y="1032"/>
      <point x="344" y="954"/>
    </contour>
    <contour>
      <point x="512" y="384" type="line"/>
      <point x="502" y="375"/>
      <point x="474" y="342"/>
      <point x="427" y="247"/>
      <point x="427" y="202" type="qcurve" smooth="yes"/>
      <point x="427" y="173"/>
      <point x="472" y="141"/>
      <point x="552" y="141"/>
      <point x="597" y="173"/>
      <point x="597" y="202" type="qcurve" smooth="yes"/>
      <point x="597" y="247"/>
      <point x="554" y="338"/>
      <point x="533" y="361" type="qcurve" smooth="yes"/>
    </contour>
  </outline>
</glyph>
<glyph name="uni026A" format="2">
  <advance width="1024"/>
  <unicode hex="026A"/>
  <outline>
    <contour>
      <point x="160" y="1024" type="line"/>
      <point x="864" y="1024" type="line"/>
      <point x="864" y="867" type="line"/>
      <point x="597" y="867" type="line"/>
      <point x="597" y="157" type="line"/>
      <point x="864" y="157" type="line"/>
      <point x="864" y="0" type="line"/>
      <point x="160" y="0" type="line"/>
      <point x="160" y="157" type="line"/>
      <point x="427" y="157" type="line"/>
      <point x="427" y="867" type="line"/>
      <point x="160" y="867" type="line"/>
    </contour>
  </outline>
</glyph>
